<svg xmlns="http://www.w3.org/2000/svg" viewBox="680 -5575.27 4565 5153">
	<path d="M1520-1721c-91-19-117-21-124-10-4 6-13 39-21 73-8 35-21 92-31 128-9 36-20 81-24 100-5 19-22 87-39 150-16 63-57 221-90 350-77 303-86 337-106 390-9 25-19 57-22 72l-5 28 293 1c276 0 347 3 427 13 42 6 68-18 77-71 10-54 62-275 85-358 18-62 53-209 121-495 11-47 31-118 46-159l25-74-23-18c-36-27-173-57-434-95-60-8-130-20-155-25Zm2925-19c-13-35-31-36-59-28-28 7-48 19-291 81-61 16-138 40-172 53-33 14-84 30-112 36-63 14-90 27-90 46 0 8 18 70 40 137 22 68 63 197 91 288s71 226 95 300c25 74 64 196 87 270l43 135 104-3c58-2 175-8 260-13s217-9 293-9c134 0 137 0 137-22 0-12-27-92-59-177-33-86-90-248-127-361-36-113-77-234-90-270-12-36-48-146-79-245ZM3306-2635c-19-19-34-23-87-24-35 0-71 4-79 8s-53 13-100 20c-151 21-193 33-295 85-169 86-251 188-304 376-67 238-171 700-171 759 0 46 22 39 67-22 85-111 319-352 478-492 44-38 123-111 175-161s145-136 205-191c180-164 191-180 161-246-8-18-17-45-20-60-4-16-17-39-30-52Zm1918-495c-14-6-31-9-37-8-7 1-39 3-72 5-98 5-253 23-288 35-109 35-229 115-289 192-42 55-98 182-98 223 0 13-9 63-19 111s-22 117-26 154c-6 62-5 68 12 68 11 0 31-22 52-58 19-31 55-84 80-117 60-79 291-316 361-370 106-81 225-156 281-176 66-24 81-45 43-59ZM1888-3481c-49-25-58-11-94 161-14 63-34 146-45 185-10 38-37 146-59 240-22 93-44 183-49 200-5 16-17 66-26 110-18 82-84 350-109 440-8 27-24 86-36 130-35 126-35 123-9 129 75 16 236 47 314 60 124 22 299 56 362 71 34 8 35 5 109-320 25-107 33-139 49-200 9-33 22-85 29-116s20-78 29-105c8-27 27-101 41-164 15-63 33-140 41-170 15-57 63-247 96-384 11-44 18-86 17-94-3-15-43-29-168-58-153-37-190-45-280-63-120-24-190-41-212-52Zm2021-77c-12-37-8-36-74-11-27 11-81 28-120 38-38 11-108 31-155 46-74 22-338 95-347 95-7 0-3 41 6 58 5 9 19 60 32 112 12 52 30 120 39 150 10 30 32 107 49 170 18 63 48 164 66 225 52 166 96 325 105 375 4 25 20 81 34 125s44 147 66 230c48 180 62 225 70 230 3 2 37-7 75-20 65-22 302-96 370-115 17-5 62-16 100-25 86-21 137-37 149-47 6-4 5-22-2-45-6-21-36-119-66-218s-76-250-101-335c-26-85-50-166-55-180s-19-63-31-110c0-12-10-48-21-81s-26-87-34-120c-7-34-25-94-38-135-14-41-34-116-46-165-12-50-27-105-32-123Zm731-412c0-6-3-10-8-10-10 0-179 173-229 235-38 48-143 250-143 277 0 7-6 30-14 53-18 51-33 136-46 255-12 112-1 275 30 425 11 55 24 120 29 145s14 58 20 73c6 16 11 39 11 53 0 13 4 24 9 24 14 0 29-50 36-120 3-36 20-133 36-215 17-83 41-213 54-290s28-160 33-185c6-25 15-72 22-105 6-33 17-87 25-120 7-33 19-87 25-120s33-129 61-213c27-83 49-157 49-162ZM1165-4198c-75-22-143-27-322-24-133 2-163 5-163 17 0 8 19 23 43 33 39 18 98 54 294 176 90 57 291 215 375 296 61 58 158 208 158 245 0 20 17 45 31 45 15 0 17-47 9-163-28-368-146-541-425-625Zm166-871c-97-77-100-73-37 54 45 90 116 291 156 440 47 172 63 232 75 280 7 27 25 93 39 145 56 205 81 330 91 455 7 78 23 115 50 115 16 0 39-56 75-180 16-58 34-119 40-135 32-98 40-269 19-406-19-124-91-299-172-419-69-101-217-254-336-349Zm1104-182c-44-9-89-20-101-24-40-13-45 3-145 410-28 115-68 273-89 350-20 77-52 201-69 275-18 74-57 234-87 354-30 121-54 228-54 237 0 25 21 34 120 53 47 10 99 22 115 27 17 6 50 14 75 19s65 13 90 18c25 6 77 15 115 22 39 6 84 15 100 20 85 23 82 24 98-28 8-26 22-81 32-122 24-111 39-176 89-375 96-386 185-735 195-767 5-18 19-69 30-113s27-106 35-138c22-79 20-96-6-101-40-9-211-47-268-61-30-7-86-18-125-25-38-7-106-21-150-31Zm930-277c-4-17-10-32-13-32-19 1-35 22-42 56-5 22-20 82-34 134-49 188-54 205-54 220-2 24-21 110-43 190-35 130-41 153-49 210-5 30-25 131-45 225-20 93-38 179-40 190s-9 47-15 80c-15 77-8 157 25 275 14 52 44 164 65 249 22 84 45 160 52 168 15 18 10 19 303-51 127-30 248-57 270-61 50-8 98-26 107-39 10-14 3-51-27-146-27-85-86-297-140-505-20-77-45-169-55-205-11-36-41-155-69-265-66-269-109-419-166-590-13-39-26-85-30-103Zm-262-12c2-34 1-35-38-35-22-1-192 1-378 2-258 3-339 6-341 16-2 6-12 38-22 69-13 41-15 61-7 69 13 13 110 35 213 49 41 6 89 15 105 20 17 4 102 22 190 40 88 17 168 35 177 40 13 7 48 5 48-4 0 0 12-53 26-116s26-131 27-150Z" fill="#FFFFFF"/>
</svg>