<?xml version="1.0" standalone="no"?>
<!DOCTYPE svg PUBLIC "-//W3C//DTD SVG 20010904//EN"
 "http://www.w3.org/TR/2001/REC-SVG-20010904/DTD/svg10.dtd">
<svg version="1.0" xmlns="http://www.w3.org/2000/svg"
 width="620.000000pt" height="620.000000pt" viewBox="0 0 620.000000 620.000000"
 preserveAspectRatio="xMidYMid meet">

<g transform="translate(0.000000,620.000000) scale(0.100000,-0.100000)"
fill="#000000" stroke="none">
<path d="M600 4900 l0 -700 700 0 700 0 0 700 0 700 -700 0 -700 0 0 -700z
m1200 0 l0 -500 -500 0 -500 0 0 500 0 500 500 0 500 0 0 -500z"/>
<path d="M1000 4900 l0 -300 300 0 300 0 0 300 0 300 -300 0 -300 0 0 -300z"/>
<path d="M2200 5400 l0 -200 200 0 200 0 0 -200 0 -200 -200 0 -200 0 0 -500
0 -500 -100 0 -100 0 0 100 0 100 -200 0 -200 0 0 -100 0 -100 -200 0 -200 0
0 100 0 100 -300 0 -300 0 0 -100 0 -100 100 0 100 0 0 -100 0 -100 -100 0
-100 0 0 -100 0 -100 200 0 200 0 0 200 0 200 100 0 100 0 0 -200 0 -200 100
0 100 0 0 -200 0 -200 -100 0 -100 0 0 100 0 100 -200 0 -200 0 0 -200 0 -200
-100 0 -100 0 0 -100 0 -100 200 0 200 0 0 100 0 100 200 0 200 0 0 -100 0
-100 -100 0 -100 0 0 -100 0 -100 -300 0 -300 0 0 -100 0 -100 300 0 300 0 0
100 0 100 100 0 100 0 0 100 0 100 100 0 100 0 0 -200 0 -200 200 0 200 0 0
100 0 100 -100 0 -100 0 0 100 0 100 300 0 300 0 0 -200 0 -200 -100 0 -100 0
0 -100 0 -100 100 0 100 0 0 100 0 100 100 0 100 0 0 -200 0 -200 -200 0 -200
0 0 -100 0 -100 100 0 100 0 0 -200 0 -200 -100 0 -100 0 0 -300 0 -300 200 0
200 0 0 100 0 100 -100 0 -100 0 0 100 0 100 300 0 300 0 0 100 0 100 200 0
200 0 0 100 0 100 100 0 100 0 0 -200 0 -200 100 0 100 0 0 -200 0 -200 200 0
200 0 0 100 0 100 300 0 300 0 0 -100 0 -100 100 0 100 0 0 100 0 100 -100 0
-100 0 0 100 0 100 100 0 100 0 0 100 0 100 100 0 100 0 0 -100 0 -100 200 0
200 0 0 100 0 100 -100 0 -100 0 0 300 0 300 100 0 100 0 0 200 0 200 -100 0
-100 0 0 100 0 100 -100 0 -100 0 0 -100 0 -100 100 0 100 0 0 -200 0 -200
-100 0 -100 0 0 -200 0 -200 -100 0 -100 0 0 -100 0 -100 -100 0 -100 0 0 600
0 600 100 0 100 0 0 100 0 100 100 0 100 0 0 100 0 100 100 0 100 0 0 -100 0
-100 100 0 100 0 0 300 0 300 -100 0 -100 0 0 -100 0 -100 -100 0 -100 0 0
-100 0 -100 -200 0 -200 0 0 -100 0 -100 -200 0 -200 0 0 100 0 100 100 0 100
0 0 100 0 100 -100 0 -100 0 0 100 0 100 100 0 100 0 0 100 0 100 -100 0 -100
0 0 100 0 100 100 0 100 0 0 100 0 100 100 0 100 0 0 -300 0 -300 100 0 100 0
0 100 0 100 100 0 100 0 0 100 0 100 100 0 100 0 0 -100 0 -100 100 0 100 0 0
300 0 300 -200 0 -200 0 0 -200 0 -200 -100 0 -100 0 0 100 0 100 -100 0 -100
0 0 100 0 100 -500 0 -500 0 0 100 0 100 100 0 100 0 0 200 0 200 -100 0 -100
0 0 -200 0 -200 -100 0 -100 0 0 300 0 300 -100 0 -100 0 0 100 0 100 300 0
300 0 0 200 0 200 -100 0 -100 0 0 -100 0 -100 -200 0 -200 0 0 200 0 200
-300 0 -300 0 0 -100 0 -100 -200 0 -200 0 0 100 0 100 -100 0 -100 0 0 -200z
m800 -100 l0 -100 -100 0 -100 0 0 100 0 100 100 0 100 0 0 -100z m200 -400
l0 -100 100 0 100 0 0 -100 0 -100 -100 0 -100 0 0 -100 0 -100 100 0 100 0 0
-100 0 -100 100 0 100 0 0 -100 0 -100 100 0 100 0 0 -100 0 -100 -100 0 -100
0 0 -100 0 -100 -100 0 -100 0 0 -200 0 -200 100 0 100 0 0 100 0 100 100 0
100 0 0 100 0 100 200 0 200 0 0 -100 0 -100 -200 0 -200 0 0 -100 0 -100 200
0 200 0 0 -100 0 -100 -200 0 -200 0 0 100 0 100 -100 0 -100 0 0 -300 0 -300
-100 0 -100 0 0 -100 0 -100 200 0 200 0 0 100 0 100 100 0 100 0 0 100 0 100
100 0 100 0 0 -100 0 -100 -100 0 -100 0 0 -100 0 -100 -100 0 -100 0 0 -100
0 -100 -100 0 -100 0 0 -100 0 -100 100 0 100 0 0 -100 0 -100 -200 0 -200 0
0 -200 0 -200 -200 0 -200 0 0 200 0 200 200 0 200 0 0 200 0 200 -100 0 -100
0 0 -100 0 -100 -200 0 -200 0 0 200 0 200 100 0 100 0 0 -100 0 -100 100 0
100 0 0 300 0 300 100 0 100 0 0 100 0 100 -100 0 -100 0 0 100 0 100 -200 0
-200 0 0 -100 0 -100 100 0 100 0 0 -200 0 -200 -100 0 -100 0 0 100 0 100
-100 0 -100 0 0 300 0 300 -100 0 -100 0 0 -100 0 -100 -300 0 -300 0 0 -100
0 -100 100 0 100 0 0 -100 0 -100 -100 0 -100 0 0 100 0 100 -100 0 -100 0 0
-100 0 -100 -100 0 -100 0 0 100 0 100 100 0 100 0 0 200 0 200 -100 0 -100 0
0 100 0 100 200 0 200 0 0 100 0 100 100 0 100 0 0 -100 0 -100 100 0 100 0 0
100 0 100 100 0 100 0 0 -100 0 -100 200 0 200 0 0 200 0 200 200 0 200 0 0
200 0 200 -100 0 -100 0 0 -100 0 -100 -100 0 -100 0 0 100 0 100 -100 0 -100
0 0 -200 0 -200 -100 0 -100 0 0 300 0 300 200 0 200 0 0 -100 0 -100 100 0
100 0 0 200 0 200 -100 0 -100 0 0 100 0 100 200 0 200 0 0 -100z m1400 -3000
l0 -300 -300 0 -300 0 0 300 0 300 300 0 300 0 0 -300z m-1800 -200 l0 -100
-100 0 -100 0 0 100 0 100 100 0 100 0 0 -100z m0 -400 l0 -100 -100 0 -100 0
0 100 0 100 100 0 100 0 0 -100z m1800 0 l0 -100 -100 0 -100 0 0 -100 0 -100
-100 0 -100 0 0 100 0 100 -200 0 -200 0 0 100 0 100 400 0 400 0 0 -100z"/>
<path d="M1800 3500 l0 -100 100 0 100 0 0 100 0 100 -100 0 -100 0 0 -100z"/>
<path d="M2800 3500 l0 -100 100 0 100 0 0 100 0 100 -100 0 -100 0 0 -100z"/>
<path d="M4200 1900 l0 -100 100 0 100 0 0 100 0 100 -100 0 -100 0 0 -100z"/>
<path d="M4200 4900 l0 -700 700 0 700 0 0 700 0 700 -700 0 -700 0 0 -700z
m1200 0 l0 -500 -500 0 -500 0 0 500 0 500 500 0 500 0 0 -500z"/>
<path d="M4600 4900 l0 -300 300 0 300 0 0 300 0 300 -300 0 -300 0 0 -300z"/>
<path d="M600 1300 l0 -700 700 0 700 0 0 700 0 700 -700 0 -700 0 0 -700z
m1200 0 l0 -500 -500 0 -500 0 0 500 0 500 500 0 500 0 0 -500z"/>
<path d="M1000 1300 l0 -300 300 0 300 0 0 300 0 300 -300 0 -300 0 0 -300z"/>
<path d="M2800 700 l0 -100 200 0 200 0 0 100 0 100 -200 0 -200 0 0 -100z"/>
<path d="M5400 700 l0 -100 100 0 100 0 0 100 0 100 -100 0 -100 0 0 -100z"/>
</g>
</svg>
