<svg xmlns="http://www.w3.org/2000/svg" viewBox="1750 -5300 7500 3500">
	<path d="m6883-3178-223-3v190m2498-357 2-192H8425 7690v195 195h255 255v660 660h225 225V-2490-3150l253-2 252-3ZM7305-3517c91 26 197 82 254 133 150 135 173 414 49 607-32 50-111 120-148 132-27 9-25 22 3 29 43 10 112 82 140 143 41 91 57 167 68 318 11 168 23 237 48 287l18 38H7514 7291l-15-53c-9-28-20-113-26-187-16-207-38-281-100-333-47-40-90-47-297-47H6660v310 310H6435 6210V-2685-3541l518 3c453 3 524 6 577 21ZM6160-3360v-180H5530 4900v855 855h225 225V-2160-2490h350 350l-2-173-3-172-347-3-348-2V-3010-3180h405 405Zm2310-1410-275-490H7973 7750v810 810h205 205l2-496 3-496 275 493 275 494 223 3 222 2V-4450-5260H8960c-110 0-201 1-202 2-1 2-5 222-8 490l-5 487Zm-760-310v-180H7015 6320v180 180h240 240v630 630h215 215V-4270-4900h240 240Zm-2418 367-3-547H5074 4859l4 562c4 624 4 627 73 776 41 89 131 187 212 230 227 120 617 120 845-1 120-63 214-191 259-354 21-75 22-99 26-646l3-567H6066 5850v525c0 341-4 542-11 575-14 68-62 129-124 160-42 21-64 25-140 25-110 0-169-20-219-75-61-67-60-62-64-663Zm-2899-475-6-72H2094 1801l4 27c3 16 12 80 20 143 49 377 171 630 416 865 153 148 338 256 565 330 60 20 116 39 124 43s-241 9-555 12l-570 5v290 290l563 3c309 1 562 6 562 10s-44 20-97 35c-123 35-292 116-408 199-174 123-363 336-451 510-43 84-93 217-119 312-27 101-60 328-51 351 5 13 49 15 290 15h286l4-23c2-12 9-59 15-105 36-283 206-514 479-651l62-31v400 400l293-2 292-3 3-393c1-271 6-392 13-392 26 0 147 70 217 125 182 144 294 345 324 580l12 95h290 289l-6-102c-17-309-132-587-348-843-173-206-443-374-722-450-37-10-67-22-67-26 0-5 257-9 570-9h570V-3545-3840l-572-2-573-3 120-39c535-172 865-537 990-1091 14-64 29-155 32-201l6-84-289 2-288 3-12 81c-38 272-179 494-403 639-55 36-132 75-147 75-2 0-4-180-4-400v-400H3235 2940v395c0 445 6 413-77 375-248-112-451-409-470-698ZM6660-2991v191h218c189 0 222-3 257-19 49-22 73-48 91-98 33-94 5-184-73-230l-48-28-222-3" fill="#000000"/>
</svg>