M48
; DRILL file {KiCad 9.0.4} date 2025-10-20T22:36:52-0300
; FORMAT={-:-/ absolute / metric / decimal}
; #@! TF.CreationDate,2025-10-20T22:36:52-03:00
; #@! TF.GenerationSoftware,Kicad,Pcbnew,9.0.4
; #@! TF.FileFunction,Plated,1,2,PTH
FMAT,2
METRIC
; #@! TA.AperFunction,Plated,PTH,ViaDrill
T1C0.400
; #@! TA.AperFunction,Plated,PTH,ComponentDrill
T2C0.650
; #@! TA.AperFunction,Plated,PTH,ComponentDrill
T3C1.000
%
G90
G05
T1
X127.5Y-136.5
X139.175Y-80.01
X140.208Y-100.33
X143.129Y-103.886
X143.256Y-121.793
X143.75Y-138.25
X145.542Y-116.347
X151.0Y-105.65
X151.0Y-109.7
X151.5Y-121.5
X152.0Y-105.15
X152.0Y-109.15
X152.0Y-110.35
X152.0Y-116.15
X152.0Y-117.65
X152.0Y-120.15
X152.0Y-124.5
X152.5Y-121.5
X153.0Y-104.65
X153.0Y-108.65
X153.0Y-110.85
X153.0Y-115.65
X153.0Y-117.0
X153.0Y-119.65
X153.5Y-121.5
X154.0Y-104.15
X154.0Y-108.15
X154.0Y-111.35
X154.0Y-115.15
X154.0Y-119.15
X154.0Y-124.5
X154.5Y-83.5
X154.5Y-121.5
X155.0Y-103.5
X155.0Y-107.65
X155.0Y-114.65
X155.0Y-118.5
X155.0Y-124.5
X155.357Y-92.801
X155.5Y-121.5
X155.5Y-138.25
X156.0Y-107.15
X156.0Y-114.15
X157.0Y-106.5
X157.0Y-113.65
X158.0Y-113.15
X159.0Y-112.65
X159.918Y-121.564
X160.0Y-112.0
X161.25Y-104.25
X161.5Y-118.5
X161.676Y-121.012
X162.5Y-104.25
X162.5Y-117.85
X162.509Y-121.717
X163.0Y-111.0
X163.0Y-124.5
X163.5Y-117.35
X163.5Y-121.65
X163.728Y-104.228
X164.0Y-110.35
X164.135Y-93.802
X164.5Y-116.85
X164.5Y-121.65
X164.541Y-124.714
X165.0Y-99.25
X165.0Y-104.25
X165.0Y-109.85
X165.5Y-116.35
X165.5Y-121.65
X165.588Y-106.279
X165.882Y-124.978
X166.0Y-109.35
X166.25Y-99.25
X166.5Y-115.85
X166.5Y-121.65
X166.624Y-119.761
X166.751Y-103.378
X166.777Y-124.892
X167.0Y-107.0
X167.0Y-108.85
X167.073Y-105.888
X167.25Y-99.25
X167.5Y-112.0
X167.5Y-113.5
X167.5Y-115.35
X167.5Y-121.65
X167.5Y-138.25
X167.663Y-124.732
X167.767Y-120.349
X167.874Y-106.299
X168.0Y-108.35
X168.5Y-112.0
X168.5Y-114.85
X168.5Y-121.65
X168.641Y-124.5
X168.735Y-103.85
X168.774Y-106.293
X169.0Y-99.25
X169.0Y-107.85
X169.037Y-120.142
X169.5Y-112.0
X169.609Y-103.35
X169.672Y-106.35
X170.053Y-90.78
X170.152Y-121.844
X170.434Y-99.822
X170.434Y-100.722
X170.561Y-93.853
X172.136Y-124.333
X172.339Y-107.696
X172.55Y-119.15
X172.728Y-120.65
X173.0Y-123.5
X173.5Y-119.85
X173.5Y-121.3
X174.6Y-115.449
X174.879Y-103.251
X175.5Y-86.0
X175.5Y-88.0
X176.022Y-93.853
X177.925Y-99.682
X178.054Y-100.573
X178.054Y-101.473
X178.435Y-129.271
X178.46Y-115.316
X178.942Y-101.621
X179.07Y-107.061
X179.324Y-128.676
X179.5Y-138.25
X179.934Y-89.408
X179.95Y-93.345
X181.575Y-89.408
X182.372Y-102.362
X182.626Y-99.65
X182.626Y-135.788
X183.642Y-99.811
X183.642Y-100.711
X186.182Y-101.346
X190.322Y-89.408
X191.033Y-92.964
X191.033Y-92.964
X191.5Y-138.25
X192.405Y-120.65
X192.5Y-85.598
X192.786Y-103.35
X193.305Y-120.65
X194.31Y-120.65
X194.716Y-131.352
X195.021Y-115.672
X195.326Y-101.092
X195.326Y-121.209
X195.616Y-131.352
X195.656Y-132.664
X196.5Y-85.598
X197.19Y-113.802
X197.231Y-93.599
X197.307Y-119.786
X198.374Y-133.452
X198.613Y-112.051
X198.628Y-88.265
X198.755Y-100.711
X198.755Y-103.251
X199.513Y-112.051
X199.72Y-121.056
X199.847Y-115.824
X200.312Y-95.088
X200.5Y-85.576
X200.514Y-112.051
X201.168Y-92.583
X201.397Y-130.759
X201.415Y-112.051
X202.438Y-101.508
X202.438Y-102.708
X202.946Y-135.28
X203.5Y-138.25
X204.5Y-85.576
X205.105Y-97.282
X205.283Y-132.243
X207.114Y-132.012
X207.391Y-95.377
X207.439Y-131.173
X207.75Y-136.25
X208.5Y-85.471
X208.597Y-130.746
X210.185Y-130.429
X212.5Y-85.576
X213.284Y-117.373
X214.25Y-136.25
X216.5Y-85.449
X220.5Y-85.449
T2
X178.585Y-80.065
X184.365Y-80.065
T3
X130.81Y-90.17
X130.81Y-92.71
X130.81Y-95.25
X130.81Y-97.79
X130.81Y-100.33
X130.81Y-102.87
X130.81Y-105.41
X130.81Y-107.95
X130.81Y-110.49
X130.81Y-113.03
X130.81Y-116.84
X130.81Y-119.38
X130.81Y-121.92
X130.81Y-124.46
X130.81Y-127.0
X130.81Y-129.54
X130.81Y-132.08
X130.81Y-134.62
X130.81Y-137.16
X130.81Y-139.7
X133.35Y-90.17
X133.35Y-92.71
X133.35Y-95.25
X133.35Y-97.79
X133.35Y-100.33
X133.35Y-102.87
X133.35Y-105.41
X133.35Y-107.95
X133.35Y-110.49
X133.35Y-113.03
X133.35Y-116.84
X133.35Y-119.38
X133.35Y-121.92
X133.35Y-124.46
X133.35Y-127.0
X133.35Y-129.54
X133.35Y-132.08
X133.35Y-134.62
X133.35Y-137.16
X133.35Y-139.7
X219.46Y-90.14
X219.46Y-92.68
X219.46Y-95.22
X219.46Y-97.76
X219.46Y-100.3
X219.46Y-102.84
X219.46Y-105.38
X219.46Y-107.92
X219.46Y-110.46
X219.46Y-113.0
X219.5Y-116.8
X219.5Y-119.34
X219.5Y-121.88
X219.5Y-124.42
X219.5Y-126.96
X219.5Y-129.5
X219.5Y-132.04
X219.5Y-134.58
X219.5Y-137.12
X219.5Y-139.66
X222.0Y-90.14
X222.0Y-92.68
X222.0Y-95.22
X222.0Y-97.76
X222.0Y-100.3
X222.0Y-102.84
X222.0Y-105.38
X222.0Y-107.92
X222.0Y-110.46
X222.0Y-113.0
X222.04Y-116.8
X222.04Y-119.34
X222.04Y-121.88
X222.04Y-124.42
X222.04Y-126.96
X222.04Y-129.5
X222.04Y-132.04
X222.04Y-134.58
X222.04Y-137.12
X222.04Y-139.66
M30
