%TF.GenerationSoftware,KiCad,Pcbnew,9.0.4*%
%TF.CreationDate,2025-10-20T22:36:39-03:00*%
%TF.ProjectId,fpga-utn,66706761-2d75-4746-9e2e-6b696361645f,rev?*%
%TF.SameCoordinates,Original*%
%TF.FileFunction,Soldermask,Top*%
%TF.FilePolarity,Negative*%
%FSLAX46Y46*%
G04 Gerber Fmt 4.6, Leading zero omitted, Abs format (unit mm)*
G04 Created by KiCad (PCBNEW 9.0.4) date 2025-10-20 22:36:39*
%MOMM*%
%LPD*%
G01*
G04 APERTURE LIST*
G04 Aperture macros list*
%AMRoundRect*
0 Rectangle with rounded corners*
0 $1 Rounding radius*
0 $2 $3 $4 $5 $6 $7 $8 $9 X,Y pos of 4 corners*
0 Add a 4 corners polygon primitive as box body*
4,1,4,$2,$3,$4,$5,$6,$7,$8,$9,$2,$3,0*
0 Add four circle primitives for the rounded corners*
1,1,$1+$1,$2,$3*
1,1,$1+$1,$4,$5*
1,1,$1+$1,$6,$7*
1,1,$1+$1,$8,$9*
0 Add four rect primitives between the rounded corners*
20,1,$1+$1,$2,$3,$4,$5,0*
20,1,$1+$1,$4,$5,$6,$7,0*
20,1,$1+$1,$6,$7,$8,$9,0*
20,1,$1+$1,$8,$9,$2,$3,0*%
G04 Aperture macros list end*
%ADD10RoundRect,0.150000X-0.825000X-0.150000X0.825000X-0.150000X0.825000X0.150000X-0.825000X0.150000X0*%
%ADD11RoundRect,0.250000X-0.312500X-0.625000X0.312500X-0.625000X0.312500X0.625000X-0.312500X0.625000X0*%
%ADD12RoundRect,0.250000X0.325000X0.650000X-0.325000X0.650000X-0.325000X-0.650000X0.325000X-0.650000X0*%
%ADD13RoundRect,0.250000X0.625000X-0.312500X0.625000X0.312500X-0.625000X0.312500X-0.625000X-0.312500X0*%
%ADD14RoundRect,0.250000X0.650000X-0.325000X0.650000X0.325000X-0.650000X0.325000X-0.650000X-0.325000X0*%
%ADD15RoundRect,0.250000X-0.650000X0.325000X-0.650000X-0.325000X0.650000X-0.325000X0.650000X0.325000X0*%
%ADD16RoundRect,0.102000X-1.050000X-0.700000X1.050000X-0.700000X1.050000X0.700000X-1.050000X0.700000X0*%
%ADD17RoundRect,0.075000X-0.700000X-0.075000X0.700000X-0.075000X0.700000X0.075000X-0.700000X0.075000X0*%
%ADD18RoundRect,0.075000X-0.075000X-0.700000X0.075000X-0.700000X0.075000X0.700000X-0.075000X0.700000X0*%
%ADD19RoundRect,0.250000X0.312500X0.625000X-0.312500X0.625000X-0.312500X-0.625000X0.312500X-0.625000X0*%
%ADD20R,1.700000X1.700000*%
%ADD21O,1.700000X1.700000*%
%ADD22RoundRect,0.250000X-0.325000X-0.650000X0.325000X-0.650000X0.325000X0.650000X-0.325000X0.650000X0*%
%ADD23RoundRect,0.250001X0.624999X-0.462499X0.624999X0.462499X-0.624999X0.462499X-0.624999X-0.462499X0*%
%ADD24RoundRect,0.150000X-0.150000X0.587500X-0.150000X-0.587500X0.150000X-0.587500X0.150000X0.587500X0*%
%ADD25RoundRect,0.250000X-0.625000X0.312500X-0.625000X-0.312500X0.625000X-0.312500X0.625000X0.312500X0*%
%ADD26R,2.300000X1.800000*%
%ADD27RoundRect,0.102000X-0.650000X-0.550000X0.650000X-0.550000X0.650000X0.550000X-0.650000X0.550000X0*%
%ADD28RoundRect,0.150000X-0.150000X0.512500X-0.150000X-0.512500X0.150000X-0.512500X0.150000X0.512500X0*%
%ADD29R,1.800000X2.300000*%
%ADD30RoundRect,0.250001X0.462499X0.624999X-0.462499X0.624999X-0.462499X-0.624999X0.462499X-0.624999X0*%
%ADD31RoundRect,0.250001X-0.462499X-0.624999X0.462499X-0.624999X0.462499X0.624999X-0.462499X0.624999X0*%
%ADD32RoundRect,0.102000X-0.550000X0.650000X-0.550000X-0.650000X0.550000X-0.650000X0.550000X0.650000X0*%
%ADD33R,0.600000X1.150000*%
%ADD34R,0.300000X1.150000*%
%ADD35C,0.325000*%
%ADD36R,1.500000X1.500000*%
%ADD37RoundRect,0.075000X-0.662500X-0.075000X0.662500X-0.075000X0.662500X0.075000X-0.662500X0.075000X0*%
%ADD38RoundRect,0.075000X-0.075000X-0.662500X0.075000X-0.662500X0.075000X0.662500X-0.075000X0.662500X0*%
%ADD39RoundRect,0.375000X-0.375000X0.625000X-0.375000X-0.625000X0.375000X-0.625000X0.375000X0.625000X0*%
%ADD40RoundRect,0.500000X-1.400000X0.500000X-1.400000X-0.500000X1.400000X-0.500000X1.400000X0.500000X0*%
%ADD41C,2.500000*%
G04 APERTURE END LIST*
D10*
%TO.C,U5*%
X191015000Y-103378000D03*
X191015000Y-104648000D03*
X191015000Y-105918000D03*
X191015000Y-107188000D03*
X195965000Y-107188000D03*
X195965000Y-105918000D03*
X195965000Y-104648000D03*
X195965000Y-103378000D03*
%TD*%
D11*
%TO.C,R11*%
X158811500Y-131532000D03*
X161736500Y-131532000D03*
%TD*%
D12*
%TO.C,C10*%
X187784000Y-125349000D03*
X184834000Y-125349000D03*
%TD*%
D13*
%TO.C,R6*%
X189738000Y-133288500D03*
X189738000Y-130363500D03*
%TD*%
D14*
%TO.C,C40*%
X209931000Y-136349000D03*
X209931000Y-133399000D03*
%TD*%
D13*
%TO.C,R25*%
X220500000Y-84178500D03*
X220500000Y-81253500D03*
%TD*%
D15*
%TO.C,C38*%
X189357000Y-138225000D03*
X189357000Y-141175000D03*
%TD*%
D13*
%TO.C,R21*%
X177500000Y-128012500D03*
X177500000Y-125087500D03*
%TD*%
D15*
%TO.C,C32*%
X151525000Y-126100000D03*
X151525000Y-129050000D03*
%TD*%
D16*
%TO.C,SW2*%
X141400000Y-143250000D03*
X141400000Y-147750000D03*
X150500000Y-143250000D03*
X150500000Y-147750000D03*
%TD*%
D17*
%TO.C,U4*%
X189778000Y-120329000D03*
X189778000Y-120829000D03*
X189778000Y-121329000D03*
X189778000Y-121829000D03*
X189778000Y-122329000D03*
X189778000Y-122829000D03*
X189778000Y-123329000D03*
X189778000Y-123829000D03*
X189778000Y-124329000D03*
X189778000Y-124829000D03*
X189778000Y-125329000D03*
X189778000Y-125829000D03*
X189778000Y-126329000D03*
X189778000Y-126829000D03*
X189778000Y-127329000D03*
X189778000Y-127829000D03*
D18*
X191703000Y-129754000D03*
X192203000Y-129754000D03*
X192703000Y-129754000D03*
X193203000Y-129754000D03*
X193703000Y-129754000D03*
X194203000Y-129754000D03*
X194703000Y-129754000D03*
X195203000Y-129754000D03*
X195703000Y-129754000D03*
X196203000Y-129754000D03*
X196703000Y-129754000D03*
X197203000Y-129754000D03*
X197703000Y-129754000D03*
X198203000Y-129754000D03*
X198703000Y-129754000D03*
X199203000Y-129754000D03*
D17*
X201128000Y-127829000D03*
X201128000Y-127329000D03*
X201128000Y-126829000D03*
X201128000Y-126329000D03*
X201128000Y-125829000D03*
X201128000Y-125329000D03*
X201128000Y-124829000D03*
X201128000Y-124329000D03*
X201128000Y-123829000D03*
X201128000Y-123329000D03*
X201128000Y-122829000D03*
X201128000Y-122329000D03*
X201128000Y-121829000D03*
X201128000Y-121329000D03*
X201128000Y-120829000D03*
X201128000Y-120329000D03*
D18*
X199203000Y-118404000D03*
X198703000Y-118404000D03*
X198203000Y-118404000D03*
X197703000Y-118404000D03*
X197203000Y-118404000D03*
X196703000Y-118404000D03*
X196203000Y-118404000D03*
X195703000Y-118404000D03*
X195203000Y-118404000D03*
X194703000Y-118404000D03*
X194203000Y-118404000D03*
X193703000Y-118404000D03*
X193203000Y-118404000D03*
X192703000Y-118404000D03*
X192203000Y-118404000D03*
X191703000Y-118404000D03*
%TD*%
D19*
%TO.C,R9*%
X168425000Y-96337500D03*
X165500000Y-96337500D03*
%TD*%
D15*
%TO.C,C51*%
X164525000Y-126050000D03*
X164525000Y-129000000D03*
%TD*%
D12*
%TO.C,C23*%
X194847000Y-97917000D03*
X191897000Y-97917000D03*
%TD*%
D20*
%TO.C,P3*%
X219500000Y-139660000D03*
D21*
X222040000Y-139660000D03*
X219500000Y-137120000D03*
X222040000Y-137120000D03*
X219500000Y-134580000D03*
X222040000Y-134580000D03*
X219500000Y-132040000D03*
X222040000Y-132040000D03*
X219500000Y-129500000D03*
X222040000Y-129500000D03*
X219500000Y-126960000D03*
X222040000Y-126960000D03*
X219500000Y-124420000D03*
X222040000Y-124420000D03*
X219500000Y-121880000D03*
X222040000Y-121880000D03*
X219500000Y-119340000D03*
X222040000Y-119340000D03*
X219500000Y-116800000D03*
X222040000Y-116800000D03*
%TD*%
D15*
%TO.C,C3*%
X165500000Y-80025000D03*
X165500000Y-82975000D03*
%TD*%
D11*
%TO.C,R2*%
X165037500Y-77500000D03*
X167962500Y-77500000D03*
%TD*%
D22*
%TO.C,C27*%
X197153000Y-100711000D03*
X200103000Y-100711000D03*
%TD*%
D15*
%TO.C,C14*%
X198120000Y-132002000D03*
X198120000Y-134952000D03*
%TD*%
D23*
%TO.C,FB3*%
X134537500Y-85485000D03*
X134537500Y-82510000D03*
%TD*%
D24*
%TO.C,D1*%
X173450000Y-85062500D03*
X171550000Y-85062500D03*
X172500000Y-86937500D03*
%TD*%
D16*
%TO.C,SW4*%
X165450000Y-143250000D03*
X165450000Y-147750000D03*
X174550000Y-143250000D03*
X174550000Y-147750000D03*
%TD*%
D12*
%TO.C,C53*%
X146950000Y-106337500D03*
X144000000Y-106337500D03*
%TD*%
D25*
%TO.C,R5*%
X190093600Y-114361500D03*
X190093600Y-117286500D03*
%TD*%
D15*
%TO.C,C37*%
X177292000Y-138225000D03*
X177292000Y-141175000D03*
%TD*%
D25*
%TO.C,R23*%
X209931000Y-88199500D03*
X209931000Y-91124500D03*
%TD*%
D26*
%TO.C,D12*%
X192500000Y-75766000D03*
X192500000Y-78666000D03*
%TD*%
D22*
%TO.C,C5*%
X150025000Y-80525000D03*
X152975000Y-80525000D03*
%TD*%
D16*
%TO.C,SW3*%
X153450000Y-143250000D03*
X153450000Y-147750000D03*
X162550000Y-143250000D03*
X162550000Y-147750000D03*
%TD*%
D13*
%TO.C,R44*%
X174752000Y-141162500D03*
X174752000Y-138237500D03*
%TD*%
D12*
%TO.C,C8*%
X187530000Y-121793000D03*
X184580000Y-121793000D03*
%TD*%
D26*
%TO.C,D6*%
X216500000Y-75766000D03*
X216500000Y-78666000D03*
%TD*%
D23*
%TO.C,FB2*%
X150525000Y-86012500D03*
X150525000Y-83037500D03*
%TD*%
D11*
%TO.C,R10*%
X191770000Y-112141000D03*
X194695000Y-112141000D03*
%TD*%
D27*
%TO.C,Y2*%
X154375000Y-128000000D03*
X156675000Y-128000000D03*
X156675000Y-126100000D03*
X154375000Y-126100000D03*
%TD*%
D28*
%TO.C,U3*%
X182450000Y-83862500D03*
X181500000Y-83862500D03*
X180550000Y-83862500D03*
X180550000Y-86137500D03*
X181500000Y-86137500D03*
X182450000Y-86137500D03*
%TD*%
D15*
%TO.C,C13*%
X193319400Y-131875000D03*
X193319400Y-134825000D03*
%TD*%
D25*
%TO.C,R20*%
X207391000Y-93595000D03*
X207391000Y-96520000D03*
%TD*%
%TO.C,R37*%
X184150000Y-138237500D03*
X184150000Y-141162500D03*
%TD*%
D22*
%TO.C,C29*%
X175050000Y-117500000D03*
X178000000Y-117500000D03*
%TD*%
D12*
%TO.C,C54*%
X146950000Y-118837500D03*
X144000000Y-118837500D03*
%TD*%
D15*
%TO.C,C2*%
X168000000Y-80025000D03*
X168000000Y-82975000D03*
%TD*%
D22*
%TO.C,C12*%
X203376000Y-118491000D03*
X206326000Y-118491000D03*
%TD*%
D14*
%TO.C,C43*%
X148500000Y-99312500D03*
X148500000Y-96362500D03*
%TD*%
D15*
%TO.C,C35*%
X153289000Y-138225000D03*
X153289000Y-141175000D03*
%TD*%
D29*
%TO.C,D2*%
X172950000Y-77000000D03*
X170050000Y-77000000D03*
%TD*%
D14*
%TO.C,C4*%
X153025000Y-86000000D03*
X153025000Y-83050000D03*
%TD*%
D12*
%TO.C,C18*%
X187784000Y-130302000D03*
X184834000Y-130302000D03*
%TD*%
D22*
%TO.C,C26*%
X197153000Y-98171000D03*
X200103000Y-98171000D03*
%TD*%
%TO.C,C16*%
X198423000Y-115824000D03*
X201373000Y-115824000D03*
%TD*%
D30*
%TO.C,D3*%
X176512500Y-103500000D03*
X173537500Y-103500000D03*
%TD*%
D12*
%TO.C,C24*%
X161761500Y-126532000D03*
X158811500Y-126532000D03*
%TD*%
D16*
%TO.C,SW6*%
X189450000Y-143250000D03*
X189450000Y-147750000D03*
X198550000Y-143250000D03*
X198550000Y-147750000D03*
%TD*%
D13*
%TO.C,R32*%
X192500000Y-84178500D03*
X192500000Y-81253500D03*
%TD*%
D11*
%TO.C,R19*%
X192528000Y-89408000D03*
X195453000Y-89408000D03*
%TD*%
D25*
%TO.C,R8*%
X189484000Y-98232500D03*
X189484000Y-101157500D03*
%TD*%
D22*
%TO.C,C21*%
X160500000Y-98837500D03*
X163450000Y-98837500D03*
%TD*%
D14*
%TO.C,C17*%
X153500000Y-99287500D03*
X153500000Y-96337500D03*
%TD*%
D25*
%TO.C,R38*%
X196215000Y-138237500D03*
X196215000Y-141162500D03*
%TD*%
D26*
%TO.C,D4*%
X174500000Y-128037500D03*
X174500000Y-125137500D03*
%TD*%
D31*
%TO.C,FB5*%
X184531000Y-132588000D03*
X187506000Y-132588000D03*
%TD*%
D12*
%TO.C,C31*%
X146975000Y-116337500D03*
X144025000Y-116337500D03*
%TD*%
D25*
%TO.C,R36*%
X172212000Y-138237500D03*
X172212000Y-141162500D03*
%TD*%
D32*
%TO.C,Y1*%
X155600000Y-96350000D03*
X155600000Y-98650000D03*
X157500000Y-98650000D03*
X157500000Y-96350000D03*
%TD*%
D22*
%TO.C,C42*%
X154050000Y-130050000D03*
X157000000Y-130050000D03*
%TD*%
D33*
%TO.C,J1*%
X184675000Y-81140000D03*
X183875000Y-81140000D03*
D34*
X182725000Y-81140000D03*
X181725000Y-81140000D03*
X181225000Y-81140000D03*
X180225000Y-81140000D03*
D33*
X179075000Y-81140000D03*
X178275000Y-81140000D03*
X178275000Y-81140000D03*
X179075000Y-81140000D03*
D34*
X179725000Y-81140000D03*
X180725000Y-81140000D03*
X182225000Y-81140000D03*
X183225000Y-81140000D03*
D33*
X183875000Y-81140000D03*
X184675000Y-81140000D03*
D35*
X184365000Y-80065000D03*
X178585000Y-80065000D03*
D36*
X186595000Y-80565000D03*
X186595000Y-76635000D03*
X176355000Y-80565000D03*
X176355000Y-76635000D03*
%TD*%
D22*
%TO.C,C48*%
X173550000Y-106587500D03*
X176500000Y-106587500D03*
%TD*%
D31*
%TO.C,FB4*%
X184567500Y-116713000D03*
X187542500Y-116713000D03*
%TD*%
D26*
%TO.C,D10*%
X200500000Y-75766000D03*
X200500000Y-78666000D03*
%TD*%
D13*
%TO.C,R30*%
X200500000Y-84178500D03*
X200500000Y-81253500D03*
%TD*%
D25*
%TO.C,R39*%
X207518000Y-138237500D03*
X207518000Y-141162500D03*
%TD*%
D11*
%TO.C,R15*%
X202372500Y-92964000D03*
X205297500Y-92964000D03*
%TD*%
D20*
%TO.C,P1*%
X133350000Y-90170000D03*
D21*
X130810000Y-90170000D03*
X133350000Y-92710000D03*
X130810000Y-92710000D03*
X133350000Y-95250000D03*
X130810000Y-95250000D03*
X133350000Y-97790000D03*
X130810000Y-97790000D03*
X133350000Y-100330000D03*
X130810000Y-100330000D03*
X133350000Y-102870000D03*
X130810000Y-102870000D03*
X133350000Y-105410000D03*
X130810000Y-105410000D03*
X133350000Y-107950000D03*
X130810000Y-107950000D03*
X133350000Y-110490000D03*
X130810000Y-110490000D03*
X133350000Y-113030000D03*
X130810000Y-113030000D03*
%TD*%
D13*
%TO.C,R41*%
X139065000Y-141162500D03*
X139065000Y-138237500D03*
%TD*%
D12*
%TO.C,C52*%
X146950000Y-108837500D03*
X144000000Y-108837500D03*
%TD*%
%TO.C,C11*%
X186768000Y-127889000D03*
X183818000Y-127889000D03*
%TD*%
D13*
%TO.C,R46*%
X198755000Y-141162500D03*
X198755000Y-138237500D03*
%TD*%
D10*
%TO.C,U7*%
X193932000Y-91948000D03*
X193932000Y-93218000D03*
X193932000Y-94488000D03*
X193932000Y-95758000D03*
X198882000Y-95758000D03*
X198882000Y-94488000D03*
X198882000Y-93218000D03*
X198882000Y-91948000D03*
%TD*%
D11*
%TO.C,R1*%
X185000000Y-84000000D03*
X187925000Y-84000000D03*
%TD*%
D26*
%TO.C,D7*%
X212500000Y-75766000D03*
X212500000Y-78666000D03*
%TD*%
D15*
%TO.C,C49*%
X167025000Y-126050000D03*
X167025000Y-129000000D03*
%TD*%
D13*
%TO.C,R28*%
X208500000Y-84178500D03*
X208500000Y-81253500D03*
%TD*%
%TO.C,R47*%
X209931000Y-141162500D03*
X209931000Y-138237500D03*
%TD*%
D25*
%TO.C,R35*%
X160274000Y-138237500D03*
X160274000Y-141162500D03*
%TD*%
D13*
%TO.C,R29*%
X204500000Y-84178500D03*
X204500000Y-81253500D03*
%TD*%
D12*
%TO.C,C30*%
X168450000Y-93837500D03*
X165500000Y-93837500D03*
%TD*%
D13*
%TO.C,R48*%
X216408000Y-141162500D03*
X216408000Y-138237500D03*
%TD*%
D11*
%TO.C,R16*%
X188591000Y-94488000D03*
X191516000Y-94488000D03*
%TD*%
D15*
%TO.C,C34*%
X141605000Y-138225000D03*
X141605000Y-141175000D03*
%TD*%
D25*
%TO.C,R22*%
X207518000Y-88261000D03*
X207518000Y-91186000D03*
%TD*%
D26*
%TO.C,D9*%
X204500000Y-75766000D03*
X204500000Y-78666000D03*
%TD*%
D25*
%TO.C,R33*%
X136525000Y-138237500D03*
X136525000Y-141162500D03*
%TD*%
D13*
%TO.C,R43*%
X162814000Y-141162500D03*
X162814000Y-138237500D03*
%TD*%
D16*
%TO.C,SW5*%
X177450000Y-143250000D03*
X177450000Y-147750000D03*
X186550000Y-143250000D03*
X186550000Y-147750000D03*
%TD*%
D22*
%TO.C,C22*%
X160500000Y-96337500D03*
X163450000Y-96337500D03*
%TD*%
D14*
%TO.C,C7*%
X138037500Y-85485000D03*
X138037500Y-82535000D03*
%TD*%
D37*
%TO.C,U6*%
X149587500Y-103500000D03*
X149587500Y-104000000D03*
X149587500Y-104500000D03*
X149587500Y-105000000D03*
X149587500Y-105500000D03*
X149587500Y-106000000D03*
X149587500Y-106500000D03*
X149587500Y-107000000D03*
X149587500Y-107500000D03*
X149587500Y-108000000D03*
X149587500Y-108500000D03*
X149587500Y-109000000D03*
X149587500Y-109500000D03*
X149587500Y-110000000D03*
X149587500Y-110500000D03*
X149587500Y-111000000D03*
X149587500Y-111500000D03*
X149587500Y-112000000D03*
X149587500Y-112500000D03*
X149587500Y-113000000D03*
X149587500Y-113500000D03*
X149587500Y-114000000D03*
X149587500Y-114500000D03*
X149587500Y-115000000D03*
X149587500Y-115500000D03*
X149587500Y-116000000D03*
X149587500Y-116500000D03*
X149587500Y-117000000D03*
X149587500Y-117500000D03*
X149587500Y-118000000D03*
X149587500Y-118500000D03*
X149587500Y-119000000D03*
X149587500Y-119500000D03*
X149587500Y-120000000D03*
X149587500Y-120500000D03*
X149587500Y-121000000D03*
D38*
X151500000Y-122912500D03*
X152000000Y-122912500D03*
X152500000Y-122912500D03*
X153000000Y-122912500D03*
X153500000Y-122912500D03*
X154000000Y-122912500D03*
X154500000Y-122912500D03*
X155000000Y-122912500D03*
X155500000Y-122912500D03*
X156000000Y-122912500D03*
X156500000Y-122912500D03*
X157000000Y-122912500D03*
X157500000Y-122912500D03*
X158000000Y-122912500D03*
X158500000Y-122912500D03*
X159000000Y-122912500D03*
X159500000Y-122912500D03*
X160000000Y-122912500D03*
X160500000Y-122912500D03*
X161000000Y-122912500D03*
X161500000Y-122912500D03*
X162000000Y-122912500D03*
X162500000Y-122912500D03*
X163000000Y-122912500D03*
X163500000Y-122912500D03*
X164000000Y-122912500D03*
X164500000Y-122912500D03*
X165000000Y-122912500D03*
X165500000Y-122912500D03*
X166000000Y-122912500D03*
X166500000Y-122912500D03*
X167000000Y-122912500D03*
X167500000Y-122912500D03*
X168000000Y-122912500D03*
X168500000Y-122912500D03*
X169000000Y-122912500D03*
D37*
X170912500Y-121000000D03*
X170912500Y-120500000D03*
X170912500Y-120000000D03*
X170912500Y-119500000D03*
X170912500Y-119000000D03*
X170912500Y-118500000D03*
X170912500Y-118000000D03*
X170912500Y-117500000D03*
X170912500Y-117000000D03*
X170912500Y-116500000D03*
X170912500Y-116000000D03*
X170912500Y-115500000D03*
X170912500Y-115000000D03*
X170912500Y-114500000D03*
X170912500Y-114000000D03*
X170912500Y-113500000D03*
X170912500Y-113000000D03*
X170912500Y-112500000D03*
X170912500Y-112000000D03*
X170912500Y-111500000D03*
X170912500Y-111000000D03*
X170912500Y-110500000D03*
X170912500Y-110000000D03*
X170912500Y-109500000D03*
X170912500Y-109000000D03*
X170912500Y-108500000D03*
X170912500Y-108000000D03*
X170912500Y-107500000D03*
X170912500Y-107000000D03*
X170912500Y-106500000D03*
X170912500Y-106000000D03*
X170912500Y-105500000D03*
X170912500Y-105000000D03*
X170912500Y-104500000D03*
X170912500Y-104000000D03*
X170912500Y-103500000D03*
D38*
X169000000Y-101587500D03*
X168500000Y-101587500D03*
X168000000Y-101587500D03*
X167500000Y-101587500D03*
X167000000Y-101587500D03*
X166500000Y-101587500D03*
X166000000Y-101587500D03*
X165500000Y-101587500D03*
X165000000Y-101587500D03*
X164500000Y-101587500D03*
X164000000Y-101587500D03*
X163500000Y-101587500D03*
X163000000Y-101587500D03*
X162500000Y-101587500D03*
X162000000Y-101587500D03*
X161500000Y-101587500D03*
X161000000Y-101587500D03*
X160500000Y-101587500D03*
X160000000Y-101587500D03*
X159500000Y-101587500D03*
X159000000Y-101587500D03*
X158500000Y-101587500D03*
X158000000Y-101587500D03*
X157500000Y-101587500D03*
X157000000Y-101587500D03*
X156500000Y-101587500D03*
X156000000Y-101587500D03*
X155500000Y-101587500D03*
X155000000Y-101587500D03*
X154500000Y-101587500D03*
X154000000Y-101587500D03*
X153500000Y-101587500D03*
X153000000Y-101587500D03*
X152500000Y-101587500D03*
X152000000Y-101587500D03*
X151500000Y-101587500D03*
%TD*%
D19*
%TO.C,R12*%
X194633500Y-109347000D03*
X191708500Y-109347000D03*
%TD*%
D11*
%TO.C,R18*%
X188210000Y-91440000D03*
X191135000Y-91440000D03*
%TD*%
D12*
%TO.C,C25*%
X161761500Y-129032000D03*
X158811500Y-129032000D03*
%TD*%
D20*
%TO.C,P4*%
X219460000Y-113000000D03*
D21*
X222000000Y-113000000D03*
X219460000Y-110460000D03*
X222000000Y-110460000D03*
X219460000Y-107920000D03*
X222000000Y-107920000D03*
X219460000Y-105380000D03*
X222000000Y-105380000D03*
X219460000Y-102840000D03*
X222000000Y-102840000D03*
X219460000Y-100300000D03*
X222000000Y-100300000D03*
X219460000Y-97760000D03*
X222000000Y-97760000D03*
X219460000Y-95220000D03*
X222000000Y-95220000D03*
X219460000Y-92680000D03*
X222000000Y-92680000D03*
X219460000Y-90140000D03*
X222000000Y-90140000D03*
%TD*%
D19*
%TO.C,R3*%
X178462500Y-84000000D03*
X175537500Y-84000000D03*
%TD*%
D13*
%TO.C,R45*%
X186690000Y-141162500D03*
X186690000Y-138237500D03*
%TD*%
D14*
%TO.C,C44*%
X151000000Y-99312500D03*
X151000000Y-96362500D03*
%TD*%
D22*
%TO.C,C46*%
X173550000Y-109087500D03*
X176500000Y-109087500D03*
%TD*%
D16*
%TO.C,SW1*%
X129400000Y-143250000D03*
X129400000Y-147750000D03*
X138500000Y-143250000D03*
X138500000Y-147750000D03*
%TD*%
D39*
%TO.C,U2*%
X146300000Y-79525000D03*
X144000000Y-79525000D03*
D40*
X144000000Y-85825000D03*
D39*
X141700000Y-79525000D03*
%TD*%
D22*
%TO.C,C47*%
X173550000Y-114087500D03*
X176500000Y-114087500D03*
%TD*%
D15*
%TO.C,C50*%
X170500000Y-125050000D03*
X170500000Y-128000000D03*
%TD*%
D14*
%TO.C,C1*%
X173000000Y-82975000D03*
X173000000Y-80025000D03*
%TD*%
D22*
%TO.C,C15*%
X204265000Y-122326400D03*
X207215000Y-122326400D03*
%TD*%
D11*
%TO.C,R14*%
X178521900Y-131165600D03*
X181446900Y-131165600D03*
%TD*%
D41*
%TO.C,TP2*%
X208915000Y-115443000D03*
%TD*%
D22*
%TO.C,C19*%
X203983800Y-126238000D03*
X206933800Y-126238000D03*
%TD*%
D19*
%TO.C,R24*%
X177987500Y-122587500D03*
X175062500Y-122587500D03*
%TD*%
D26*
%TO.C,D5*%
X220500000Y-75766000D03*
X220500000Y-78666000D03*
%TD*%
D12*
%TO.C,C20*%
X196547000Y-115824000D03*
X193597000Y-115824000D03*
%TD*%
D11*
%TO.C,R13*%
X202565000Y-90043000D03*
X205490000Y-90043000D03*
%TD*%
D15*
%TO.C,C36*%
X165354000Y-138225000D03*
X165354000Y-141175000D03*
%TD*%
D26*
%TO.C,D11*%
X196500000Y-75766000D03*
X196500000Y-78666000D03*
%TD*%
D15*
%TO.C,C39*%
X201295000Y-138225000D03*
X201295000Y-141175000D03*
%TD*%
D23*
%TO.C,FB1*%
X170500000Y-82987500D03*
X170500000Y-80012500D03*
%TD*%
D13*
%TO.C,R42*%
X150749000Y-141162500D03*
X150749000Y-138237500D03*
%TD*%
%TO.C,R31*%
X196500000Y-84178500D03*
X196500000Y-81253500D03*
%TD*%
D25*
%TO.C,R40*%
X213741000Y-138237500D03*
X213741000Y-141162500D03*
%TD*%
D13*
%TO.C,R27*%
X212500000Y-84178500D03*
X212500000Y-81253500D03*
%TD*%
D16*
%TO.C,SW7*%
X201450000Y-143250000D03*
X201450000Y-147750000D03*
X210550000Y-143250000D03*
X210550000Y-147750000D03*
%TD*%
D26*
%TO.C,D8*%
X208500000Y-75766000D03*
X208500000Y-78666000D03*
%TD*%
D11*
%TO.C,R7*%
X184973500Y-103378000D03*
X187898500Y-103378000D03*
%TD*%
D13*
%TO.C,R26*%
X216500000Y-84178500D03*
X216500000Y-81253500D03*
%TD*%
D22*
%TO.C,C33*%
X173550000Y-111587500D03*
X176500000Y-111587500D03*
%TD*%
%TO.C,C28*%
X175025000Y-120000000D03*
X177975000Y-120000000D03*
%TD*%
D14*
%TO.C,C41*%
X216408000Y-136349000D03*
X216408000Y-133399000D03*
%TD*%
D16*
%TO.C,SW8*%
X213450000Y-143250000D03*
X213450000Y-147750000D03*
X222550000Y-143250000D03*
X222550000Y-147750000D03*
%TD*%
D25*
%TO.C,R34*%
X148209000Y-138237500D03*
X148209000Y-141162500D03*
%TD*%
D39*
%TO.C,U1*%
X161300000Y-77350000D03*
X159000000Y-77350000D03*
D40*
X159000000Y-83650000D03*
D39*
X156700000Y-77350000D03*
%TD*%
D22*
%TO.C,C45*%
X165504600Y-90779600D03*
X168454600Y-90779600D03*
%TD*%
D20*
%TO.C,P2*%
X133350000Y-116840000D03*
D21*
X130810000Y-116840000D03*
X133350000Y-119380000D03*
X130810000Y-119380000D03*
X133350000Y-121920000D03*
X130810000Y-121920000D03*
X133350000Y-124460000D03*
X130810000Y-124460000D03*
X133350000Y-127000000D03*
X130810000Y-127000000D03*
X133350000Y-129540000D03*
X130810000Y-129540000D03*
X133350000Y-132080000D03*
X130810000Y-132080000D03*
X133350000Y-134620000D03*
X130810000Y-134620000D03*
X133350000Y-137160000D03*
X130810000Y-137160000D03*
X133350000Y-139700000D03*
X130810000Y-139700000D03*
%TD*%
D11*
%TO.C,R4*%
X135075000Y-80010000D03*
X138000000Y-80010000D03*
%TD*%
%TO.C,R17*%
X202118500Y-95885000D03*
X205043500Y-95885000D03*
%TD*%
D12*
%TO.C,C9*%
X187530000Y-119253000D03*
X184580000Y-119253000D03*
%TD*%
D22*
%TO.C,C6*%
X150025000Y-78025000D03*
X152975000Y-78025000D03*
%TD*%
M02*
