%TF.GenerationSoftware,KiCad,Pcbnew,9.0.4*%
%TF.CreationDate,2025-10-20T22:36:38-03:00*%
%TF.ProjectId,fpga-utn,66706761-2d75-4746-9e2e-6b696361645f,rev?*%
%TF.SameCoordinates,Original*%
%TF.FileFunction,Copper,L1,Top*%
%TF.FilePolarity,Positive*%
%FSLAX46Y46*%
G04 Gerber Fmt 4.6, Leading zero omitted, Abs format (unit mm)*
G04 Created by KiCad (PCBNEW 9.0.4) date 2025-10-20 22:36:38*
%MOMM*%
%LPD*%
G01*
G04 APERTURE LIST*
G04 Aperture macros list*
%AMRoundRect*
0 Rectangle with rounded corners*
0 $1 Rounding radius*
0 $2 $3 $4 $5 $6 $7 $8 $9 X,Y pos of 4 corners*
0 Add a 4 corners polygon primitive as box body*
4,1,4,$2,$3,$4,$5,$6,$7,$8,$9,$2,$3,0*
0 Add four circle primitives for the rounded corners*
1,1,$1+$1,$2,$3*
1,1,$1+$1,$4,$5*
1,1,$1+$1,$6,$7*
1,1,$1+$1,$8,$9*
0 Add four rect primitives between the rounded corners*
20,1,$1+$1,$2,$3,$4,$5,0*
20,1,$1+$1,$4,$5,$6,$7,0*
20,1,$1+$1,$6,$7,$8,$9,0*
20,1,$1+$1,$8,$9,$2,$3,0*%
G04 Aperture macros list end*
%TA.AperFunction,SMDPad,CuDef*%
%ADD10RoundRect,0.150000X-0.825000X-0.150000X0.825000X-0.150000X0.825000X0.150000X-0.825000X0.150000X0*%
%TD*%
%TA.AperFunction,SMDPad,CuDef*%
%ADD11RoundRect,0.250000X-0.312500X-0.625000X0.312500X-0.625000X0.312500X0.625000X-0.312500X0.625000X0*%
%TD*%
%TA.AperFunction,SMDPad,CuDef*%
%ADD12RoundRect,0.250000X0.325000X0.650000X-0.325000X0.650000X-0.325000X-0.650000X0.325000X-0.650000X0*%
%TD*%
%TA.AperFunction,SMDPad,CuDef*%
%ADD13RoundRect,0.250000X0.625000X-0.312500X0.625000X0.312500X-0.625000X0.312500X-0.625000X-0.312500X0*%
%TD*%
%TA.AperFunction,SMDPad,CuDef*%
%ADD14RoundRect,0.250000X0.650000X-0.325000X0.650000X0.325000X-0.650000X0.325000X-0.650000X-0.325000X0*%
%TD*%
%TA.AperFunction,SMDPad,CuDef*%
%ADD15RoundRect,0.250000X-0.650000X0.325000X-0.650000X-0.325000X0.650000X-0.325000X0.650000X0.325000X0*%
%TD*%
%TA.AperFunction,SMDPad,CuDef*%
%ADD16R,2.100000X1.400000*%
%TD*%
%TA.AperFunction,SMDPad,CuDef*%
%ADD17RoundRect,0.075000X-0.700000X-0.075000X0.700000X-0.075000X0.700000X0.075000X-0.700000X0.075000X0*%
%TD*%
%TA.AperFunction,SMDPad,CuDef*%
%ADD18RoundRect,0.075000X-0.075000X-0.700000X0.075000X-0.700000X0.075000X0.700000X-0.075000X0.700000X0*%
%TD*%
%TA.AperFunction,SMDPad,CuDef*%
%ADD19RoundRect,0.250000X0.312500X0.625000X-0.312500X0.625000X-0.312500X-0.625000X0.312500X-0.625000X0*%
%TD*%
%TA.AperFunction,ComponentPad*%
%ADD20R,1.700000X1.700000*%
%TD*%
%TA.AperFunction,ComponentPad*%
%ADD21O,1.700000X1.700000*%
%TD*%
%TA.AperFunction,SMDPad,CuDef*%
%ADD22RoundRect,0.250000X-0.325000X-0.650000X0.325000X-0.650000X0.325000X0.650000X-0.325000X0.650000X0*%
%TD*%
%TA.AperFunction,SMDPad,CuDef*%
%ADD23RoundRect,0.250001X0.624999X-0.462499X0.624999X0.462499X-0.624999X0.462499X-0.624999X-0.462499X0*%
%TD*%
%TA.AperFunction,SMDPad,CuDef*%
%ADD24RoundRect,0.150000X-0.150000X0.587500X-0.150000X-0.587500X0.150000X-0.587500X0.150000X0.587500X0*%
%TD*%
%TA.AperFunction,SMDPad,CuDef*%
%ADD25RoundRect,0.250000X-0.625000X0.312500X-0.625000X-0.312500X0.625000X-0.312500X0.625000X0.312500X0*%
%TD*%
%TA.AperFunction,SMDPad,CuDef*%
%ADD26R,2.300000X1.800000*%
%TD*%
%TA.AperFunction,SMDPad,CuDef*%
%ADD27R,1.300000X1.100000*%
%TD*%
%TA.AperFunction,SMDPad,CuDef*%
%ADD28RoundRect,0.150000X-0.150000X0.512500X-0.150000X-0.512500X0.150000X-0.512500X0.150000X0.512500X0*%
%TD*%
%TA.AperFunction,SMDPad,CuDef*%
%ADD29R,1.800000X2.300000*%
%TD*%
%TA.AperFunction,SMDPad,CuDef*%
%ADD30RoundRect,0.250001X0.462499X0.624999X-0.462499X0.624999X-0.462499X-0.624999X0.462499X-0.624999X0*%
%TD*%
%TA.AperFunction,SMDPad,CuDef*%
%ADD31RoundRect,0.250001X-0.462499X-0.624999X0.462499X-0.624999X0.462499X0.624999X-0.462499X0.624999X0*%
%TD*%
%TA.AperFunction,SMDPad,CuDef*%
%ADD32R,1.100000X1.300000*%
%TD*%
%TA.AperFunction,SMDPad,CuDef*%
%ADD33R,0.600000X1.150000*%
%TD*%
%TA.AperFunction,SMDPad,CuDef*%
%ADD34R,0.300000X1.150000*%
%TD*%
%TA.AperFunction,ComponentPad*%
%ADD35C,0.325000*%
%TD*%
%TA.AperFunction,SMDPad,CuDef*%
%ADD36R,1.500000X1.500000*%
%TD*%
%TA.AperFunction,SMDPad,CuDef*%
%ADD37RoundRect,0.075000X-0.662500X-0.075000X0.662500X-0.075000X0.662500X0.075000X-0.662500X0.075000X0*%
%TD*%
%TA.AperFunction,SMDPad,CuDef*%
%ADD38RoundRect,0.075000X-0.075000X-0.662500X0.075000X-0.662500X0.075000X0.662500X-0.075000X0.662500X0*%
%TD*%
%TA.AperFunction,SMDPad,CuDef*%
%ADD39RoundRect,0.375000X-0.375000X0.625000X-0.375000X-0.625000X0.375000X-0.625000X0.375000X0.625000X0*%
%TD*%
%TA.AperFunction,SMDPad,CuDef*%
%ADD40RoundRect,0.500000X-1.400000X0.500000X-1.400000X-0.500000X1.400000X-0.500000X1.400000X0.500000X0*%
%TD*%
%TA.AperFunction,SMDPad,CuDef*%
%ADD41C,2.500000*%
%TD*%
%TA.AperFunction,ViaPad*%
%ADD42C,0.800000*%
%TD*%
%TA.AperFunction,Conductor*%
%ADD43C,0.250000*%
%TD*%
%TA.AperFunction,Conductor*%
%ADD44C,0.300000*%
%TD*%
%TA.AperFunction,Conductor*%
%ADD45C,1.000000*%
%TD*%
%TA.AperFunction,Conductor*%
%ADD46C,0.500000*%
%TD*%
%TA.AperFunction,Conductor*%
%ADD47C,0.750000*%
%TD*%
%TA.AperFunction,Conductor*%
%ADD48C,0.200000*%
%TD*%
G04 APERTURE END LIST*
D10*
%TO.P,U5,1,CS*%
%TO.N,/Memorias y PLL/EEPROM_CS*%
X191015000Y-103378000D03*
%TO.P,U5,2,SCLK*%
%TO.N,/Memorias y PLL/EEPROM_CLK*%
X191015000Y-104648000D03*
%TO.P,U5,3,DI*%
%TO.N,/Memorias y PLL/EEPROM_DATA*%
X191015000Y-105918000D03*
%TO.P,U5,4,DO*%
%TO.N,Net-(U5-DO)*%
X191015000Y-107188000D03*
%TO.P,U5,5,GND*%
%TO.N,GND*%
X195965000Y-107188000D03*
%TO.P,U5,6,ORG*%
%TO.N,+3V3*%
X195965000Y-105918000D03*
%TO.P,U5,7,NC*%
%TO.N,unconnected-(U5-NC-Pad7)*%
X195965000Y-104648000D03*
%TO.P,U5,8,VCC*%
%TO.N,+3V3*%
X195965000Y-103378000D03*
%TD*%
D11*
%TO.P,R11,1*%
%TO.N,+1V2*%
X158811500Y-131532000D03*
%TO.P,R11,2*%
%TO.N,/Memorias y PLL/VCCPLL2*%
X161736500Y-131532000D03*
%TD*%
D12*
%TO.P,C10,1*%
%TO.N,/USB-FTDI/VPLL*%
X187784000Y-125349000D03*
%TO.P,C10,2*%
%TO.N,GND*%
X184834000Y-125349000D03*
%TD*%
D13*
%TO.P,R6,1*%
%TO.N,+3V3*%
X189738000Y-133288500D03*
%TO.P,R6,2*%
%TO.N,Net-(U4-~{RESET})*%
X189738000Y-130363500D03*
%TD*%
D14*
%TO.P,C40,1*%
%TO.N,/Perifericos/BOT7*%
X209931000Y-136349000D03*
%TO.P,C40,2*%
%TO.N,GND*%
X209931000Y-133399000D03*
%TD*%
D13*
%TO.P,R25,1*%
%TO.N,/Perifericos/LED1*%
X220500000Y-84178500D03*
%TO.P,R25,2*%
%TO.N,Net-(D5-A)*%
X220500000Y-81253500D03*
%TD*%
D15*
%TO.P,C38,1*%
%TO.N,/Perifericos/BOT5*%
X189357000Y-138225000D03*
%TO.P,C38,2*%
%TO.N,GND*%
X189357000Y-141175000D03*
%TD*%
D13*
%TO.P,R21,1*%
%TO.N,/Memorias y PLL/Flash_DONE*%
X177500000Y-128012500D03*
%TO.P,R21,2*%
%TO.N,Net-(D4-A)*%
X177500000Y-125087500D03*
%TD*%
D15*
%TO.P,C32,1*%
%TO.N,+1V2*%
X151525000Y-126100000D03*
%TO.P,C32,2*%
%TO.N,GND*%
X151525000Y-129050000D03*
%TD*%
D16*
%TO.P,SW2,1,1*%
%TO.N,GND*%
X141400000Y-143250000D03*
%TO.P,SW2,2,2*%
%TO.N,Net-(R34-Pad2)*%
X141400000Y-147750000D03*
%TO.P,SW2,3*%
%TO.N,N/C*%
X150500000Y-143250000D03*
%TO.P,SW2,4*%
X150500000Y-147750000D03*
%TD*%
D17*
%TO.P,U4,1,GND*%
%TO.N,GND*%
X189778000Y-120329000D03*
%TO.P,U4,2,OSCI*%
%TO.N,/Perifericos/12MHz_CLK*%
X189778000Y-120829000D03*
%TO.P,U4,3,OSCO*%
%TO.N,unconnected-(U4-OSCO-Pad3)*%
X189778000Y-121329000D03*
%TO.P,U4,4,VPHY*%
%TO.N,/USB-FTDI/VPHY*%
X189778000Y-121829000D03*
%TO.P,U4,5,GND*%
%TO.N,GND*%
X189778000Y-122329000D03*
%TO.P,U4,6,REF*%
%TO.N,Net-(U4-REF)*%
X189778000Y-122829000D03*
%TO.P,U4,7,DM*%
%TO.N,/Power Supply/D-*%
X189778000Y-123329000D03*
%TO.P,U4,8,DP*%
%TO.N,/Power Supply/D+*%
X189778000Y-123829000D03*
%TO.P,U4,9,VPLL*%
%TO.N,/USB-FTDI/VPLL*%
X189778000Y-124329000D03*
%TO.P,U4,10,AGND*%
%TO.N,GND*%
X189778000Y-124829000D03*
%TO.P,U4,11,GND*%
X189778000Y-125329000D03*
%TO.P,U4,12,VCORE*%
%TO.N,+1V8*%
X189778000Y-125829000D03*
%TO.P,U4,13,TEST*%
%TO.N,GND*%
X189778000Y-126329000D03*
%TO.P,U4,14,~{RESET}*%
%TO.N,Net-(U4-~{RESET})*%
X189778000Y-126829000D03*
%TO.P,U4,15,GND*%
%TO.N,GND*%
X189778000Y-127329000D03*
%TO.P,U4,16,ADBUS0*%
%TO.N,/Memorias y PLL/Flash_SCK*%
X189778000Y-127829000D03*
D18*
%TO.P,U4,17,ADBUS1*%
%TO.N,/Memorias y PLL/Flash_DI*%
X191703000Y-129754000D03*
%TO.P,U4,18,ADBUS2*%
%TO.N,/Memorias y PLL/Flash_DO*%
X192203000Y-129754000D03*
%TO.P,U4,19,ADBUS3*%
%TO.N,unconnected-(U4-ADBUS3-Pad19)*%
X192703000Y-129754000D03*
%TO.P,U4,20,VCCIO*%
%TO.N,+3V3*%
X193203000Y-129754000D03*
%TO.P,U4,21,ADBUS4*%
%TO.N,/Memorias y PLL/Flash_CS*%
X193703000Y-129754000D03*
%TO.P,U4,22,ADBUS5*%
%TO.N,unconnected-(U4-ADBUS5-Pad22)*%
X194203000Y-129754000D03*
%TO.P,U4,23,ADBUS6*%
%TO.N,/Memorias y PLL/Flash_DONE*%
X194703000Y-129754000D03*
%TO.P,U4,24,ADBUS7*%
%TO.N,/Memorias y PLL/Flash_RESET*%
X195203000Y-129754000D03*
%TO.P,U4,25,GND*%
%TO.N,GND*%
X195703000Y-129754000D03*
%TO.P,U4,26,ACBUS0*%
%TO.N,unconnected-(U4-ACBUS0-Pad26)*%
X196203000Y-129754000D03*
%TO.P,U4,27,ACBUS1*%
%TO.N,unconnected-(U4-ACBUS1-Pad27)*%
X196703000Y-129754000D03*
%TO.P,U4,28,ACBUS2*%
%TO.N,unconnected-(U4-ACBUS2-Pad28)*%
X197203000Y-129754000D03*
%TO.P,U4,29,ACBUS3*%
%TO.N,unconnected-(U4-ACBUS3-Pad29)*%
X197703000Y-129754000D03*
%TO.P,U4,30,ACBUS4*%
%TO.N,unconnected-(U4-ACBUS4-Pad30)*%
X198203000Y-129754000D03*
%TO.P,U4,31,VCCIO*%
%TO.N,+3V3*%
X198703000Y-129754000D03*
%TO.P,U4,32,ACBUS5*%
%TO.N,unconnected-(U4-ACBUS5-Pad32)*%
X199203000Y-129754000D03*
D17*
%TO.P,U4,33,ACBUS6*%
%TO.N,unconnected-(U4-ACBUS6-Pad33)*%
X201128000Y-127829000D03*
%TO.P,U4,34,ACBUS7*%
%TO.N,unconnected-(U4-ACBUS7-Pad34)*%
X201128000Y-127329000D03*
%TO.P,U4,35,GND*%
%TO.N,GND*%
X201128000Y-126829000D03*
%TO.P,U4,36,~{SUSPEND}*%
%TO.N,unconnected-(U4-~{SUSPEND}-Pad36)*%
X201128000Y-126329000D03*
%TO.P,U4,37,VCORE*%
%TO.N,+1V8*%
X201128000Y-125829000D03*
%TO.P,U4,38,BDBUS0*%
%TO.N,/Perifericos/VUART_Rx*%
X201128000Y-125329000D03*
%TO.P,U4,39,BDBUS1*%
%TO.N,/Perifericos/VUART_Tx*%
X201128000Y-124829000D03*
%TO.P,U4,40,BDBUS2*%
%TO.N,/Perifericos/VUART_RTS*%
X201128000Y-124329000D03*
%TO.P,U4,41,BDBUS3*%
%TO.N,/Perifericos/VUART_CTS*%
X201128000Y-123829000D03*
%TO.P,U4,42,VCCIO*%
%TO.N,+3V3*%
X201128000Y-123329000D03*
%TO.P,U4,43,BDBUS4*%
%TO.N,/Perifericos/VUART_DTR*%
X201128000Y-122829000D03*
%TO.P,U4,44,BDBUS5*%
%TO.N,/Perifericos/VUART_DSR*%
X201128000Y-122329000D03*
%TO.P,U4,45,BDBUS6*%
%TO.N,/Perifericos/VUART_DCD*%
X201128000Y-121829000D03*
%TO.P,U4,46,BDBUS7*%
%TO.N,unconnected-(U4-BDBUS7-Pad46)*%
X201128000Y-121329000D03*
%TO.P,U4,47,GND*%
%TO.N,GND*%
X201128000Y-120829000D03*
%TO.P,U4,48,BCBUS0*%
%TO.N,unconnected-(U4-BCBUS0-Pad48)*%
X201128000Y-120329000D03*
D18*
%TO.P,U4,49,VREGOUT*%
%TO.N,+1V8*%
X199203000Y-118404000D03*
%TO.P,U4,50,VREGIN*%
%TO.N,+3V3*%
X198703000Y-118404000D03*
%TO.P,U4,51,GND*%
%TO.N,GND*%
X198203000Y-118404000D03*
%TO.P,U4,52,BCBUS1*%
%TO.N,unconnected-(U4-BCBUS1-Pad52)*%
X197703000Y-118404000D03*
%TO.P,U4,53,BCBUS2*%
%TO.N,unconnected-(U4-BCBUS2-Pad53)*%
X197203000Y-118404000D03*
%TO.P,U4,54,BCBUS3*%
%TO.N,unconnected-(U4-BCBUS3-Pad54)*%
X196703000Y-118404000D03*
%TO.P,U4,55,BCBUS4*%
%TO.N,unconnected-(U4-BCBUS4-Pad55)*%
X196203000Y-118404000D03*
%TO.P,U4,56,VCCIO*%
%TO.N,+3V3*%
X195703000Y-118404000D03*
%TO.P,U4,57,BCBUS5*%
%TO.N,unconnected-(U4-BCBUS5-Pad57)*%
X195203000Y-118404000D03*
%TO.P,U4,58,BCBUS6*%
%TO.N,unconnected-(U4-BCBUS6-Pad58)*%
X194703000Y-118404000D03*
%TO.P,U4,59,BCBUS7*%
%TO.N,unconnected-(U4-BCBUS7-Pad59)*%
X194203000Y-118404000D03*
%TO.P,U4,60,~{PWREN}*%
%TO.N,Net-(U4-~{PWREN})*%
X193703000Y-118404000D03*
%TO.P,U4,61,EEDATA*%
%TO.N,/Memorias y PLL/EEPROM_DATA*%
X193203000Y-118404000D03*
%TO.P,U4,62,EECLK*%
%TO.N,/Memorias y PLL/EEPROM_CLK*%
X192703000Y-118404000D03*
%TO.P,U4,63,EECS*%
%TO.N,/Memorias y PLL/EEPROM_CS*%
X192203000Y-118404000D03*
%TO.P,U4,64,VCORE*%
%TO.N,+1V8*%
X191703000Y-118404000D03*
%TD*%
D19*
%TO.P,R9,1*%
%TO.N,+1V2*%
X168425000Y-96337500D03*
%TO.P,R9,2*%
%TO.N,/Memorias y PLL/VCCPLL1*%
X165500000Y-96337500D03*
%TD*%
D15*
%TO.P,C51,1*%
%TO.N,+3V3*%
X164525000Y-126050000D03*
%TO.P,C51,2*%
%TO.N,GND*%
X164525000Y-129000000D03*
%TD*%
D12*
%TO.P,C23,1*%
%TO.N,+3V3*%
X194847000Y-97917000D03*
%TO.P,C23,2*%
%TO.N,GND*%
X191897000Y-97917000D03*
%TD*%
D20*
%TO.P,P3,1,3V3*%
%TO.N,+3V3*%
X219500000Y-139660000D03*
D21*
%TO.P,P3,2,3V3*%
X222040000Y-139660000D03*
%TO.P,P3,3,5V*%
%TO.N,+5V*%
X219500000Y-137120000D03*
%TO.P,P3,4,5V*%
X222040000Y-137120000D03*
%TO.P,P3,5,IO1*%
%TO.N,Net-(P3-IO1)*%
X219500000Y-134580000D03*
%TO.P,P3,6,IO2*%
%TO.N,Net-(P3-IO2)*%
X222040000Y-134580000D03*
%TO.P,P3,7,IO3*%
%TO.N,Net-(P3-IO3)*%
X219500000Y-132040000D03*
%TO.P,P3,8,IO4*%
%TO.N,Net-(P3-IO4)*%
X222040000Y-132040000D03*
%TO.P,P3,9,IO5*%
%TO.N,Net-(P3-IO5)*%
X219500000Y-129500000D03*
%TO.P,P3,10,IO6*%
%TO.N,Net-(P3-IO6)*%
X222040000Y-129500000D03*
%TO.P,P3,11,IO7*%
%TO.N,Net-(P3-IO7)*%
X219500000Y-126960000D03*
%TO.P,P3,12,IO8*%
%TO.N,Net-(P3-IO8)*%
X222040000Y-126960000D03*
%TO.P,P3,13,IO9*%
%TO.N,Net-(P3-IO9)*%
X219500000Y-124420000D03*
%TO.P,P3,14,IO10*%
%TO.N,Net-(P3-IO10)*%
X222040000Y-124420000D03*
%TO.P,P3,15,IO11*%
%TO.N,Net-(P3-IO11)*%
X219500000Y-121880000D03*
%TO.P,P3,16,IO12*%
%TO.N,Net-(P3-IO12)*%
X222040000Y-121880000D03*
%TO.P,P3,17,IO13*%
%TO.N,Net-(P3-IO13)*%
X219500000Y-119340000D03*
%TO.P,P3,18,IO14*%
%TO.N,Net-(P3-IO14)*%
X222040000Y-119340000D03*
%TO.P,P3,19,GND*%
%TO.N,GND*%
X219500000Y-116800000D03*
%TO.P,P3,20,GND*%
X222040000Y-116800000D03*
%TD*%
D15*
%TO.P,C3,1*%
%TO.N,+5V*%
X165500000Y-80025000D03*
%TO.P,C3,2*%
%TO.N,GND*%
X165500000Y-82975000D03*
%TD*%
D11*
%TO.P,R2,1*%
%TO.N,+5V*%
X165037500Y-77500000D03*
%TO.P,R2,2*%
%TO.N,Net-(D2-A)*%
X167962500Y-77500000D03*
%TD*%
D22*
%TO.P,C27,1*%
%TO.N,+3V3*%
X197153000Y-100711000D03*
%TO.P,C27,2*%
%TO.N,GND*%
X200103000Y-100711000D03*
%TD*%
D15*
%TO.P,C14,1*%
%TO.N,+3V3*%
X198120000Y-132002000D03*
%TO.P,C14,2*%
%TO.N,GND*%
X198120000Y-134952000D03*
%TD*%
D23*
%TO.P,FB3,1*%
%TO.N,Net-(U2-VO)*%
X134537500Y-85485000D03*
%TO.P,FB3,2*%
%TO.N,+1V2*%
X134537500Y-82510000D03*
%TD*%
D24*
%TO.P,D1,1,K*%
%TO.N,Net-(U3-VBUS)*%
X173450000Y-85062500D03*
%TO.P,D1,2,K*%
X171550000Y-85062500D03*
%TO.P,D1,3,A*%
%TO.N,GND*%
X172500000Y-86937500D03*
%TD*%
D16*
%TO.P,SW4,1,1*%
%TO.N,GND*%
X165450000Y-143250000D03*
%TO.P,SW4,2,2*%
%TO.N,Net-(R36-Pad2)*%
X165450000Y-147750000D03*
%TO.P,SW4,3*%
%TO.N,N/C*%
X174550000Y-143250000D03*
%TO.P,SW4,4*%
X174550000Y-147750000D03*
%TD*%
D12*
%TO.P,C53,1*%
%TO.N,+3V3*%
X146950000Y-106337500D03*
%TO.P,C53,2*%
%TO.N,GND*%
X144000000Y-106337500D03*
%TD*%
D25*
%TO.P,R5,1*%
%TO.N,GND*%
X190093600Y-114361500D03*
%TO.P,R5,2*%
%TO.N,Net-(U4-REF)*%
X190093600Y-117286500D03*
%TD*%
D15*
%TO.P,C37,1*%
%TO.N,/Perifericos/BOT4*%
X177292000Y-138225000D03*
%TO.P,C37,2*%
%TO.N,GND*%
X177292000Y-141175000D03*
%TD*%
D25*
%TO.P,R23,1*%
%TO.N,+3V3*%
X209931000Y-88199500D03*
%TO.P,R23,2*%
%TO.N,Net-(U7-~{HOLD})*%
X209931000Y-91124500D03*
%TD*%
D26*
%TO.P,D12,1,K*%
%TO.N,GND*%
X192500000Y-75766000D03*
%TO.P,D12,2,A*%
%TO.N,Net-(D12-A)*%
X192500000Y-78666000D03*
%TD*%
D22*
%TO.P,C5,1*%
%TO.N,+3V3*%
X150025000Y-80525000D03*
%TO.P,C5,2*%
%TO.N,GND*%
X152975000Y-80525000D03*
%TD*%
D16*
%TO.P,SW3,1,1*%
%TO.N,GND*%
X153450000Y-143250000D03*
%TO.P,SW3,2,2*%
%TO.N,Net-(R35-Pad2)*%
X153450000Y-147750000D03*
%TO.P,SW3,3*%
%TO.N,N/C*%
X162550000Y-143250000D03*
%TO.P,SW3,4*%
X162550000Y-147750000D03*
%TD*%
D13*
%TO.P,R44,1*%
%TO.N,Net-(R36-Pad2)*%
X174752000Y-141162500D03*
%TO.P,R44,2*%
%TO.N,/Perifericos/BOT4*%
X174752000Y-138237500D03*
%TD*%
D12*
%TO.P,C8,1*%
%TO.N,/USB-FTDI/VPHY*%
X187530000Y-121793000D03*
%TO.P,C8,2*%
%TO.N,GND*%
X184580000Y-121793000D03*
%TD*%
D26*
%TO.P,D6,1,K*%
%TO.N,GND*%
X216500000Y-75766000D03*
%TO.P,D6,2,A*%
%TO.N,Net-(D6-A)*%
X216500000Y-78666000D03*
%TD*%
D23*
%TO.P,FB2,1*%
%TO.N,Net-(U1-VO)*%
X150525000Y-86012500D03*
%TO.P,FB2,2*%
%TO.N,+3V3*%
X150525000Y-83037500D03*
%TD*%
D11*
%TO.P,R10,1*%
%TO.N,/Memorias y PLL/EEPROM_DATA*%
X191770000Y-112141000D03*
%TO.P,R10,2*%
%TO.N,Net-(U5-DO)*%
X194695000Y-112141000D03*
%TD*%
D27*
%TO.P,Y2,1,TRI-STATE*%
%TO.N,+3V3*%
X154375000Y-128000000D03*
%TO.P,Y2,2,GND*%
%TO.N,GND*%
X156675000Y-128000000D03*
%TO.P,Y2,3,OUTPUT*%
%TO.N,Net-(U6C-IOB_81_GBIN5)*%
X156675000Y-126100000D03*
%TO.P,Y2,4,VDD*%
%TO.N,+3V3*%
X154375000Y-126100000D03*
%TD*%
D28*
%TO.P,U3,1,I/O1*%
%TO.N,Net-(J1-D--PadA7)*%
X182450000Y-83862500D03*
%TO.P,U3,2,GND*%
%TO.N,GND*%
X181500000Y-83862500D03*
%TO.P,U3,3,I/O2*%
%TO.N,Net-(J1-D+-PadA6)*%
X180550000Y-83862500D03*
%TO.P,U3,4,I/O2*%
%TO.N,/Power Supply/D+*%
X180550000Y-86137500D03*
%TO.P,U3,5,VBUS*%
%TO.N,Net-(U3-VBUS)*%
X181500000Y-86137500D03*
%TO.P,U3,6,I/O1*%
%TO.N,/Power Supply/D-*%
X182450000Y-86137500D03*
%TD*%
D15*
%TO.P,C13,1*%
%TO.N,+3V3*%
X193319400Y-131875000D03*
%TO.P,C13,2*%
%TO.N,GND*%
X193319400Y-134825000D03*
%TD*%
D25*
%TO.P,R20,1*%
%TO.N,+3V3*%
X207391000Y-93595000D03*
%TO.P,R20,2*%
%TO.N,Net-(U6E-IOB_107_SCK)*%
X207391000Y-96520000D03*
%TD*%
%TO.P,R37,1*%
%TO.N,+3V3*%
X184150000Y-138237500D03*
%TO.P,R37,2*%
%TO.N,Net-(R37-Pad2)*%
X184150000Y-141162500D03*
%TD*%
D22*
%TO.P,C29,1*%
%TO.N,+3V3*%
X175050000Y-117500000D03*
%TO.P,C29,2*%
%TO.N,GND*%
X178000000Y-117500000D03*
%TD*%
D12*
%TO.P,C54,1*%
%TO.N,+3V3*%
X146950000Y-118837500D03*
%TO.P,C54,2*%
%TO.N,GND*%
X144000000Y-118837500D03*
%TD*%
D15*
%TO.P,C2,1*%
%TO.N,+5V*%
X168000000Y-80025000D03*
%TO.P,C2,2*%
%TO.N,GND*%
X168000000Y-82975000D03*
%TD*%
D22*
%TO.P,C12,1*%
%TO.N,+1V8*%
X203376000Y-118491000D03*
%TO.P,C12,2*%
%TO.N,GND*%
X206326000Y-118491000D03*
%TD*%
D14*
%TO.P,C43,1*%
%TO.N,+3V3*%
X148500000Y-99312500D03*
%TO.P,C43,2*%
%TO.N,GND*%
X148500000Y-96362500D03*
%TD*%
D15*
%TO.P,C35,1*%
%TO.N,/Perifericos/BOT2*%
X153289000Y-138225000D03*
%TO.P,C35,2*%
%TO.N,GND*%
X153289000Y-141175000D03*
%TD*%
D29*
%TO.P,D2,1,K*%
%TO.N,GND*%
X172950000Y-77000000D03*
%TO.P,D2,2,A*%
%TO.N,Net-(D2-A)*%
X170050000Y-77000000D03*
%TD*%
D14*
%TO.P,C4,1*%
%TO.N,Net-(U1-VO)*%
X153025000Y-86000000D03*
%TO.P,C4,2*%
%TO.N,GND*%
X153025000Y-83050000D03*
%TD*%
D12*
%TO.P,C18,1*%
%TO.N,+1V8*%
X187784000Y-130302000D03*
%TO.P,C18,2*%
%TO.N,GND*%
X184834000Y-130302000D03*
%TD*%
D22*
%TO.P,C26,1*%
%TO.N,+3V3*%
X197153000Y-98171000D03*
%TO.P,C26,2*%
%TO.N,GND*%
X200103000Y-98171000D03*
%TD*%
%TO.P,C16,1*%
%TO.N,+3V3*%
X198423000Y-115824000D03*
%TO.P,C16,2*%
%TO.N,GND*%
X201373000Y-115824000D03*
%TD*%
D30*
%TO.P,D3,1,K*%
%TO.N,Net-(D3-K)*%
X176512500Y-103500000D03*
%TO.P,D3,2,A*%
%TO.N,+3V3*%
X173537500Y-103500000D03*
%TD*%
D12*
%TO.P,C24,1*%
%TO.N,/Memorias y PLL/VCCPLL2*%
X161761500Y-126532000D03*
%TO.P,C24,2*%
%TO.N,/Memorias y PLL/GNDPLL2*%
X158811500Y-126532000D03*
%TD*%
D16*
%TO.P,SW6,1,1*%
%TO.N,GND*%
X189450000Y-143250000D03*
%TO.P,SW6,2,2*%
%TO.N,Net-(R38-Pad2)*%
X189450000Y-147750000D03*
%TO.P,SW6,3*%
%TO.N,N/C*%
X198550000Y-143250000D03*
%TO.P,SW6,4*%
X198550000Y-147750000D03*
%TD*%
D13*
%TO.P,R32,1*%
%TO.N,/Perifericos/LED8*%
X192500000Y-84178500D03*
%TO.P,R32,2*%
%TO.N,Net-(D12-A)*%
X192500000Y-81253500D03*
%TD*%
D11*
%TO.P,R19,1*%
%TO.N,+3V3*%
X192528000Y-89408000D03*
%TO.P,R19,2*%
%TO.N,Net-(U6E-IOB_108_SS)*%
X195453000Y-89408000D03*
%TD*%
D25*
%TO.P,R8,1*%
%TO.N,+3V3*%
X189484000Y-98232500D03*
%TO.P,R8,2*%
%TO.N,/Memorias y PLL/EEPROM_CS*%
X189484000Y-101157500D03*
%TD*%
D22*
%TO.P,C21,1*%
%TO.N,/Memorias y PLL/GNDPLL1*%
X160500000Y-98837500D03*
%TO.P,C21,2*%
%TO.N,/Memorias y PLL/VCCPLL1*%
X163450000Y-98837500D03*
%TD*%
D14*
%TO.P,C17,1*%
%TO.N,+3V3*%
X153500000Y-99287500D03*
%TO.P,C17,2*%
%TO.N,GND*%
X153500000Y-96337500D03*
%TD*%
D25*
%TO.P,R38,1*%
%TO.N,+3V3*%
X196215000Y-138237500D03*
%TO.P,R38,2*%
%TO.N,Net-(R38-Pad2)*%
X196215000Y-141162500D03*
%TD*%
D26*
%TO.P,D4,1,K*%
%TO.N,GND*%
X174500000Y-128037500D03*
%TO.P,D4,2,A*%
%TO.N,Net-(D4-A)*%
X174500000Y-125137500D03*
%TD*%
D31*
%TO.P,FB5,1*%
%TO.N,+3V3*%
X184531000Y-132588000D03*
%TO.P,FB5,2*%
%TO.N,/USB-FTDI/VPLL*%
X187506000Y-132588000D03*
%TD*%
D12*
%TO.P,C31,1*%
%TO.N,+1V2*%
X146975000Y-116337500D03*
%TO.P,C31,2*%
%TO.N,GND*%
X144025000Y-116337500D03*
%TD*%
D25*
%TO.P,R36,1*%
%TO.N,+3V3*%
X172212000Y-138237500D03*
%TO.P,R36,2*%
%TO.N,Net-(R36-Pad2)*%
X172212000Y-141162500D03*
%TD*%
D32*
%TO.P,Y1,1,TRI-STATE*%
%TO.N,+3V3*%
X155600000Y-96350000D03*
%TO.P,Y1,2,GND*%
%TO.N,GND*%
X155600000Y-98650000D03*
%TO.P,Y1,3,OUTPUT*%
%TO.N,/Perifericos/12MHz_CLK*%
X157500000Y-98650000D03*
%TO.P,Y1,4,VDD*%
%TO.N,+3V3*%
X157500000Y-96350000D03*
%TD*%
D22*
%TO.P,C42,1*%
%TO.N,+3V3*%
X154050000Y-130050000D03*
%TO.P,C42,2*%
%TO.N,GND*%
X157000000Y-130050000D03*
%TD*%
D33*
%TO.P,J1,A1,GND*%
%TO.N,GND*%
X184675000Y-81140000D03*
%TO.P,J1,A4,VBUS*%
%TO.N,Net-(U3-VBUS)*%
X183875000Y-81140000D03*
D34*
%TO.P,J1,A5,CC1*%
%TO.N,Net-(J1-CC1)*%
X182725000Y-81140000D03*
%TO.P,J1,A6,D+*%
%TO.N,Net-(J1-D+-PadA6)*%
X181725000Y-81140000D03*
%TO.P,J1,A7,D-*%
%TO.N,Net-(J1-D--PadA7)*%
X181225000Y-81140000D03*
%TO.P,J1,A8,SBU1*%
%TO.N,unconnected-(J1-SBU1-PadA8)*%
X180225000Y-81140000D03*
D33*
%TO.P,J1,A9,VBUS*%
%TO.N,Net-(U3-VBUS)*%
X179075000Y-81140000D03*
%TO.P,J1,A12,GND*%
%TO.N,GND*%
X178275000Y-81140000D03*
%TO.P,J1,B1,GND*%
X178275000Y-81140000D03*
%TO.P,J1,B4,VBUS*%
%TO.N,Net-(U3-VBUS)*%
X179075000Y-81140000D03*
D34*
%TO.P,J1,B5,CC2*%
%TO.N,Net-(J1-CC2)*%
X179725000Y-81140000D03*
%TO.P,J1,B6,D+*%
%TO.N,Net-(J1-D+-PadA6)*%
X180725000Y-81140000D03*
%TO.P,J1,B7,D-*%
%TO.N,Net-(J1-D--PadA7)*%
X182225000Y-81140000D03*
%TO.P,J1,B8,SBU2*%
%TO.N,unconnected-(J1-SBU2-PadB8)*%
X183225000Y-81140000D03*
D33*
%TO.P,J1,B9,VBUS*%
%TO.N,Net-(U3-VBUS)*%
X183875000Y-81140000D03*
%TO.P,J1,B12,GND*%
%TO.N,GND*%
X184675000Y-81140000D03*
D35*
%TO.P,J1,MH1*%
%TO.N,N/C*%
X184365000Y-80065000D03*
%TO.P,J1,MH2*%
X178585000Y-80065000D03*
D36*
%TO.P,J1,S1,SHIELD*%
%TO.N,GND*%
X186595000Y-80565000D03*
X186595000Y-76635000D03*
X176355000Y-80565000D03*
X176355000Y-76635000D03*
%TD*%
D22*
%TO.P,C48,1*%
%TO.N,+3V3*%
X173550000Y-106587500D03*
%TO.P,C48,2*%
%TO.N,GND*%
X176500000Y-106587500D03*
%TD*%
D31*
%TO.P,FB4,1*%
%TO.N,+3V3*%
X184567500Y-116713000D03*
%TO.P,FB4,2*%
%TO.N,/USB-FTDI/VPHY*%
X187542500Y-116713000D03*
%TD*%
D26*
%TO.P,D10,1,K*%
%TO.N,GND*%
X200500000Y-75766000D03*
%TO.P,D10,2,A*%
%TO.N,Net-(D10-A)*%
X200500000Y-78666000D03*
%TD*%
D13*
%TO.P,R30,1*%
%TO.N,/Perifericos/LED6*%
X200500000Y-84178500D03*
%TO.P,R30,2*%
%TO.N,Net-(D10-A)*%
X200500000Y-81253500D03*
%TD*%
D25*
%TO.P,R39,1*%
%TO.N,+3V3*%
X207518000Y-138237500D03*
%TO.P,R39,2*%
%TO.N,Net-(R39-Pad2)*%
X207518000Y-141162500D03*
%TD*%
D11*
%TO.P,R15,1*%
%TO.N,/Memorias y PLL/Flash_DI*%
X202372500Y-92964000D03*
%TO.P,R15,2*%
%TO.N,Net-(U6E-IOB_105_SDO)*%
X205297500Y-92964000D03*
%TD*%
D20*
%TO.P,P1,1,3V3*%
%TO.N,+3V3*%
X133350000Y-90170000D03*
D21*
%TO.P,P1,2,3V3*%
X130810000Y-90170000D03*
%TO.P,P1,3,5V*%
%TO.N,+5V*%
X133350000Y-92710000D03*
%TO.P,P1,4,5V*%
X130810000Y-92710000D03*
%TO.P,P1,5,IO1*%
%TO.N,Net-(P1-IO1)*%
X133350000Y-95250000D03*
%TO.P,P1,6,IO2*%
%TO.N,Net-(P1-IO2)*%
X130810000Y-95250000D03*
%TO.P,P1,7,IO3*%
%TO.N,Net-(P1-IO3)*%
X133350000Y-97790000D03*
%TO.P,P1,8,IO4*%
%TO.N,Net-(P1-IO4)*%
X130810000Y-97790000D03*
%TO.P,P1,9,IO5*%
%TO.N,Net-(P1-IO5)*%
X133350000Y-100330000D03*
%TO.P,P1,10,IO6*%
%TO.N,Net-(P1-IO6)*%
X130810000Y-100330000D03*
%TO.P,P1,11,IO7*%
%TO.N,Net-(P1-IO7)*%
X133350000Y-102870000D03*
%TO.P,P1,12,IO8*%
%TO.N,Net-(P1-IO8)*%
X130810000Y-102870000D03*
%TO.P,P1,13,IO9*%
%TO.N,Net-(P1-IO9)*%
X133350000Y-105410000D03*
%TO.P,P1,14,IO10*%
%TO.N,Net-(P1-IO10)*%
X130810000Y-105410000D03*
%TO.P,P1,15,IO11*%
%TO.N,Net-(P1-IO11)*%
X133350000Y-107950000D03*
%TO.P,P1,16,IO12*%
%TO.N,Net-(P1-IO12)*%
X130810000Y-107950000D03*
%TO.P,P1,17,IO13*%
%TO.N,Net-(P1-IO13)*%
X133350000Y-110490000D03*
%TO.P,P1,18,IO14*%
%TO.N,Net-(P1-IO14)*%
X130810000Y-110490000D03*
%TO.P,P1,19,GND*%
%TO.N,GND*%
X133350000Y-113030000D03*
%TO.P,P1,20,GND*%
X130810000Y-113030000D03*
%TD*%
D13*
%TO.P,R41,1*%
%TO.N,Net-(R33-Pad2)*%
X139065000Y-141162500D03*
%TO.P,R41,2*%
%TO.N,/Perifericos/BOT1*%
X139065000Y-138237500D03*
%TD*%
D12*
%TO.P,C52,1*%
%TO.N,+3V3*%
X146950000Y-108837500D03*
%TO.P,C52,2*%
%TO.N,GND*%
X144000000Y-108837500D03*
%TD*%
%TO.P,C11,1*%
%TO.N,/USB-FTDI/VPLL*%
X186768000Y-127889000D03*
%TO.P,C11,2*%
%TO.N,GND*%
X183818000Y-127889000D03*
%TD*%
D13*
%TO.P,R46,1*%
%TO.N,Net-(R38-Pad2)*%
X198755000Y-141162500D03*
%TO.P,R46,2*%
%TO.N,/Perifericos/BOT6*%
X198755000Y-138237500D03*
%TD*%
D10*
%TO.P,U7,1,~{CS}*%
%TO.N,Net-(U6E-IOB_108_SS)*%
X193932000Y-91948000D03*
%TO.P,U7,2,DO(IO1)*%
%TO.N,Net-(U6E-IOB_106_SDI)*%
X193932000Y-93218000D03*
%TO.P,U7,3,~{WP}*%
%TO.N,Net-(U7-~{WP})*%
X193932000Y-94488000D03*
%TO.P,U7,4,GND*%
%TO.N,GND*%
X193932000Y-95758000D03*
%TO.P,U7,5,DI(IO0)*%
%TO.N,Net-(U6E-IOB_105_SDO)*%
X198882000Y-95758000D03*
%TO.P,U7,6,SCK*%
%TO.N,Net-(U6E-IOB_107_SCK)*%
X198882000Y-94488000D03*
%TO.P,U7,7,~{HOLD}*%
%TO.N,Net-(U7-~{HOLD})*%
X198882000Y-93218000D03*
%TO.P,U7,8,VCC*%
%TO.N,+3V3*%
X198882000Y-91948000D03*
%TD*%
D11*
%TO.P,R1,1*%
%TO.N,Net-(J1-CC1)*%
X185000000Y-84000000D03*
%TO.P,R1,2*%
%TO.N,GND*%
X187925000Y-84000000D03*
%TD*%
D26*
%TO.P,D7,1,K*%
%TO.N,GND*%
X212500000Y-75766000D03*
%TO.P,D7,2,A*%
%TO.N,Net-(D7-A)*%
X212500000Y-78666000D03*
%TD*%
D15*
%TO.P,C49,1*%
%TO.N,+3V3*%
X167025000Y-126050000D03*
%TO.P,C49,2*%
%TO.N,GND*%
X167025000Y-129000000D03*
%TD*%
D13*
%TO.P,R28,1*%
%TO.N,/Perifericos/LED4*%
X208500000Y-84178500D03*
%TO.P,R28,2*%
%TO.N,Net-(D8-A)*%
X208500000Y-81253500D03*
%TD*%
%TO.P,R47,1*%
%TO.N,Net-(R39-Pad2)*%
X209931000Y-141162500D03*
%TO.P,R47,2*%
%TO.N,/Perifericos/BOT7*%
X209931000Y-138237500D03*
%TD*%
D25*
%TO.P,R35,1*%
%TO.N,+3V3*%
X160274000Y-138237500D03*
%TO.P,R35,2*%
%TO.N,Net-(R35-Pad2)*%
X160274000Y-141162500D03*
%TD*%
D13*
%TO.P,R29,1*%
%TO.N,/Perifericos/LED5*%
X204500000Y-84178500D03*
%TO.P,R29,2*%
%TO.N,Net-(D9-A)*%
X204500000Y-81253500D03*
%TD*%
D12*
%TO.P,C30,1*%
%TO.N,+1V2*%
X168450000Y-93837500D03*
%TO.P,C30,2*%
%TO.N,GND*%
X165500000Y-93837500D03*
%TD*%
D13*
%TO.P,R48,1*%
%TO.N,Net-(R40-Pad2)*%
X216408000Y-141162500D03*
%TO.P,R48,2*%
%TO.N,/Perifericos/BOT8*%
X216408000Y-138237500D03*
%TD*%
D11*
%TO.P,R16,1*%
%TO.N,/Memorias y PLL/Flash_DO*%
X188591000Y-94488000D03*
%TO.P,R16,2*%
%TO.N,Net-(U6E-IOB_106_SDI)*%
X191516000Y-94488000D03*
%TD*%
D15*
%TO.P,C34,1*%
%TO.N,/Perifericos/BOT1*%
X141605000Y-138225000D03*
%TO.P,C34,2*%
%TO.N,GND*%
X141605000Y-141175000D03*
%TD*%
D25*
%TO.P,R22,1*%
%TO.N,Net-(U7-~{WP})*%
X207518000Y-88261000D03*
%TO.P,R22,2*%
%TO.N,+3V3*%
X207518000Y-91186000D03*
%TD*%
D26*
%TO.P,D9,1,K*%
%TO.N,GND*%
X204500000Y-75766000D03*
%TO.P,D9,2,A*%
%TO.N,Net-(D9-A)*%
X204500000Y-78666000D03*
%TD*%
D25*
%TO.P,R33,1*%
%TO.N,+3V3*%
X136525000Y-138237500D03*
%TO.P,R33,2*%
%TO.N,Net-(R33-Pad2)*%
X136525000Y-141162500D03*
%TD*%
D13*
%TO.P,R43,1*%
%TO.N,Net-(R35-Pad2)*%
X162814000Y-141162500D03*
%TO.P,R43,2*%
%TO.N,/Perifericos/BOT3*%
X162814000Y-138237500D03*
%TD*%
D16*
%TO.P,SW5,1,1*%
%TO.N,GND*%
X177450000Y-143250000D03*
%TO.P,SW5,2,2*%
%TO.N,Net-(R37-Pad2)*%
X177450000Y-147750000D03*
%TO.P,SW5,3*%
%TO.N,N/C*%
X186550000Y-143250000D03*
%TO.P,SW5,4*%
X186550000Y-147750000D03*
%TD*%
D22*
%TO.P,C22,1*%
%TO.N,/Memorias y PLL/GNDPLL1*%
X160500000Y-96337500D03*
%TO.P,C22,2*%
%TO.N,/Memorias y PLL/VCCPLL1*%
X163450000Y-96337500D03*
%TD*%
D14*
%TO.P,C7,1*%
%TO.N,Net-(U2-VO)*%
X138037500Y-85485000D03*
%TO.P,C7,2*%
%TO.N,GND*%
X138037500Y-82535000D03*
%TD*%
D37*
%TO.P,U6,1,IOL_2A*%
%TO.N,Net-(P1-IO1)*%
X149587500Y-103500000D03*
%TO.P,U6,2,IOL_2B*%
%TO.N,Net-(P1-IO2)*%
X149587500Y-104000000D03*
%TO.P,U6,3,IOL_3A*%
%TO.N,Net-(P1-IO3)*%
X149587500Y-104500000D03*
%TO.P,U6,4,IOL_3B*%
%TO.N,Net-(P1-IO4)*%
X149587500Y-105000000D03*
%TO.P,U6,5,GND*%
%TO.N,GND*%
X149587500Y-105500000D03*
%TO.P,U6,6,VCCIO_3*%
%TO.N,+3V3*%
X149587500Y-106000000D03*
%TO.P,U6,7,IOL_4A*%
%TO.N,Net-(P1-IO5)*%
X149587500Y-106500000D03*
%TO.P,U6,8,IOL_4B*%
%TO.N,Net-(P1-IO6)*%
X149587500Y-107000000D03*
%TO.P,U6,9,IOL_5A*%
%TO.N,Net-(P1-IO7)*%
X149587500Y-107500000D03*
%TO.P,U6,10,IOL_5B*%
%TO.N,Net-(P1-IO8)*%
X149587500Y-108000000D03*
%TO.P,U6,11,IOL_8A*%
%TO.N,Net-(P1-IO9)*%
X149587500Y-108500000D03*
%TO.P,U6,12,IOL_8B*%
%TO.N,Net-(P1-IO10)*%
X149587500Y-109000000D03*
%TO.P,U6,13,GND*%
%TO.N,GND*%
X149587500Y-109500000D03*
%TO.P,U6,14,GND*%
X149587500Y-110000000D03*
%TO.P,U6,15,IOL_10A*%
%TO.N,Net-(P1-IO11)*%
X149587500Y-110500000D03*
%TO.P,U6,16,IOL_10B*%
%TO.N,Net-(P1-IO12)*%
X149587500Y-111000000D03*
%TO.P,U6,17,IOL_12A*%
%TO.N,Net-(P1-IO13)*%
X149587500Y-111500000D03*
%TO.P,U6,18,IOL_12B*%
%TO.N,Net-(P1-IO14)*%
X149587500Y-112000000D03*
%TO.P,U6,19,IOL_13A*%
%TO.N,Net-(P2-IO1)*%
X149587500Y-112500000D03*
%TO.P,U6,20,IOL_13B_GBIN7*%
%TO.N,Net-(P2-IO2)*%
X149587500Y-113000000D03*
%TO.P,U6,21,IOL_14A_GBIN6*%
%TO.N,Net-(P2-IO3)*%
X149587500Y-113500000D03*
%TO.P,U6,22,IOL_14B*%
%TO.N,Net-(P2-IO4)*%
X149587500Y-114000000D03*
%TO.P,U6,23,IOL_17A*%
%TO.N,Net-(P2-IO5)*%
X149587500Y-114500000D03*
%TO.P,U6,24,IOL_17B*%
%TO.N,Net-(P2-IO6)*%
X149587500Y-115000000D03*
%TO.P,U6,25,IOL_18A*%
%TO.N,Net-(P2-IO7)*%
X149587500Y-115500000D03*
%TO.P,U6,26,IOL_18B*%
%TO.N,Net-(P2-IO8)*%
X149587500Y-116000000D03*
%TO.P,U6,27,VCC*%
%TO.N,+1V2*%
X149587500Y-116500000D03*
%TO.P,U6,28,IOL_23A*%
%TO.N,Net-(P2-IO9)*%
X149587500Y-117000000D03*
%TO.P,U6,29,IOL_23B*%
%TO.N,Net-(P2-IO10)*%
X149587500Y-117500000D03*
%TO.P,U6,30,VCCIO_3*%
%TO.N,+3V3*%
X149587500Y-118000000D03*
%TO.P,U6,31,IOL_24A*%
%TO.N,Net-(P2-IO11)*%
X149587500Y-118500000D03*
%TO.P,U6,32,IOL_24B*%
%TO.N,Net-(P2-IO12)*%
X149587500Y-119000000D03*
%TO.P,U6,33,IOL_25A*%
%TO.N,Net-(P2-IO13)*%
X149587500Y-119500000D03*
%TO.P,U6,34,IOL_25B*%
%TO.N,Net-(P2-IO14)*%
X149587500Y-120000000D03*
%TO.P,U6,35,NC*%
%TO.N,unconnected-(U6E-NC-Pad35)*%
X149587500Y-120500000D03*
%TO.P,U6,36,NC*%
%TO.N,unconnected-(U6E-NC-Pad36)*%
X149587500Y-121000000D03*
D38*
%TO.P,U6,37,IOB_56*%
%TO.N,/Perifericos/BOT1*%
X151500000Y-122912500D03*
%TO.P,U6,38,IOB_57*%
%TO.N,/Perifericos/BOT2*%
X152000000Y-122912500D03*
%TO.P,U6,39,IOB_61*%
%TO.N,/Perifericos/BOT3*%
X152500000Y-122912500D03*
%TO.P,U6,40,VCC*%
%TO.N,+1V2*%
X153000000Y-122912500D03*
%TO.P,U6,41,IOB_63*%
%TO.N,/Perifericos/BOT4*%
X153500000Y-122912500D03*
%TO.P,U6,42,IOB_64*%
%TO.N,/Perifericos/BOT5*%
X154000000Y-122912500D03*
%TO.P,U6,43,IOB_71*%
%TO.N,/Perifericos/BOT6*%
X154500000Y-122912500D03*
%TO.P,U6,44,IOB_72*%
%TO.N,/Perifericos/BOT7*%
X155000000Y-122912500D03*
%TO.P,U6,45,IOB_73*%
%TO.N,/Perifericos/BOT8*%
X155500000Y-122912500D03*
%TO.P,U6,46,VCCIO_2*%
%TO.N,+3V3*%
X156000000Y-122912500D03*
%TO.P,U6,47,IOB_79*%
%TO.N,unconnected-(U6C-IOB_79-Pad47)*%
X156500000Y-122912500D03*
%TO.P,U6,48,IOB_80*%
%TO.N,unconnected-(U6C-IOB_80-Pad48)*%
X157000000Y-122912500D03*
%TO.P,U6,49,IOB_81_GBIN5*%
%TO.N,Net-(U6C-IOB_81_GBIN5)*%
X157500000Y-122912500D03*
%TO.P,U6,50,NC*%
%TO.N,unconnected-(U6E-NC-Pad50)*%
X158000000Y-122912500D03*
%TO.P,U6,51,NC*%
%TO.N,unconnected-(U6E-NC-Pad51)*%
X158500000Y-122912500D03*
%TO.P,U6,52,IOB_82_GBIN4*%
%TO.N,unconnected-(U6C-IOB_82_GBIN4-Pad52)*%
X159000000Y-122912500D03*
%TO.P,U6,53,GNDPLL0*%
%TO.N,/Memorias y PLL/GNDPLL2*%
X159500000Y-122912500D03*
%TO.P,U6,54,VCCPLL0*%
%TO.N,/Memorias y PLL/VCCPLL2*%
X160000000Y-122912500D03*
%TO.P,U6,55,IOB_91*%
%TO.N,/Perifericos/VUART_Rx*%
X160500000Y-122912500D03*
%TO.P,U6,56,IOB_94*%
%TO.N,/Perifericos/VUART_Tx*%
X161000000Y-122912500D03*
%TO.P,U6,57,VCCIO_2*%
%TO.N,+3V3*%
X161500000Y-122912500D03*
%TO.P,U6,58,NC*%
%TO.N,unconnected-(U6E-NC-Pad58)*%
X162000000Y-122912500D03*
%TO.P,U6,59,GND*%
%TO.N,GND*%
X162500000Y-122912500D03*
%TO.P,U6,60,IOB_95*%
%TO.N,/Perifericos/VUART_RTS*%
X163000000Y-122912500D03*
%TO.P,U6,61,IOB_96*%
%TO.N,/Perifericos/VUART_CTS*%
X163500000Y-122912500D03*
%TO.P,U6,62,IOB_102*%
%TO.N,/Perifericos/VUART_DTR*%
X164000000Y-122912500D03*
%TO.P,U6,63,IOB_103_CBSEL0*%
%TO.N,/Perifericos/VUART_DSR*%
X164500000Y-122912500D03*
%TO.P,U6,64,IOB_104_CBSEL1*%
%TO.N,/Perifericos/VUART_DCD*%
X165000000Y-122912500D03*
%TO.P,U6,65,CDONE*%
%TO.N,Net-(D4-A)*%
X165500000Y-122912500D03*
%TO.P,U6,66,~{CRESET}*%
%TO.N,Net-(U6E-~{CRESET})*%
X166000000Y-122912500D03*
%TO.P,U6,67,IOB_105_SDO*%
%TO.N,Net-(U6E-IOB_105_SDO)*%
X166500000Y-122912500D03*
%TO.P,U6,68,IOB_106_SDI*%
%TO.N,Net-(U6E-IOB_106_SDI)*%
X167000000Y-122912500D03*
%TO.P,U6,69,GND*%
%TO.N,GND*%
X167500000Y-122912500D03*
%TO.P,U6,70,IOB_107_SCK*%
%TO.N,Net-(U6E-IOB_107_SCK)*%
X168000000Y-122912500D03*
%TO.P,U6,71,IOB_108_SS*%
%TO.N,Net-(U6E-IOB_108_SS)*%
X168500000Y-122912500D03*
%TO.P,U6,72,VCC_SPI*%
%TO.N,+3V3*%
X169000000Y-122912500D03*
D37*
%TO.P,U6,73,IOR_109*%
%TO.N,Net-(P3-IO1)*%
X170912500Y-121000000D03*
%TO.P,U6,74,IOR_110*%
%TO.N,Net-(P3-IO2)*%
X170912500Y-120500000D03*
%TO.P,U6,75,IOR_111*%
%TO.N,Net-(P3-IO3)*%
X170912500Y-120000000D03*
%TO.P,U6,76,IOR_112*%
%TO.N,Net-(P3-IO4)*%
X170912500Y-119500000D03*
%TO.P,U6,77,NC*%
%TO.N,unconnected-(U6E-NC-Pad77)*%
X170912500Y-119000000D03*
%TO.P,U6,78,IOR_114*%
%TO.N,Net-(P3-IO5)*%
X170912500Y-118500000D03*
%TO.P,U6,79,IOR_115*%
%TO.N,Net-(P3-IO6)*%
X170912500Y-118000000D03*
%TO.P,U6,80,IOR_116*%
%TO.N,Net-(P3-IO7)*%
X170912500Y-117500000D03*
%TO.P,U6,81,IOR_117*%
%TO.N,Net-(P3-IO8)*%
X170912500Y-117000000D03*
%TO.P,U6,82,IOR_118*%
%TO.N,Net-(P3-IO9)*%
X170912500Y-116500000D03*
%TO.P,U6,83,IOR_119*%
%TO.N,Net-(P3-IO10)*%
X170912500Y-116000000D03*
%TO.P,U6,84,IOR_120*%
%TO.N,Net-(P3-IO11)*%
X170912500Y-115500000D03*
%TO.P,U6,85,IOR_128*%
%TO.N,Net-(P3-IO12)*%
X170912500Y-115000000D03*
%TO.P,U6,86,GND*%
%TO.N,GND*%
X170912500Y-114500000D03*
%TO.P,U6,87,IOR_136*%
%TO.N,Net-(P3-IO13)*%
X170912500Y-114000000D03*
%TO.P,U6,88,IOR_137*%
%TO.N,Net-(P3-IO14)*%
X170912500Y-113500000D03*
%TO.P,U6,89,VCCIO_1*%
%TO.N,+3V3*%
X170912500Y-113000000D03*
%TO.P,U6,90,IOR_138*%
%TO.N,unconnected-(U6B-IOR_138-Pad90)*%
X170912500Y-112500000D03*
%TO.P,U6,91,IOR_139*%
%TO.N,Net-(P4-IO1)*%
X170912500Y-112000000D03*
%TO.P,U6,92,VCC*%
%TO.N,+1V2*%
X170912500Y-111500000D03*
%TO.P,U6,93,IOR_140_GBIN3*%
%TO.N,Net-(P4-IO2)*%
X170912500Y-111000000D03*
%TO.P,U6,94,IOR_141_GBIN2*%
%TO.N,Net-(P4-IO3)*%
X170912500Y-110500000D03*
%TO.P,U6,95,IOR_144*%
%TO.N,Net-(P4-IO4)*%
X170912500Y-110000000D03*
%TO.P,U6,96,IOR_146*%
%TO.N,Net-(P4-IO5)*%
X170912500Y-109500000D03*
%TO.P,U6,97,IOR_147*%
%TO.N,Net-(P4-IO6)*%
X170912500Y-109000000D03*
%TO.P,U6,98,IOR_148*%
%TO.N,Net-(P4-IO7)*%
X170912500Y-108500000D03*
%TO.P,U6,99,IOR_152*%
%TO.N,Net-(P4-IO8)*%
X170912500Y-108000000D03*
%TO.P,U6,100,VCCIO_1*%
%TO.N,+3V3*%
X170912500Y-107500000D03*
%TO.P,U6,101,IOR_160*%
%TO.N,Net-(P4-IO9)*%
X170912500Y-107000000D03*
%TO.P,U6,102,IOR_161*%
%TO.N,Net-(P4-IO10)*%
X170912500Y-106500000D03*
%TO.P,U6,103,GND*%
%TO.N,GND*%
X170912500Y-106000000D03*
%TO.P,U6,104,IOR_164*%
%TO.N,Net-(P4-IO11)*%
X170912500Y-105500000D03*
%TO.P,U6,105,IOR_165*%
%TO.N,Net-(P4-IO12)*%
X170912500Y-105000000D03*
%TO.P,U6,106,IOR_166*%
%TO.N,Net-(P4-IO13)*%
X170912500Y-104500000D03*
%TO.P,U6,107,IOR_167*%
%TO.N,Net-(P4-IO14)*%
X170912500Y-104000000D03*
%TO.P,U6,108,VPP_2V5*%
%TO.N,Net-(D3-K)*%
X170912500Y-103500000D03*
D38*
%TO.P,U6,109,VPP_FAST*%
%TO.N,unconnected-(U6E-VPP_FAST-Pad109)*%
X169000000Y-101587500D03*
%TO.P,U6,110,IOT_168*%
%TO.N,/Perifericos/LED1*%
X168500000Y-101587500D03*
%TO.P,U6,111,VCC*%
%TO.N,+1V2*%
X168000000Y-101587500D03*
%TO.P,U6,112,IOT_169*%
%TO.N,/Perifericos/LED2*%
X167500000Y-101587500D03*
%TO.P,U6,113,IOT_170*%
%TO.N,/Perifericos/LED3*%
X167000000Y-101587500D03*
%TO.P,U6,114,IOT_171*%
%TO.N,/Perifericos/LED4*%
X166500000Y-101587500D03*
%TO.P,U6,115,IOT_172*%
%TO.N,/Perifericos/LED5*%
X166000000Y-101587500D03*
%TO.P,U6,116,IOT_173*%
%TO.N,/Perifericos/LED6*%
X165500000Y-101587500D03*
%TO.P,U6,117,IOT_174*%
%TO.N,/Perifericos/LED7*%
X165000000Y-101587500D03*
%TO.P,U6,118,IOT_177*%
%TO.N,/Perifericos/LED8*%
X164500000Y-101587500D03*
%TO.P,U6,119,IOT_178*%
%TO.N,unconnected-(U6A-IOT_178-Pad119)*%
X164000000Y-101587500D03*
%TO.P,U6,120,IOT_179*%
%TO.N,unconnected-(U6A-IOT_179-Pad120)*%
X163500000Y-101587500D03*
%TO.P,U6,121,IOT_181*%
%TO.N,unconnected-(U6A-IOT_181-Pad121)*%
X163000000Y-101587500D03*
%TO.P,U6,122,IOT_190*%
%TO.N,unconnected-(U6A-IOT_190-Pad122)*%
X162500000Y-101587500D03*
%TO.P,U6,123,VCCIO_0*%
%TO.N,+3V3*%
X162000000Y-101587500D03*
%TO.P,U6,124,IOT_191*%
%TO.N,unconnected-(U6A-IOT_191-Pad124)*%
X161500000Y-101587500D03*
%TO.P,U6,125,IOT_192*%
%TO.N,unconnected-(U6A-IOT_192-Pad125)*%
X161000000Y-101587500D03*
%TO.P,U6,126,VCCPLL1*%
%TO.N,/Memorias y PLL/VCCPLL1*%
X160500000Y-101587500D03*
%TO.P,U6,127,GNDPLL1*%
%TO.N,/Memorias y PLL/GNDPLL1*%
X160000000Y-101587500D03*
%TO.P,U6,128,IOT_197_GBIN1*%
%TO.N,unconnected-(U6A-IOT_197_GBIN1-Pad128)*%
X159500000Y-101587500D03*
%TO.P,U6,129,IOT_198_GBIN0*%
%TO.N,/Perifericos/12MHz_CLK*%
X159000000Y-101587500D03*
%TO.P,U6,130,IOT_206*%
%TO.N,unconnected-(U6A-IOT_206-Pad130)*%
X158500000Y-101587500D03*
%TO.P,U6,131,VCCIO_0*%
%TO.N,+3V3*%
X158000000Y-101587500D03*
%TO.P,U6,132,GND*%
%TO.N,GND*%
X157500000Y-101587500D03*
%TO.P,U6,133,NC*%
%TO.N,unconnected-(U6E-NC-Pad133)*%
X157000000Y-101587500D03*
%TO.P,U6,134,IOT_212*%
%TO.N,unconnected-(U6A-IOT_212-Pad134)*%
X156500000Y-101587500D03*
%TO.P,U6,135,IOT_213*%
%TO.N,unconnected-(U6A-IOT_213-Pad135)*%
X156000000Y-101587500D03*
%TO.P,U6,136,IOT_214*%
%TO.N,unconnected-(U6A-IOT_214-Pad136)*%
X155500000Y-101587500D03*
%TO.P,U6,137,IOT_215*%
%TO.N,unconnected-(U6A-IOT_215-Pad137)*%
X155000000Y-101587500D03*
%TO.P,U6,138,IOT_216*%
%TO.N,unconnected-(U6A-IOT_216-Pad138)*%
X154500000Y-101587500D03*
%TO.P,U6,139,IOT_217*%
%TO.N,unconnected-(U6A-IOT_217-Pad139)*%
X154000000Y-101587500D03*
%TO.P,U6,140,GND*%
%TO.N,GND*%
X153500000Y-101587500D03*
%TO.P,U6,141,IOT_219*%
%TO.N,unconnected-(U6A-IOT_219-Pad141)*%
X153000000Y-101587500D03*
%TO.P,U6,142,IOT_220*%
%TO.N,unconnected-(U6A-IOT_220-Pad142)*%
X152500000Y-101587500D03*
%TO.P,U6,143,IOT_221*%
%TO.N,unconnected-(U6A-IOT_221-Pad143)*%
X152000000Y-101587500D03*
%TO.P,U6,144,IOT_222*%
%TO.N,unconnected-(U6A-IOT_222-Pad144)*%
X151500000Y-101587500D03*
%TD*%
D19*
%TO.P,R12,1*%
%TO.N,+3V3*%
X194633500Y-109347000D03*
%TO.P,R12,2*%
%TO.N,Net-(U5-DO)*%
X191708500Y-109347000D03*
%TD*%
D11*
%TO.P,R18,1*%
%TO.N,/Memorias y PLL/Flash_CS*%
X188210000Y-91440000D03*
%TO.P,R18,2*%
%TO.N,Net-(U6E-IOB_108_SS)*%
X191135000Y-91440000D03*
%TD*%
D12*
%TO.P,C25,1*%
%TO.N,/Memorias y PLL/VCCPLL2*%
X161761500Y-129032000D03*
%TO.P,C25,2*%
%TO.N,/Memorias y PLL/GNDPLL2*%
X158811500Y-129032000D03*
%TD*%
D20*
%TO.P,P4,1,3V3*%
%TO.N,+3V3*%
X219460000Y-113000000D03*
D21*
%TO.P,P4,2,3V3*%
X222000000Y-113000000D03*
%TO.P,P4,3,5V*%
%TO.N,+5V*%
X219460000Y-110460000D03*
%TO.P,P4,4,5V*%
X222000000Y-110460000D03*
%TO.P,P4,5,IO1*%
%TO.N,Net-(P4-IO1)*%
X219460000Y-107920000D03*
%TO.P,P4,6,IO2*%
%TO.N,Net-(P4-IO2)*%
X222000000Y-107920000D03*
%TO.P,P4,7,IO3*%
%TO.N,Net-(P4-IO3)*%
X219460000Y-105380000D03*
%TO.P,P4,8,IO4*%
%TO.N,Net-(P4-IO4)*%
X222000000Y-105380000D03*
%TO.P,P4,9,IO5*%
%TO.N,Net-(P4-IO5)*%
X219460000Y-102840000D03*
%TO.P,P4,10,IO6*%
%TO.N,Net-(P4-IO6)*%
X222000000Y-102840000D03*
%TO.P,P4,11,IO7*%
%TO.N,Net-(P4-IO7)*%
X219460000Y-100300000D03*
%TO.P,P4,12,IO8*%
%TO.N,Net-(P4-IO8)*%
X222000000Y-100300000D03*
%TO.P,P4,13,IO9*%
%TO.N,Net-(P4-IO9)*%
X219460000Y-97760000D03*
%TO.P,P4,14,IO10*%
%TO.N,Net-(P4-IO10)*%
X222000000Y-97760000D03*
%TO.P,P4,15,IO11*%
%TO.N,Net-(P4-IO11)*%
X219460000Y-95220000D03*
%TO.P,P4,16,IO12*%
%TO.N,Net-(P4-IO12)*%
X222000000Y-95220000D03*
%TO.P,P4,17,IO13*%
%TO.N,Net-(P4-IO13)*%
X219460000Y-92680000D03*
%TO.P,P4,18,IO14*%
%TO.N,Net-(P4-IO14)*%
X222000000Y-92680000D03*
%TO.P,P4,19,GND*%
%TO.N,GND*%
X219460000Y-90140000D03*
%TO.P,P4,20,GND*%
X222000000Y-90140000D03*
%TD*%
D19*
%TO.P,R3,1*%
%TO.N,Net-(J1-CC2)*%
X178462500Y-84000000D03*
%TO.P,R3,2*%
%TO.N,GND*%
X175537500Y-84000000D03*
%TD*%
D13*
%TO.P,R45,1*%
%TO.N,Net-(R37-Pad2)*%
X186690000Y-141162500D03*
%TO.P,R45,2*%
%TO.N,/Perifericos/BOT5*%
X186690000Y-138237500D03*
%TD*%
D14*
%TO.P,C44,1*%
%TO.N,+3V3*%
X151000000Y-99312500D03*
%TO.P,C44,2*%
%TO.N,GND*%
X151000000Y-96362500D03*
%TD*%
D22*
%TO.P,C46,1*%
%TO.N,+3V3*%
X173550000Y-109087500D03*
%TO.P,C46,2*%
%TO.N,GND*%
X176500000Y-109087500D03*
%TD*%
D16*
%TO.P,SW1,1,1*%
%TO.N,GND*%
X129400000Y-143250000D03*
%TO.P,SW1,2,2*%
%TO.N,Net-(R33-Pad2)*%
X129400000Y-147750000D03*
%TO.P,SW1,3*%
%TO.N,N/C*%
X138500000Y-143250000D03*
%TO.P,SW1,4*%
X138500000Y-147750000D03*
%TD*%
D39*
%TO.P,U2,1,GND*%
%TO.N,GND*%
X146300000Y-79525000D03*
%TO.P,U2,2,VO*%
%TO.N,Net-(U2-VO)*%
X144000000Y-79525000D03*
D40*
X144000000Y-85825000D03*
D39*
%TO.P,U2,3,VI*%
%TO.N,+3V3*%
X141700000Y-79525000D03*
%TD*%
D22*
%TO.P,C47,1*%
%TO.N,+3V3*%
X173550000Y-114087500D03*
%TO.P,C47,2*%
%TO.N,GND*%
X176500000Y-114087500D03*
%TD*%
D15*
%TO.P,C50,1*%
%TO.N,+3V3*%
X170500000Y-125050000D03*
%TO.P,C50,2*%
%TO.N,GND*%
X170500000Y-128000000D03*
%TD*%
D14*
%TO.P,C1,1*%
%TO.N,Net-(U3-VBUS)*%
X173000000Y-82975000D03*
%TO.P,C1,2*%
%TO.N,GND*%
X173000000Y-80025000D03*
%TD*%
D22*
%TO.P,C15,1*%
%TO.N,+3V3*%
X204265000Y-122326400D03*
%TO.P,C15,2*%
%TO.N,GND*%
X207215000Y-122326400D03*
%TD*%
D11*
%TO.P,R14,1*%
%TO.N,Net-(U6E-~{CRESET})*%
X178521900Y-131165600D03*
%TO.P,R14,2*%
%TO.N,/Memorias y PLL/Flash_RESET*%
X181446900Y-131165600D03*
%TD*%
D41*
%TO.P,TP2,1,1*%
%TO.N,Net-(U4-~{PWREN})*%
X208915000Y-115443000D03*
%TD*%
D22*
%TO.P,C19,1*%
%TO.N,+1V8*%
X203983800Y-126238000D03*
%TO.P,C19,2*%
%TO.N,GND*%
X206933800Y-126238000D03*
%TD*%
D19*
%TO.P,R24,1*%
%TO.N,Net-(D4-A)*%
X177987500Y-122587500D03*
%TO.P,R24,2*%
%TO.N,+3V3*%
X175062500Y-122587500D03*
%TD*%
D26*
%TO.P,D5,1,K*%
%TO.N,GND*%
X220500000Y-75766000D03*
%TO.P,D5,2,A*%
%TO.N,Net-(D5-A)*%
X220500000Y-78666000D03*
%TD*%
D12*
%TO.P,C20,1*%
%TO.N,+1V8*%
X196547000Y-115824000D03*
%TO.P,C20,2*%
%TO.N,GND*%
X193597000Y-115824000D03*
%TD*%
D11*
%TO.P,R13,1*%
%TO.N,+3V3*%
X202565000Y-90043000D03*
%TO.P,R13,2*%
%TO.N,Net-(U6E-~{CRESET})*%
X205490000Y-90043000D03*
%TD*%
D15*
%TO.P,C36,1*%
%TO.N,/Perifericos/BOT3*%
X165354000Y-138225000D03*
%TO.P,C36,2*%
%TO.N,GND*%
X165354000Y-141175000D03*
%TD*%
D26*
%TO.P,D11,1,K*%
%TO.N,GND*%
X196500000Y-75766000D03*
%TO.P,D11,2,A*%
%TO.N,Net-(D11-A)*%
X196500000Y-78666000D03*
%TD*%
D15*
%TO.P,C39,1*%
%TO.N,/Perifericos/BOT6*%
X201295000Y-138225000D03*
%TO.P,C39,2*%
%TO.N,GND*%
X201295000Y-141175000D03*
%TD*%
D23*
%TO.P,FB1,1*%
%TO.N,Net-(U3-VBUS)*%
X170500000Y-82987500D03*
%TO.P,FB1,2*%
%TO.N,+5V*%
X170500000Y-80012500D03*
%TD*%
D13*
%TO.P,R42,1*%
%TO.N,Net-(R34-Pad2)*%
X150749000Y-141162500D03*
%TO.P,R42,2*%
%TO.N,/Perifericos/BOT2*%
X150749000Y-138237500D03*
%TD*%
%TO.P,R31,1*%
%TO.N,/Perifericos/LED7*%
X196500000Y-84178500D03*
%TO.P,R31,2*%
%TO.N,Net-(D11-A)*%
X196500000Y-81253500D03*
%TD*%
D25*
%TO.P,R40,1*%
%TO.N,+3V3*%
X213741000Y-138237500D03*
%TO.P,R40,2*%
%TO.N,Net-(R40-Pad2)*%
X213741000Y-141162500D03*
%TD*%
D13*
%TO.P,R27,1*%
%TO.N,/Perifericos/LED3*%
X212500000Y-84178500D03*
%TO.P,R27,2*%
%TO.N,Net-(D7-A)*%
X212500000Y-81253500D03*
%TD*%
D16*
%TO.P,SW7,1,1*%
%TO.N,GND*%
X201450000Y-143250000D03*
%TO.P,SW7,2,2*%
%TO.N,Net-(R39-Pad2)*%
X201450000Y-147750000D03*
%TO.P,SW7,3*%
%TO.N,N/C*%
X210550000Y-143250000D03*
%TO.P,SW7,4*%
X210550000Y-147750000D03*
%TD*%
D26*
%TO.P,D8,1,K*%
%TO.N,GND*%
X208500000Y-75766000D03*
%TO.P,D8,2,A*%
%TO.N,Net-(D8-A)*%
X208500000Y-78666000D03*
%TD*%
D11*
%TO.P,R7,1*%
%TO.N,+3V3*%
X184973500Y-103378000D03*
%TO.P,R7,2*%
%TO.N,/Memorias y PLL/EEPROM_CLK*%
X187898500Y-103378000D03*
%TD*%
D13*
%TO.P,R26,1*%
%TO.N,/Perifericos/LED2*%
X216500000Y-84178500D03*
%TO.P,R26,2*%
%TO.N,Net-(D6-A)*%
X216500000Y-81253500D03*
%TD*%
D22*
%TO.P,C33,1*%
%TO.N,+1V2*%
X173550000Y-111587500D03*
%TO.P,C33,2*%
%TO.N,GND*%
X176500000Y-111587500D03*
%TD*%
%TO.P,C28,1*%
%TO.N,+3V3*%
X175025000Y-120000000D03*
%TO.P,C28,2*%
%TO.N,GND*%
X177975000Y-120000000D03*
%TD*%
D14*
%TO.P,C41,1*%
%TO.N,/Perifericos/BOT8*%
X216408000Y-136349000D03*
%TO.P,C41,2*%
%TO.N,GND*%
X216408000Y-133399000D03*
%TD*%
D16*
%TO.P,SW8,1,1*%
%TO.N,GND*%
X213450000Y-143250000D03*
%TO.P,SW8,2,2*%
%TO.N,Net-(R40-Pad2)*%
X213450000Y-147750000D03*
%TO.P,SW8,3*%
%TO.N,N/C*%
X222550000Y-143250000D03*
%TO.P,SW8,4*%
X222550000Y-147750000D03*
%TD*%
D25*
%TO.P,R34,1*%
%TO.N,+3V3*%
X148209000Y-138237500D03*
%TO.P,R34,2*%
%TO.N,Net-(R34-Pad2)*%
X148209000Y-141162500D03*
%TD*%
D39*
%TO.P,U1,1,GND*%
%TO.N,GND*%
X161300000Y-77350000D03*
%TO.P,U1,2,VO*%
%TO.N,Net-(U1-VO)*%
X159000000Y-77350000D03*
D40*
X159000000Y-83650000D03*
D39*
%TO.P,U1,3,VI*%
%TO.N,+5V*%
X156700000Y-77350000D03*
%TD*%
D22*
%TO.P,C45,1*%
%TO.N,+3V3*%
X165504600Y-90779600D03*
%TO.P,C45,2*%
%TO.N,GND*%
X168454600Y-90779600D03*
%TD*%
D20*
%TO.P,P2,1,3V3*%
%TO.N,+3V3*%
X133350000Y-116840000D03*
D21*
%TO.P,P2,2,3V3*%
X130810000Y-116840000D03*
%TO.P,P2,3,5V*%
%TO.N,+5V*%
X133350000Y-119380000D03*
%TO.P,P2,4,5V*%
X130810000Y-119380000D03*
%TO.P,P2,5,IO1*%
%TO.N,Net-(P2-IO1)*%
X133350000Y-121920000D03*
%TO.P,P2,6,IO2*%
%TO.N,Net-(P2-IO2)*%
X130810000Y-121920000D03*
%TO.P,P2,7,IO3*%
%TO.N,Net-(P2-IO3)*%
X133350000Y-124460000D03*
%TO.P,P2,8,IO4*%
%TO.N,Net-(P2-IO4)*%
X130810000Y-124460000D03*
%TO.P,P2,9,IO5*%
%TO.N,Net-(P2-IO5)*%
X133350000Y-127000000D03*
%TO.P,P2,10,IO6*%
%TO.N,Net-(P2-IO6)*%
X130810000Y-127000000D03*
%TO.P,P2,11,IO7*%
%TO.N,Net-(P2-IO7)*%
X133350000Y-129540000D03*
%TO.P,P2,12,IO8*%
%TO.N,Net-(P2-IO8)*%
X130810000Y-129540000D03*
%TO.P,P2,13,IO9*%
%TO.N,Net-(P2-IO9)*%
X133350000Y-132080000D03*
%TO.P,P2,14,IO10*%
%TO.N,Net-(P2-IO10)*%
X130810000Y-132080000D03*
%TO.P,P2,15,IO11*%
%TO.N,Net-(P2-IO11)*%
X133350000Y-134620000D03*
%TO.P,P2,16,IO12*%
%TO.N,Net-(P2-IO12)*%
X130810000Y-134620000D03*
%TO.P,P2,17,IO13*%
%TO.N,Net-(P2-IO13)*%
X133350000Y-137160000D03*
%TO.P,P2,18,IO14*%
%TO.N,Net-(P2-IO14)*%
X130810000Y-137160000D03*
%TO.P,P2,19,GND*%
%TO.N,GND*%
X133350000Y-139700000D03*
%TO.P,P2,20,GND*%
X130810000Y-139700000D03*
%TD*%
D11*
%TO.P,R4,1*%
%TO.N,Net-(U2-VO)*%
X135075000Y-80010000D03*
%TO.P,R4,2*%
%TO.N,GND*%
X138000000Y-80010000D03*
%TD*%
%TO.P,R17,1*%
%TO.N,/Memorias y PLL/Flash_SCK*%
X202118500Y-95885000D03*
%TO.P,R17,2*%
%TO.N,Net-(U6E-IOB_107_SCK)*%
X205043500Y-95885000D03*
%TD*%
D12*
%TO.P,C9,1*%
%TO.N,/USB-FTDI/VPHY*%
X187530000Y-119253000D03*
%TO.P,C9,2*%
%TO.N,GND*%
X184580000Y-119253000D03*
%TD*%
D22*
%TO.P,C6,1*%
%TO.N,+3V3*%
X150025000Y-78025000D03*
%TO.P,C6,2*%
%TO.N,GND*%
X152975000Y-78025000D03*
%TD*%
D42*
%TO.N,GND*%
X175500000Y-88000000D03*
X164134800Y-93802200D03*
X139175000Y-80010000D03*
X151000000Y-105650000D03*
X151000000Y-109700000D03*
X162509200Y-121716800D03*
X154500000Y-83500000D03*
X175500000Y-86000000D03*
X167500000Y-113500000D03*
X167500000Y-121650000D03*
X197307200Y-119786400D03*
X170053000Y-90779600D03*
%TO.N,+5V*%
X127500000Y-136500000D03*
%TO.N,+3V3*%
X186182000Y-101346000D03*
X213283800Y-117373400D03*
X190322200Y-89408000D03*
X195326000Y-101092000D03*
X201396600Y-130759200D03*
X179933600Y-89408000D03*
X198374000Y-133451600D03*
X199720200Y-121056400D03*
X199847200Y-115824000D03*
X192786000Y-103350000D03*
X181575000Y-89408000D03*
%TO.N,+1V2*%
X172339000Y-107696000D03*
X143256000Y-121793000D03*
X145542000Y-116347000D03*
X170561000Y-93853000D03*
X143129000Y-103886000D03*
X140208000Y-100330000D03*
X155356800Y-92801200D03*
X179070000Y-107061000D03*
X176022000Y-93853000D03*
%TO.N,Net-(D3-K)*%
X169609416Y-103350000D03*
X174879000Y-103251000D03*
%TO.N,Net-(U6E-~{CRESET})*%
X178435000Y-129271000D03*
X166777443Y-124892368D03*
%TO.N,/Memorias y PLL/Flash_RESET*%
X195616403Y-131352000D03*
X195656200Y-132664200D03*
%TO.N,/Memorias y PLL/Flash_DI*%
X199513003Y-112051000D03*
X193305003Y-120650000D03*
X202438000Y-102708000D03*
X202438000Y-101508000D03*
%TO.N,Net-(U6E-IOB_105_SDO)*%
X183642000Y-100711000D03*
X201168000Y-92583000D03*
X166624000Y-119761000D03*
X166500000Y-121650000D03*
X178054000Y-101473000D03*
X200311552Y-95088000D03*
%TO.N,Net-(U6E-IOB_106_SDI)*%
X182626000Y-99650000D03*
X166751000Y-103378000D03*
X167663104Y-124732343D03*
X167767000Y-120349000D03*
X170434000Y-99822000D03*
X177925158Y-99682265D03*
%TO.N,/Memorias y PLL/Flash_DO*%
X194310000Y-120650000D03*
X200514500Y-112051000D03*
%TO.N,Net-(U6E-IOB_107_SCK)*%
X205105000Y-97282000D03*
X178054000Y-100572997D03*
X170434000Y-100722003D03*
X169037000Y-120142000D03*
X165587765Y-106278765D03*
X207391000Y-95377000D03*
X168641000Y-124500000D03*
X183642000Y-99810997D03*
%TO.N,Net-(P1-IO7)*%
X155000000Y-107650000D03*
%TO.N,/Memorias y PLL/Flash_CS*%
X195326000Y-121208800D03*
X201414503Y-112051000D03*
%TO.N,Net-(U6E-IOB_108_SS)*%
X178460400Y-115316000D03*
X174599600Y-115449000D03*
X191033400Y-92964000D03*
X191033400Y-92964000D03*
X168500000Y-121650000D03*
X179950000Y-93345000D03*
%TO.N,Net-(D4-A)*%
X173000000Y-123500000D03*
X165500000Y-121650000D03*
%TO.N,/Memorias y PLL/Flash_DONE*%
X194716400Y-131352000D03*
X179324000Y-128676400D03*
%TO.N,Net-(P1-IO11)*%
X152000000Y-110350000D03*
%TO.N,Net-(P1-IO14)*%
X160000000Y-112000000D03*
%TO.N,Net-(P1-IO3)*%
X153000000Y-104650000D03*
%TO.N,Net-(P1-IO12)*%
X153000000Y-110850000D03*
%TO.N,Net-(P1-IO8)*%
X154000000Y-108150000D03*
%TO.N,Net-(P1-IO4)*%
X152000000Y-105150000D03*
%TO.N,Net-(P1-IO13)*%
X154000000Y-111350000D03*
%TO.N,/Perifericos/BOT7*%
X207750000Y-136250000D03*
X155000000Y-124500000D03*
%TO.N,/Perifericos/VUART_DTR*%
X207439452Y-131172645D03*
X164541200Y-124714000D03*
%TO.N,Net-(P1-IO1)*%
X155000000Y-103500000D03*
%TO.N,/Perifericos/VUART_DSR*%
X208597500Y-130746500D03*
X164500000Y-121650000D03*
%TO.N,Net-(P1-IO6)*%
X156000000Y-107150000D03*
%TO.N,/Perifericos/12MHz_CLK*%
X182372000Y-102362000D03*
X178941757Y-101620960D03*
%TO.N,Net-(P1-IO5)*%
X157000000Y-106500000D03*
%TO.N,Net-(P1-IO10)*%
X152000000Y-109150000D03*
%TO.N,Net-(P1-IO9)*%
X153000000Y-108650000D03*
%TO.N,Net-(P1-IO2)*%
X154000000Y-104150000D03*
%TO.N,/Perifericos/LED8*%
X192500000Y-85598000D03*
X161250000Y-104250000D03*
%TO.N,Net-(P2-IO13)*%
X153000000Y-119650000D03*
%TO.N,/Perifericos/LED3*%
X212500000Y-85576000D03*
X166250000Y-99250000D03*
%TO.N,Net-(P2-IO11)*%
X155000000Y-118500000D03*
%TO.N,Net-(P2-IO5)*%
X155000000Y-114650000D03*
%TO.N,Net-(P2-IO9)*%
X153000000Y-117000000D03*
%TO.N,/Perifericos/BOT6*%
X154500000Y-121500000D03*
X203500000Y-138250000D03*
%TO.N,Net-(P2-IO14)*%
X152000000Y-120150000D03*
%TO.N,Net-(P2-IO4)*%
X156000000Y-114150000D03*
%TO.N,Net-(P2-IO10)*%
X152000000Y-117650000D03*
%TO.N,Net-(P2-IO3)*%
X157000000Y-113650000D03*
%TO.N,Net-(P2-IO12)*%
X154000000Y-119150000D03*
%TO.N,Net-(P2-IO2)*%
X158000000Y-113150000D03*
%TO.N,Net-(P2-IO6)*%
X154000000Y-115150000D03*
%TO.N,Net-(P2-IO1)*%
X159000000Y-112650000D03*
%TO.N,Net-(P2-IO7)*%
X153000000Y-115650000D03*
%TO.N,Net-(P2-IO8)*%
X152000000Y-116150000D03*
%TO.N,Net-(P3-IO3)*%
X173500000Y-119850000D03*
%TO.N,Net-(P3-IO8)*%
X164500000Y-116850000D03*
%TO.N,Net-(P3-IO11)*%
X167500000Y-115350000D03*
%TO.N,Net-(P3-IO12)*%
X168500000Y-114850000D03*
%TO.N,Net-(P3-IO6)*%
X162500000Y-117850000D03*
%TO.N,Net-(P3-IO4)*%
X172550000Y-119150000D03*
%TO.N,Net-(P3-IO1)*%
X173500000Y-121300000D03*
%TO.N,Net-(P3-IO9)*%
X165500000Y-116350000D03*
%TO.N,Net-(P3-IO13)*%
X167500000Y-112000000D03*
%TO.N,/Perifericos/LED6*%
X200500000Y-85576000D03*
X163728186Y-104228186D03*
%TO.N,Net-(P3-IO10)*%
X166500000Y-115850000D03*
%TO.N,/Perifericos/BOT8*%
X155500000Y-121500000D03*
X214250000Y-136250000D03*
%TO.N,/Perifericos/LED7*%
X162500000Y-104250000D03*
X196500000Y-85598000D03*
%TO.N,Net-(P3-IO14)*%
X168500000Y-112000000D03*
%TO.N,Net-(P3-IO2)*%
X172727506Y-120650000D03*
%TO.N,/Perifericos/LED4*%
X208500000Y-85471000D03*
X165000000Y-99250000D03*
%TO.N,/Perifericos/BOT1*%
X143750000Y-138250000D03*
X151500000Y-121500000D03*
%TO.N,Net-(P3-IO7)*%
X163500000Y-117350000D03*
%TO.N,/Perifericos/LED5*%
X204500000Y-85576000D03*
X165000000Y-104250000D03*
%TO.N,Net-(P3-IO5)*%
X161500000Y-118500000D03*
%TO.N,Net-(P4-IO9)*%
X167000000Y-107000000D03*
%TO.N,/Perifericos/BOT3*%
X167500000Y-138250000D03*
X152500000Y-121500000D03*
%TO.N,/Perifericos/BOT4*%
X179500000Y-138250000D03*
X153500000Y-121500000D03*
%TO.N,Net-(P4-IO5)*%
X166000000Y-109350000D03*
%TO.N,/Perifericos/VUART_DCD*%
X165881553Y-124978307D03*
X210185000Y-130429000D03*
%TO.N,Net-(P4-IO1)*%
X169500000Y-112000000D03*
%TO.N,Net-(P4-IO14)*%
X168735000Y-103850000D03*
%TO.N,Net-(P4-IO11)*%
X168773776Y-106293445D03*
%TO.N,Net-(P4-IO2)*%
X163000000Y-111000000D03*
%TO.N,Net-(P4-IO7)*%
X168000000Y-108350000D03*
%TO.N,Net-(P4-IO8)*%
X169000000Y-107850000D03*
%TO.N,/Perifericos/VUART_Tx*%
X182626000Y-135788400D03*
X202946000Y-135280400D03*
%TO.N,Net-(P4-IO6)*%
X167000000Y-108850000D03*
%TO.N,Net-(P4-IO13)*%
X167073270Y-105887825D03*
%TO.N,Net-(P4-IO4)*%
X165000000Y-109850000D03*
%TO.N,/Perifericos/LED1*%
X169000000Y-99250000D03*
X220500000Y-85449000D03*
%TO.N,Net-(P4-IO3)*%
X164000000Y-110350000D03*
%TO.N,Net-(P4-IO10)*%
X169672000Y-106350000D03*
%TO.N,Net-(P4-IO12)*%
X167873791Y-106299128D03*
%TO.N,/Perifericos/BOT5*%
X191500000Y-138250000D03*
X154000000Y-124500000D03*
%TO.N,/Perifericos/BOT2*%
X152000000Y-124500000D03*
X155500000Y-138250000D03*
%TO.N,/Perifericos/LED2*%
X216500000Y-85449000D03*
X167250000Y-99250000D03*
%TO.N,/Perifericos/VUART_Rx*%
X170152000Y-121843800D03*
X172135800Y-124333000D03*
X161676001Y-121012000D03*
X159918400Y-121564400D03*
%TO.N,/Perifericos/VUART_CTS*%
X207114202Y-132011821D03*
X163500000Y-121650000D03*
%TO.N,/Perifericos/VUART_RTS*%
X205282800Y-132242800D03*
X163000000Y-124500000D03*
%TO.N,/Memorias y PLL/Flash_SCK*%
X192405000Y-120650000D03*
X198755000Y-100711000D03*
X198755000Y-103251000D03*
X198613000Y-112051000D03*
%TO.N,Net-(U4-~{PWREN})*%
X195021200Y-115671600D03*
X197190480Y-113802280D03*
%TO.N,Net-(U7-~{HOLD})*%
X198628000Y-88265000D03*
X197231000Y-93599000D03*
%TD*%
D43*
%TO.N,GND*%
X183871200Y-85000000D02*
X184371200Y-85500000D01*
D44*
X157000000Y-130050000D02*
X155337500Y-131712500D01*
D45*
X172950000Y-77000000D02*
X172950000Y-79975000D01*
D46*
X154500000Y-83500000D02*
X153475000Y-83500000D01*
D44*
X169069240Y-114500000D02*
X170912500Y-114500000D01*
D45*
X130810000Y-113030000D02*
X133350000Y-113030000D01*
X176355000Y-80565000D02*
X176355000Y-76635000D01*
X208500000Y-75766000D02*
X212500000Y-75766000D01*
D44*
X178000000Y-106500000D02*
X177912500Y-106587500D01*
D45*
X175815000Y-80025000D02*
X176355000Y-80565000D01*
D43*
X172500000Y-86937500D02*
X172687500Y-87125000D01*
D44*
X151000000Y-109700000D02*
X150800000Y-109500000D01*
X162500000Y-122912500D02*
X162500000Y-121726000D01*
D45*
X165500000Y-87500000D02*
X165500000Y-82975000D01*
X153289000Y-143089000D02*
X153450000Y-143250000D01*
D46*
X173500000Y-88000000D02*
X175500000Y-88000000D01*
D45*
X200500000Y-75766000D02*
X204500000Y-75766000D01*
D44*
X171649999Y-106000000D02*
X172500000Y-105149999D01*
D45*
X161300000Y-77350000D02*
X163500000Y-79550000D01*
X222550000Y-75766000D02*
X221742000Y-75766000D01*
X218099000Y-116800000D02*
X219500000Y-116800000D01*
X219460000Y-90140000D02*
X222000000Y-90140000D01*
X212500000Y-75766000D02*
X216500000Y-75766000D01*
X165000000Y-88000000D02*
X165500000Y-87500000D01*
X146300000Y-79525000D02*
X146300000Y-81325000D01*
D44*
X197595599Y-119786400D02*
X197307200Y-119786400D01*
D45*
X163500000Y-80975000D02*
X165500000Y-82975000D01*
X173000000Y-80025000D02*
X175815000Y-80025000D01*
X209931000Y-133399000D02*
X211836000Y-133399000D01*
X172950000Y-79975000D02*
X173000000Y-80025000D01*
D44*
X144000000Y-106337500D02*
X144000000Y-108837500D01*
X172500000Y-102500000D02*
X174000000Y-101000000D01*
X151525000Y-129737500D02*
X151525000Y-129050000D01*
X155600000Y-98650000D02*
X157500000Y-100550000D01*
X144025000Y-116337500D02*
X144025000Y-108862500D01*
X189778000Y-124829000D02*
X189778000Y-125329000D01*
X155600000Y-98650000D02*
X155600000Y-98437500D01*
X155600000Y-98437500D02*
X153500000Y-96337500D01*
D46*
X172531250Y-86968750D02*
X172531250Y-87031250D01*
D45*
X196500000Y-75766000D02*
X200500000Y-75766000D01*
D46*
X178275000Y-81140000D02*
X176930000Y-81140000D01*
D44*
X176500000Y-109087500D02*
X176500000Y-106587500D01*
D43*
X181500000Y-83862500D02*
X181500000Y-84500000D01*
D44*
X167500000Y-122912500D02*
X167500000Y-121650000D01*
D47*
X168454600Y-90779600D02*
X170053000Y-90779600D01*
D45*
X148500000Y-87500000D02*
X149000000Y-88000000D01*
X149000000Y-88000000D02*
X165000000Y-88000000D01*
D44*
X167025000Y-129000000D02*
X169500000Y-129000000D01*
D46*
X176930000Y-81140000D02*
X176355000Y-80565000D01*
D44*
X171537500Y-128037500D02*
X174500000Y-128037500D01*
X151000000Y-105650000D02*
X150850000Y-105500000D01*
D45*
X141400000Y-141380000D02*
X141605000Y-141175000D01*
X153289000Y-141175000D02*
X153289000Y-143089000D01*
X176355000Y-76635000D02*
X186595000Y-76635000D01*
X216408000Y-133399000D02*
X216408000Y-118491000D01*
X138000000Y-80010000D02*
X138000000Y-82497500D01*
D47*
X200103000Y-100711000D02*
X200103000Y-98171000D01*
D45*
X225000000Y-78216000D02*
X222550000Y-75766000D01*
D44*
X150700000Y-110000000D02*
X149587500Y-110000000D01*
D45*
X216500000Y-75766000D02*
X220500000Y-75766000D01*
X129400000Y-141110000D02*
X130810000Y-139700000D01*
D43*
X184371200Y-85500000D02*
X186425000Y-85500000D01*
D44*
X144025000Y-116337500D02*
X144025000Y-118812500D01*
D45*
X146300000Y-81325000D02*
X148500000Y-83525000D01*
X172500000Y-86937500D02*
X170937500Y-86937500D01*
X219500000Y-116800000D02*
X222040000Y-116800000D01*
D44*
X176500000Y-114087500D02*
X176500000Y-111587500D01*
D45*
X189450000Y-141268000D02*
X189357000Y-141175000D01*
X187925000Y-84000000D02*
X187925000Y-81895000D01*
D44*
X198203000Y-119178999D02*
X197595599Y-119786400D01*
D43*
X182000000Y-85000000D02*
X183871200Y-85000000D01*
D44*
X198203000Y-118404000D02*
X198203000Y-119178999D01*
D45*
X211836000Y-133399000D02*
X216408000Y-133399000D01*
X130810000Y-139700000D02*
X133350000Y-139700000D01*
X177450000Y-143250000D02*
X177450000Y-141333000D01*
D44*
X148500000Y-96362500D02*
X151000000Y-96362500D01*
X162500000Y-121726000D02*
X162509200Y-121716800D01*
D45*
X204500000Y-75766000D02*
X208500000Y-75766000D01*
X165500000Y-82975000D02*
X168000000Y-82975000D01*
D44*
X156675000Y-129725000D02*
X157000000Y-130050000D01*
D45*
X175537500Y-81382500D02*
X176355000Y-80565000D01*
D46*
X184675000Y-81140000D02*
X186020000Y-81140000D01*
D45*
X165450000Y-143250000D02*
X165450000Y-141271000D01*
D44*
X164525000Y-129000000D02*
X167025000Y-129000000D01*
X153500000Y-131712500D02*
X151525000Y-129737500D01*
D46*
X139175000Y-80010000D02*
X138000000Y-80010000D01*
D45*
X186680000Y-76550000D02*
X186595000Y-76635000D01*
D44*
X171500000Y-128000000D02*
X171537500Y-128037500D01*
X144025000Y-118812500D02*
X144000000Y-118837500D01*
X157500000Y-100550000D02*
X157500000Y-101587500D01*
D45*
X216408000Y-118491000D02*
X218099000Y-116800000D01*
D44*
X153475000Y-96362500D02*
X153500000Y-96337500D01*
D45*
X152975000Y-83000000D02*
X153025000Y-83050000D01*
X129400000Y-143250000D02*
X129400000Y-141110000D01*
D44*
X176500000Y-101000000D02*
X178000000Y-102500000D01*
D45*
X168000000Y-84000000D02*
X168000000Y-82975000D01*
D44*
X150800000Y-109500000D02*
X149587500Y-109500000D01*
D43*
X186425000Y-85500000D02*
X187925000Y-84000000D01*
D45*
X201450000Y-141330000D02*
X201295000Y-141175000D01*
X222450000Y-75766000D02*
X220500000Y-75766000D01*
D44*
X168069240Y-113500000D02*
X169069240Y-114500000D01*
D45*
X225000000Y-87140000D02*
X225000000Y-78216000D01*
D44*
X177912500Y-106587500D02*
X176500000Y-106587500D01*
D46*
X153475000Y-83500000D02*
X153025000Y-83050000D01*
D44*
X170912500Y-106000000D02*
X171649999Y-106000000D01*
D47*
X165500000Y-93837500D02*
X164170100Y-93837500D01*
D44*
X172500000Y-105149999D02*
X172500000Y-102500000D01*
X151000000Y-96362500D02*
X153475000Y-96362500D01*
X176500000Y-111587500D02*
X176500000Y-109087500D01*
D45*
X192500000Y-75766000D02*
X186680000Y-75766000D01*
X189450000Y-143250000D02*
X189450000Y-141268000D01*
X163500000Y-79550000D02*
X163500000Y-80975000D01*
D44*
X167500000Y-113500000D02*
X168069240Y-113500000D01*
D45*
X148500000Y-83525000D02*
X148500000Y-87500000D01*
X138000000Y-82497500D02*
X138037500Y-82535000D01*
D43*
X181500000Y-84500000D02*
X182000000Y-85000000D01*
D47*
X164170100Y-93837500D02*
X164134800Y-93802200D01*
D45*
X175537500Y-84000000D02*
X175537500Y-81382500D01*
X201450000Y-143250000D02*
X201450000Y-141330000D01*
D44*
X170500000Y-128000000D02*
X171500000Y-128000000D01*
D45*
X222000000Y-90140000D02*
X225000000Y-87140000D01*
D44*
X156675000Y-128000000D02*
X156675000Y-129725000D01*
X149587500Y-109500000D02*
X149587500Y-110000000D01*
X177975000Y-117525000D02*
X178000000Y-117500000D01*
D45*
X170937500Y-86937500D02*
X168000000Y-84000000D01*
X152975000Y-80525000D02*
X152975000Y-83000000D01*
D44*
X169500000Y-129000000D02*
X170500000Y-128000000D01*
X144025000Y-108862500D02*
X144000000Y-108837500D01*
X177975000Y-120000000D02*
X177975000Y-117525000D01*
D45*
X177450000Y-141333000D02*
X177292000Y-141175000D01*
D46*
X186020000Y-81140000D02*
X186595000Y-80565000D01*
D45*
X192500000Y-75766000D02*
X196500000Y-75766000D01*
D48*
X153500000Y-143250000D02*
X153450000Y-143250000D01*
D44*
X178000000Y-102500000D02*
X178000000Y-106500000D01*
D45*
X186595000Y-80565000D02*
X186595000Y-76635000D01*
X152975000Y-78025000D02*
X152975000Y-80525000D01*
D43*
X175500000Y-84037500D02*
X175537500Y-84000000D01*
D45*
X187925000Y-81895000D02*
X186595000Y-80565000D01*
D44*
X150850000Y-105500000D02*
X149587500Y-105500000D01*
X174000000Y-101000000D02*
X176500000Y-101000000D01*
D46*
X175500000Y-86000000D02*
X175500000Y-84037500D01*
D45*
X141400000Y-143250000D02*
X141400000Y-141380000D01*
D46*
X172531250Y-87031250D02*
X173500000Y-88000000D01*
X172500000Y-86937500D02*
X172531250Y-86968750D01*
D44*
X155337500Y-131712500D02*
X153500000Y-131712500D01*
D45*
X165450000Y-141271000D02*
X165354000Y-141175000D01*
D44*
X151000000Y-109700000D02*
X150700000Y-110000000D01*
D45*
%TO.N,Net-(U3-VBUS)*%
X171550000Y-84037500D02*
X170500000Y-82987500D01*
D43*
X180000000Y-85000000D02*
X178000000Y-87000000D01*
X182810051Y-79500000D02*
X183875000Y-80564949D01*
X181500000Y-85475001D02*
X181024999Y-85000000D01*
X178540000Y-82500000D02*
X177500000Y-82500000D01*
X180139949Y-79500000D02*
X182810051Y-79500000D01*
D45*
X173450000Y-83425000D02*
X173000000Y-82975000D01*
D43*
X179075000Y-81140000D02*
X179075000Y-81965000D01*
X181024999Y-85000000D02*
X180000000Y-85000000D01*
X174500000Y-87000000D02*
X173450000Y-85950000D01*
D45*
X173450000Y-85062500D02*
X173450000Y-83425000D01*
D43*
X181500000Y-86137500D02*
X181500000Y-85475001D01*
X178000000Y-87000000D02*
X177000000Y-87000000D01*
D45*
X170500000Y-82987500D02*
X172987500Y-82987500D01*
D43*
X183875000Y-80564949D02*
X183875000Y-81140000D01*
X179075000Y-80564949D02*
X180139949Y-79500000D01*
X179075000Y-81965000D02*
X178540000Y-82500000D01*
D45*
X171550000Y-85062500D02*
X171550000Y-84037500D01*
X172987500Y-82987500D02*
X173000000Y-82975000D01*
X171550000Y-85062500D02*
X173450000Y-85062500D01*
D43*
X179075000Y-81140000D02*
X179075000Y-80564949D01*
X177000000Y-87000000D02*
X174500000Y-87000000D01*
X177500000Y-82500000D02*
X177000000Y-83000000D01*
X177000000Y-83000000D02*
X177000000Y-87000000D01*
X173450000Y-85950000D02*
X173450000Y-85062500D01*
D45*
%TO.N,+5V*%
X165500000Y-80025000D02*
X168000000Y-80025000D01*
X127500000Y-79000000D02*
X131250000Y-75250000D01*
X156700000Y-75250000D02*
X165037500Y-75250000D01*
X127500000Y-118610000D02*
X127500000Y-89400000D01*
X168000000Y-80025000D02*
X170487500Y-80025000D01*
X170487500Y-80025000D02*
X170500000Y-80012500D01*
X133350000Y-92710000D02*
X130810000Y-92710000D01*
X165037500Y-77500000D02*
X165037500Y-79562500D01*
X131250000Y-75250000D02*
X156700000Y-75250000D01*
X130810000Y-119380000D02*
X127620000Y-119380000D01*
X219500000Y-137120000D02*
X222040000Y-137120000D01*
X127620000Y-119380000D02*
X127500000Y-119500000D01*
X127500000Y-89400000D02*
X130810000Y-92710000D01*
X219460000Y-110460000D02*
X222000000Y-110460000D01*
X133350000Y-119380000D02*
X130810000Y-119380000D01*
X156700000Y-77350000D02*
X156700000Y-75250000D01*
X165037500Y-79562500D02*
X165500000Y-80025000D01*
X127500000Y-118610000D02*
X127500000Y-136500000D01*
X127500000Y-79000000D02*
X127500000Y-89400000D01*
X165037500Y-75250000D02*
X165037500Y-77500000D01*
%TO.N,Net-(U1-VO)*%
X157675000Y-86000000D02*
X159000000Y-84675000D01*
X159000000Y-84675000D02*
X159000000Y-83650000D01*
X159000000Y-77350000D02*
X159000000Y-83650000D01*
D46*
X153012500Y-86012500D02*
X153025000Y-86000000D01*
D45*
X153025000Y-86000000D02*
X157675000Y-86000000D01*
X150525000Y-86012500D02*
X153012500Y-86012500D01*
D48*
%TO.N,+3V3*%
X176199800Y-119964200D02*
X176164000Y-120000000D01*
D44*
X169373000Y-125050000D02*
X169291000Y-124968000D01*
X198703000Y-131419000D02*
X198703000Y-129754000D01*
D45*
X130810000Y-116840000D02*
X133350000Y-116840000D01*
D44*
X157321801Y-120853200D02*
X156000000Y-122175001D01*
D45*
X149525000Y-77525000D02*
X150025000Y-78025000D01*
D44*
X198321346Y-87651000D02*
X198723346Y-87249000D01*
D47*
X190946500Y-99695000D02*
X193802000Y-99695000D01*
D46*
X145287500Y-120500000D02*
X136000000Y-120500000D01*
D44*
X154996448Y-137000000D02*
X159625000Y-132371448D01*
X210936548Y-86985000D02*
X211582000Y-87630452D01*
X146950000Y-106337500D02*
X147287500Y-106000000D01*
X147787500Y-118000000D02*
X149587500Y-118000000D01*
X168950000Y-126050000D02*
X169291000Y-125709000D01*
D47*
X148500000Y-102850000D02*
X136070800Y-102850000D01*
D48*
X178500216Y-116380478D02*
X179044600Y-116924862D01*
D47*
X193802000Y-99695000D02*
X193802000Y-98962000D01*
D44*
X171011500Y-107401000D02*
X171712112Y-107401000D01*
X173550000Y-106587500D02*
X173550000Y-109087500D01*
D48*
X175000000Y-114598800D02*
X176781678Y-116380478D01*
D44*
X171475400Y-123926600D02*
X172814500Y-122587500D01*
D47*
X208026000Y-92329000D02*
X210379448Y-92329000D01*
D44*
X158272052Y-130183000D02*
X157826000Y-129736948D01*
D46*
X194310000Y-103378000D02*
X195965000Y-103378000D01*
D44*
X198120000Y-132002000D02*
X198703000Y-131419000D01*
X175000000Y-109000000D02*
X173637500Y-109000000D01*
D47*
X173449500Y-137000000D02*
X172212000Y-138237500D01*
X190322200Y-89408000D02*
X192528000Y-89408000D01*
D44*
X174912500Y-114087500D02*
X175000000Y-114000000D01*
X198703000Y-129754000D02*
X198703000Y-128474400D01*
X198723346Y-87249000D02*
X206309952Y-87249000D01*
D48*
X195101000Y-98171000D02*
X194847000Y-97917000D01*
X179044600Y-120550138D02*
X178335138Y-121259600D01*
D45*
X136000000Y-120500000D02*
X136000000Y-137712500D01*
D47*
X208999772Y-132000000D02*
X214500000Y-132000000D01*
D44*
X153111200Y-137000000D02*
X154996448Y-137000000D01*
X181982600Y-130039600D02*
X181982600Y-127917152D01*
X161500000Y-123925000D02*
X161500000Y-122912500D01*
D48*
X176781678Y-116380478D02*
X178500216Y-116380478D01*
D44*
X154050000Y-128325000D02*
X154375000Y-128000000D01*
X181982600Y-127917152D02*
X178026548Y-123961100D01*
D45*
X150025000Y-80525000D02*
X150025000Y-78025000D01*
D44*
X178026548Y-123961100D02*
X176436100Y-123961100D01*
D46*
X199758300Y-123507500D02*
X199809100Y-123507500D01*
D47*
X207518000Y-138237500D02*
X206280500Y-137000000D01*
D44*
X204086600Y-91186000D02*
X202943600Y-90043000D01*
D47*
X147000000Y-95500000D02*
X147000000Y-99000000D01*
D44*
X154375000Y-128000000D02*
X154375000Y-126974600D01*
D45*
X150525000Y-81025000D02*
X150025000Y-80525000D01*
D47*
X201752200Y-137000000D02*
X201752200Y-131114800D01*
D44*
X171901000Y-106934000D02*
X173203500Y-106934000D01*
D47*
X182912500Y-137000000D02*
X173449500Y-137000000D01*
D44*
X151025000Y-99287500D02*
X151000000Y-99312500D01*
D45*
X150525000Y-83037500D02*
X150525000Y-81025000D01*
D47*
X147312500Y-99312500D02*
X148500000Y-99312500D01*
D44*
X147287500Y-106000000D02*
X148500000Y-106000000D01*
D47*
X198704200Y-127685800D02*
X198653400Y-127635000D01*
X215000000Y-117460000D02*
X219460000Y-113000000D01*
X206280500Y-137000000D02*
X206280500Y-135719500D01*
D45*
X136000000Y-91500000D02*
X134670000Y-90170000D01*
D44*
X181483000Y-113628500D02*
X181483000Y-102330346D01*
D47*
X198653400Y-127635000D02*
X198653400Y-125028600D01*
D44*
X154050000Y-130050000D02*
X154050000Y-128325000D01*
D45*
X142000000Y-79225000D02*
X141700000Y-79525000D01*
D44*
X164525000Y-126050000D02*
X163625000Y-126050000D01*
D47*
X207391000Y-93595000D02*
X208411000Y-93595000D01*
X186182000Y-102169500D02*
X186182000Y-101346000D01*
D44*
X173537500Y-106575000D02*
X173550000Y-106587500D01*
D47*
X206280500Y-135719500D02*
X207000000Y-135000000D01*
D44*
X193203000Y-131758600D02*
X193203000Y-129754000D01*
X194285000Y-87651000D02*
X198321346Y-87651000D01*
D48*
X175062500Y-122587500D02*
X175062500Y-120037500D01*
D44*
X159240600Y-130183000D02*
X158272052Y-130183000D01*
X148500000Y-99312500D02*
X148500000Y-102000000D01*
X158000000Y-101587500D02*
X158000000Y-102500000D01*
X172462500Y-113000000D02*
X173550000Y-114087500D01*
D47*
X209931000Y-88392000D02*
X207518000Y-90805000D01*
D44*
X169291000Y-123926600D02*
X171475400Y-123926600D01*
X199618600Y-123698000D02*
X199987600Y-123329000D01*
D47*
X212737500Y-138237500D02*
X212000000Y-137500000D01*
X170974500Y-137000000D02*
X161511500Y-137000000D01*
D44*
X198703000Y-128474400D02*
X198704200Y-128473200D01*
D46*
X198703000Y-127687000D02*
X198704200Y-127685800D01*
D44*
X171712112Y-107401000D02*
X171901000Y-107212112D01*
D47*
X207000000Y-133999772D02*
X208999772Y-132000000D01*
D44*
X202943600Y-90043000D02*
X202565000Y-90043000D01*
D47*
X147000000Y-99000000D02*
X147312500Y-99312500D01*
D44*
X170912500Y-107500000D02*
X171011500Y-107401000D01*
X160178198Y-120853200D02*
X157321801Y-120853200D01*
X209931000Y-88199500D02*
X209931000Y-88392000D01*
X169291000Y-125709000D02*
X169291000Y-124968000D01*
D43*
X206512452Y-87046500D02*
X206573952Y-86985000D01*
D44*
X157826000Y-129736948D02*
X157826000Y-127449000D01*
D47*
X155600000Y-96350000D02*
X157500000Y-96350000D01*
D44*
X161500000Y-122912500D02*
X161500000Y-122175002D01*
D45*
X142500000Y-77525000D02*
X149525000Y-77525000D01*
D46*
X198703000Y-128474400D02*
X198703000Y-127687000D01*
D44*
X173550000Y-114087500D02*
X174912500Y-114087500D01*
D47*
X194056000Y-106430000D02*
X194056000Y-108769500D01*
D44*
X154375000Y-126974600D02*
X154375000Y-126100000D01*
D47*
X185387500Y-137000000D02*
X184150000Y-138237500D01*
X207000000Y-135000000D02*
X207000000Y-133999772D01*
D44*
X170500000Y-125050000D02*
X169373000Y-125050000D01*
X196502700Y-120751600D02*
X198120000Y-120751600D01*
D46*
X194056000Y-106430000D02*
X194056000Y-105918000D01*
D44*
X162000000Y-102286698D02*
X162000000Y-101587500D01*
D48*
X176164000Y-120000000D02*
X175025000Y-120000000D01*
D47*
X153111200Y-137000000D02*
X149446500Y-137000000D01*
X149446500Y-137000000D02*
X148209000Y-138237500D01*
D44*
X175000000Y-113868200D02*
X175000000Y-109000000D01*
X154375000Y-126100000D02*
X154762499Y-126100000D01*
D47*
X214500000Y-132000000D02*
X215000000Y-131500000D01*
D44*
X148500000Y-102000000D02*
X148500000Y-102850000D01*
X198423000Y-115824000D02*
X199847200Y-115824000D01*
X136070800Y-102850000D02*
X136000000Y-102920800D01*
D48*
X179044600Y-116924862D02*
X179044600Y-120550138D01*
D47*
X207000000Y-135000000D02*
X212000000Y-135000000D01*
D44*
X167025000Y-126050000D02*
X164525000Y-126050000D01*
D47*
X194633500Y-109347000D02*
X198286500Y-113000000D01*
D44*
X198374000Y-132256000D02*
X198120000Y-132002000D01*
D45*
X130810000Y-90170000D02*
X129960000Y-89320000D01*
D47*
X179933600Y-89408000D02*
X166876200Y-89408000D01*
D45*
X219460000Y-113000000D02*
X222000000Y-113000000D01*
D44*
X161500000Y-122175002D02*
X160178198Y-120853200D01*
X157826000Y-127449000D02*
X157351600Y-126974600D01*
D47*
X184531000Y-134112000D02*
X185318400Y-134899400D01*
X194056000Y-108769500D02*
X194568000Y-109281500D01*
X165504600Y-90779600D02*
X160045400Y-90779600D01*
D44*
X195703000Y-118404000D02*
X195703000Y-119951900D01*
D47*
X148209000Y-138237500D02*
X146971500Y-137000000D01*
D44*
X161289698Y-102997000D02*
X162000000Y-102286698D01*
D48*
X175025000Y-117525000D02*
X175025000Y-120000000D01*
D47*
X137762500Y-137000000D02*
X136525000Y-138237500D01*
D48*
X175050000Y-117500000D02*
X175025000Y-117525000D01*
D44*
X192528000Y-89408000D02*
X194285000Y-87651000D01*
D47*
X198653400Y-122123200D02*
X198653400Y-125552200D01*
D44*
X195703000Y-119951900D02*
X196502700Y-120751600D01*
X170912500Y-113000000D02*
X172462500Y-113000000D01*
D47*
X194056000Y-103576000D02*
X194282000Y-103350000D01*
D46*
X194056000Y-105918000D02*
X195965000Y-105918000D01*
D44*
X182102346Y-101711000D02*
X183306500Y-101711000D01*
D47*
X192786000Y-103350000D02*
X194282000Y-103350000D01*
X213283800Y-117373400D02*
X214913400Y-117373400D01*
D44*
X206309952Y-87249000D02*
X206512452Y-87046500D01*
X148500000Y-106000000D02*
X148500000Y-102000000D01*
X211582000Y-91948000D02*
X211201000Y-92329000D01*
D47*
X191151500Y-131875000D02*
X189738000Y-133288500D01*
D44*
X172814500Y-122587500D02*
X175062500Y-122587500D01*
D45*
X141700000Y-78325000D02*
X142500000Y-77525000D01*
D44*
X198704200Y-118405200D02*
X198703000Y-118404000D01*
D47*
X202565000Y-90043000D02*
X199644000Y-90043000D01*
X207518000Y-91821000D02*
X208026000Y-92329000D01*
X201752200Y-137000000D02*
X197452500Y-137000000D01*
D44*
X198704200Y-120167400D02*
X198704200Y-118405200D01*
D45*
X134670000Y-90170000D02*
X133350000Y-90170000D01*
D47*
X189484000Y-98232500D02*
X190946500Y-99695000D01*
D43*
X206573952Y-86985000D02*
X210936548Y-86985000D01*
D44*
X173203500Y-106934000D02*
X173550000Y-106587500D01*
D47*
X209296000Y-92710000D02*
X209296000Y-92583000D01*
D44*
X184531000Y-132588000D02*
X181982600Y-130039600D01*
D47*
X159036500Y-137000000D02*
X153111200Y-137000000D01*
X188127100Y-134899400D02*
X189738000Y-133288500D01*
X197153000Y-100711000D02*
X197153000Y-98171000D01*
X215000000Y-118338600D02*
X215000000Y-117460000D01*
D44*
X183306500Y-101711000D02*
X184973500Y-103378000D01*
X156000000Y-122175001D02*
X156000000Y-122912500D01*
D47*
X157500000Y-93325000D02*
X157500000Y-96350000D01*
D45*
X141700000Y-79525000D02*
X141700000Y-78325000D01*
X136000000Y-116500000D02*
X136000000Y-102920800D01*
D47*
X215163500Y-139660000D02*
X219500000Y-139660000D01*
D45*
X135660000Y-116840000D02*
X136000000Y-116500000D01*
D47*
X160045400Y-90779600D02*
X157500000Y-93325000D01*
D44*
X203262400Y-123329000D02*
X204265000Y-122326400D01*
D45*
X132975000Y-77525000D02*
X142500000Y-77525000D01*
D46*
X198653400Y-123672600D02*
X199593200Y-123672600D01*
D48*
X194633500Y-109347000D02*
X194568000Y-109281500D01*
D44*
X154375000Y-126100000D02*
X156000000Y-124475000D01*
X158000000Y-102500000D02*
X158500000Y-103000000D01*
X169291000Y-123203500D02*
X169000000Y-122912500D01*
X198703000Y-118404000D02*
X198703000Y-116104000D01*
D47*
X155600000Y-95600000D02*
X155000000Y-95000000D01*
D45*
X136000000Y-137712500D02*
X136525000Y-138237500D01*
D47*
X197153000Y-98171000D02*
X195101000Y-98171000D01*
X153500000Y-99287500D02*
X151025000Y-99287500D01*
D44*
X211582000Y-87630452D02*
X211582000Y-91948000D01*
X157351600Y-126974600D02*
X154375000Y-126974600D01*
X158500000Y-103000000D02*
X158503000Y-102997000D01*
D47*
X193802000Y-98962000D02*
X194847000Y-97917000D01*
D44*
X173637500Y-109000000D02*
X173550000Y-109087500D01*
D47*
X208411000Y-93595000D02*
X209296000Y-92710000D01*
D44*
X148500000Y-102850000D02*
X158350000Y-102850000D01*
D47*
X201752200Y-131114800D02*
X201396600Y-130759200D01*
D44*
X167025000Y-126050000D02*
X168950000Y-126050000D01*
X163625000Y-126050000D02*
X161500000Y-123925000D01*
D46*
X213741000Y-138237500D02*
X212737500Y-138237500D01*
D44*
X176436100Y-123961100D02*
X175062500Y-122587500D01*
X198120000Y-120751600D02*
X198704200Y-120167400D01*
D47*
X197452500Y-137000000D02*
X196215000Y-138237500D01*
D48*
X175062500Y-120037500D02*
X175025000Y-120000000D01*
D45*
X129960000Y-80540000D02*
X132975000Y-77525000D01*
D44*
X169291000Y-124968000D02*
X169291000Y-123926600D01*
D47*
X155600000Y-96350000D02*
X155600000Y-95600000D01*
X185318400Y-134899400D02*
X188127100Y-134899400D01*
D44*
X146950000Y-118837500D02*
X147787500Y-118000000D01*
D46*
X199593200Y-123672600D02*
X199758300Y-123507500D01*
D47*
X199009000Y-90678000D02*
X199009000Y-91567000D01*
X194056000Y-106430000D02*
X194056000Y-103576000D01*
D44*
X169291000Y-123926600D02*
X169291000Y-123203500D01*
D45*
X136000000Y-116500000D02*
X136000000Y-120500000D01*
D44*
X181483000Y-102330346D02*
X182102346Y-101711000D01*
D47*
X172212000Y-138237500D02*
X170974500Y-137000000D01*
X184592500Y-132649500D02*
X184531000Y-132588000D01*
D44*
X193319400Y-131875000D02*
X193203000Y-131758600D01*
X211201000Y-92329000D02*
X210379448Y-92329000D01*
D47*
X198286500Y-113000000D02*
X219460000Y-113000000D01*
X197153000Y-100711000D02*
X195707000Y-100711000D01*
D44*
X199987600Y-123329000D02*
X201128000Y-123329000D01*
X159625000Y-130567400D02*
X159240600Y-130183000D01*
D48*
X177495200Y-121259600D02*
X176199800Y-119964200D01*
D44*
X146950000Y-108837500D02*
X146950000Y-106337500D01*
D47*
X184150000Y-138237500D02*
X182912500Y-137000000D01*
D48*
X178335138Y-121259600D02*
X177495200Y-121259600D01*
D47*
X155000000Y-95000000D02*
X147500000Y-95000000D01*
D44*
X171901000Y-107212112D02*
X171901000Y-106934000D01*
D47*
X194977500Y-137000000D02*
X185387500Y-137000000D01*
D44*
X173537500Y-103500000D02*
X173537500Y-106575000D01*
D47*
X212000000Y-137500000D02*
X212000000Y-135000000D01*
D45*
X133350000Y-116840000D02*
X135660000Y-116840000D01*
D44*
X158350000Y-102850000D02*
X158500000Y-103000000D01*
X159625000Y-132371448D02*
X159625000Y-130567400D01*
X198703000Y-116104000D02*
X198423000Y-115824000D01*
X201940800Y-123329000D02*
X203262400Y-123329000D01*
D47*
X206280500Y-137000000D02*
X201752200Y-137000000D01*
X198374000Y-133451600D02*
X198374000Y-132256000D01*
X214913400Y-117373400D02*
X215000000Y-117460000D01*
D44*
X207518000Y-90805000D02*
X207518000Y-91186000D01*
D45*
X129960000Y-89320000D02*
X129960000Y-80540000D01*
D46*
X146950000Y-118837500D02*
X145287500Y-120500000D01*
D47*
X196215000Y-138237500D02*
X194977500Y-137000000D01*
X166876200Y-89408000D02*
X165504600Y-90779600D01*
X215000000Y-131500000D02*
X215000000Y-118338600D01*
D44*
X198120000Y-132002000D02*
X194183000Y-132002000D01*
X207518000Y-91186000D02*
X204086600Y-91186000D01*
D47*
X207518000Y-91186000D02*
X207518000Y-91821000D01*
X195707000Y-100711000D02*
X195326000Y-101092000D01*
D48*
X175000000Y-114000000D02*
X175000000Y-114598800D01*
D44*
X162000000Y-100850001D02*
X162000000Y-101587500D01*
X158000000Y-100888302D02*
X158000000Y-101587500D01*
D47*
X146971500Y-137000000D02*
X137762500Y-137000000D01*
X184973500Y-103378000D02*
X186182000Y-102169500D01*
D44*
X194183000Y-132002000D02*
X194056000Y-131875000D01*
X175000000Y-114000000D02*
X175000000Y-113868200D01*
D47*
X199644000Y-90043000D02*
X199009000Y-90678000D01*
X147500000Y-95000000D02*
X147000000Y-95500000D01*
D45*
X219500000Y-139660000D02*
X222040000Y-139660000D01*
D44*
X156000000Y-124475000D02*
X156000000Y-122912500D01*
X148500000Y-106000000D02*
X149587500Y-106000000D01*
D47*
X194056000Y-131875000D02*
X191151500Y-131875000D01*
X184531000Y-132588000D02*
X184531000Y-134112000D01*
X160274000Y-138237500D02*
X159036500Y-137000000D01*
X199542400Y-121234200D02*
X198653400Y-122123200D01*
D45*
X136000000Y-102920800D02*
X136000000Y-91500000D01*
D44*
X184567500Y-116713000D02*
X181483000Y-113628500D01*
D47*
X151000000Y-99312500D02*
X148500000Y-99312500D01*
X161511500Y-137000000D02*
X160274000Y-138237500D01*
D45*
X130810000Y-90170000D02*
X133350000Y-90170000D01*
D44*
X158503000Y-102997000D02*
X161289698Y-102997000D01*
D47*
X213741000Y-138237500D02*
X215163500Y-139660000D01*
D45*
%TO.N,Net-(U2-VO)*%
X144000000Y-79525000D02*
X144000000Y-85825000D01*
X138037500Y-85485000D02*
X134037500Y-85485000D01*
D46*
X136250000Y-83772500D02*
X136250000Y-81185000D01*
D45*
X143675000Y-86150000D02*
X144000000Y-85825000D01*
X138000000Y-85485000D02*
X143675000Y-85485000D01*
D46*
X136250000Y-81185000D02*
X135075000Y-80010000D01*
X134537500Y-85485000D02*
X136250000Y-83772500D01*
D48*
%TO.N,/USB-FTDI/VPHY*%
X189742000Y-121793000D02*
X189778000Y-121829000D01*
X187542500Y-117094000D02*
X187542500Y-122161500D01*
X187530000Y-121793000D02*
X189742000Y-121793000D01*
X187542500Y-122161500D02*
X187530000Y-122174000D01*
D44*
%TO.N,/USB-FTDI/VPLL*%
X186768000Y-127889000D02*
X186768000Y-131850000D01*
X186768000Y-131850000D02*
X187506000Y-132588000D01*
X186768000Y-127889000D02*
X186768000Y-126365000D01*
X186768000Y-126365000D02*
X187784000Y-125349000D01*
D48*
X189778000Y-124329000D02*
X188804000Y-124329000D01*
X188804000Y-124329000D02*
X187784000Y-125349000D01*
D44*
%TO.N,/Memorias y PLL/VCCPLL1*%
X160500000Y-100850001D02*
X160500000Y-101587500D01*
X163450000Y-96337500D02*
X163450000Y-98837500D01*
X162512501Y-98837500D02*
X160500000Y-100850001D01*
X163450000Y-98837500D02*
X162512501Y-98837500D01*
X165500000Y-96337500D02*
X163450000Y-96337500D01*
%TO.N,/Memorias y PLL/GNDPLL1*%
X160500000Y-96337500D02*
X160500000Y-98837500D01*
X160500000Y-98837500D02*
X160000000Y-99337500D01*
X160000000Y-99337500D02*
X160000000Y-101587500D01*
%TO.N,/Memorias y PLL/GNDPLL2*%
X159500000Y-122912500D02*
X159500000Y-125843500D01*
X158800800Y-128275800D02*
X158800800Y-126224200D01*
X158800800Y-126224200D02*
X159025000Y-126000000D01*
X159025000Y-128500000D02*
X158800800Y-128275800D01*
X159500000Y-125843500D02*
X158811500Y-126532000D01*
%TO.N,/Memorias y PLL/VCCPLL2*%
X161798000Y-126177000D02*
X161975000Y-126000000D01*
X161798000Y-130848000D02*
X161798000Y-126177000D01*
X160000000Y-122912500D02*
X160000000Y-124770500D01*
X160000000Y-124770500D02*
X161761500Y-126532000D01*
X161950000Y-131000000D02*
X161798000Y-130848000D01*
D47*
%TO.N,+1V2*%
X144272000Y-103886000D02*
X145415000Y-105029000D01*
X170545500Y-93837500D02*
X170561000Y-93853000D01*
X141351000Y-92801200D02*
X155356800Y-92801200D01*
D44*
X146965500Y-116347000D02*
X146975000Y-116337500D01*
D43*
X168425000Y-96337500D02*
X168425000Y-95575000D01*
D44*
X146975000Y-116337500D02*
X147137500Y-116500000D01*
D47*
X149352000Y-126227000D02*
X149352000Y-128273000D01*
D43*
X168500000Y-96412500D02*
X168425000Y-96337500D01*
D47*
X147563000Y-126100000D02*
X143256000Y-121793000D01*
D46*
X147096500Y-116459000D02*
X147955000Y-116459000D01*
D47*
X151525000Y-126100000D02*
X149479000Y-126100000D01*
D44*
X168000000Y-101587500D02*
X168000000Y-99442000D01*
D46*
X146975000Y-116337500D02*
X147096500Y-116459000D01*
D47*
X157628500Y-132715000D02*
X152527000Y-132715000D01*
D46*
X172339000Y-111500000D02*
X172339000Y-107696000D01*
D47*
X149479000Y-126100000D02*
X147563000Y-126100000D01*
X149352000Y-129540000D02*
X149352000Y-128273000D01*
D45*
X134537500Y-82510000D02*
X132862500Y-82510000D01*
D44*
X147996000Y-116500000D02*
X147955000Y-116459000D01*
X149587500Y-116500000D02*
X147996000Y-116500000D01*
D47*
X145415000Y-114777500D02*
X146975000Y-116337500D01*
X145415000Y-105029000D02*
X145415000Y-114777500D01*
X152527000Y-132715000D02*
X149352000Y-129540000D01*
D44*
X179592757Y-97423757D02*
X178562000Y-96393000D01*
X168000000Y-99442000D02*
X168001000Y-99441000D01*
D45*
X140208000Y-98171000D02*
X140208000Y-92837000D01*
D44*
X179592757Y-102474243D02*
X179592757Y-97423757D01*
D47*
X170561000Y-93853000D02*
X169672000Y-93853000D01*
X143129000Y-103886000D02*
X144272000Y-103886000D01*
D46*
X145542000Y-116347000D02*
X146965500Y-116347000D01*
X168000000Y-98250000D02*
X168001000Y-98251000D01*
D43*
X168450000Y-95550000D02*
X168450000Y-93837500D01*
D47*
X151525000Y-126100000D02*
X153000000Y-124625000D01*
X168450000Y-93837500D02*
X170545500Y-93837500D01*
D45*
X131826000Y-87757000D02*
X131500000Y-87431000D01*
D47*
X158811500Y-131532000D02*
X157628500Y-132715000D01*
D44*
X140208000Y-92837000D02*
X140172200Y-92801200D01*
D46*
X179070000Y-102997000D02*
X179070000Y-103632000D01*
D44*
X149479000Y-126100000D02*
X149352000Y-126227000D01*
D45*
X135128000Y-87757000D02*
X131826000Y-87757000D01*
D44*
X173462500Y-111500000D02*
X173550000Y-111587500D01*
D47*
X168425000Y-96337500D02*
X168425000Y-97825000D01*
X140208000Y-100330000D02*
X140208000Y-98171000D01*
D44*
X153000000Y-124625000D02*
X153000000Y-122912500D01*
D45*
X141351000Y-92801200D02*
X140172200Y-92801200D01*
D44*
X179070000Y-102997000D02*
X179592757Y-102474243D01*
D45*
X131500000Y-83835000D02*
X132825000Y-82510000D01*
X131500000Y-87431000D02*
X131500000Y-83835000D01*
D44*
X172339000Y-111500000D02*
X173462500Y-111500000D01*
D46*
X168001000Y-98251000D02*
X168001000Y-99441000D01*
D45*
X140172200Y-92801200D02*
X135128000Y-87757000D01*
D43*
X168425000Y-95575000D02*
X168450000Y-95550000D01*
D47*
X176022000Y-93853000D02*
X178562000Y-96393000D01*
D44*
X172339000Y-111500000D02*
X170912500Y-111500000D01*
D47*
X168425000Y-97825000D02*
X168000000Y-98250000D01*
X179070000Y-103632000D02*
X179070000Y-107061000D01*
D44*
%TO.N,+1V8*%
X199339200Y-117602000D02*
X199898000Y-117602000D01*
X189003001Y-125829000D02*
X189778000Y-125829000D01*
X188087000Y-129999000D02*
X188087000Y-126745001D01*
X188087000Y-126745001D02*
X189003001Y-125829000D01*
X201793448Y-114554000D02*
X203376000Y-116136552D01*
X199898000Y-117602000D02*
X202487000Y-117602000D01*
X187784000Y-130302000D02*
X188087000Y-129999000D01*
X202487000Y-117602000D02*
X203376000Y-118491000D01*
X203574800Y-125829000D02*
X201940800Y-125829000D01*
X192559888Y-119999000D02*
X195183000Y-119999000D01*
X191703000Y-118404000D02*
X191703000Y-119142112D01*
X199203000Y-118404000D02*
X199203000Y-117738200D01*
X191703000Y-119142112D02*
X192559888Y-119999000D01*
X195183000Y-119999000D02*
X196342000Y-121158000D01*
X196547000Y-115658000D02*
X197651000Y-114554000D01*
X197651000Y-114554000D02*
X201793448Y-114554000D01*
X203376000Y-116136552D02*
X203376000Y-118491000D01*
X199203000Y-120329000D02*
X199203000Y-118404000D01*
X198374000Y-121158000D02*
X199203000Y-120329000D01*
X199203000Y-117738200D02*
X199339200Y-117602000D01*
X203983800Y-126238000D02*
X203574800Y-125829000D01*
X196342000Y-121158000D02*
X198374000Y-121158000D01*
X196547000Y-115824000D02*
X196547000Y-115658000D01*
%TO.N,Net-(D3-K)*%
X176500000Y-103500000D02*
X176512500Y-103500000D01*
X174879000Y-103251000D02*
X176251000Y-103251000D01*
X176251000Y-103251000D02*
X176500000Y-103500000D01*
X170912500Y-103500000D02*
X169885000Y-103500000D01*
X169885000Y-103500000D02*
X169735000Y-103350000D01*
D43*
%TO.N,Net-(J1-CC1)*%
X184437500Y-84000000D02*
X182725000Y-82287500D01*
X185000000Y-84000000D02*
X184437500Y-84000000D01*
X182725000Y-82287500D02*
X182725000Y-81140000D01*
D46*
%TO.N,Net-(D2-A)*%
X169550000Y-77500000D02*
X170050000Y-77000000D01*
X167962500Y-77500000D02*
X169550000Y-77500000D01*
D43*
%TO.N,Net-(J1-CC2)*%
X178462500Y-84000000D02*
X179725000Y-82737500D01*
X179725000Y-82737500D02*
X179725000Y-81140000D01*
D48*
%TO.N,Net-(U4-REF)*%
X191352000Y-122029999D02*
X190552999Y-122829000D01*
X191352000Y-118544900D02*
X191352000Y-122029999D01*
X190093600Y-117286500D02*
X191352000Y-118544900D01*
X190552999Y-122829000D02*
X189778000Y-122829000D01*
D44*
%TO.N,Net-(U4-~{RESET})*%
X188488000Y-129113500D02*
X188488000Y-127254000D01*
X189738000Y-130363500D02*
X188488000Y-129113500D01*
X188488000Y-127254000D02*
X188913000Y-126829000D01*
X188913000Y-126829000D02*
X189778000Y-126829000D01*
%TO.N,/Memorias y PLL/EEPROM_CLK*%
X190040001Y-104648000D02*
X191015000Y-104648000D01*
X192703000Y-118404000D02*
X192703000Y-117629001D01*
X189907048Y-112522000D02*
X189865000Y-112522000D01*
X191015000Y-104648000D02*
X189168500Y-104648000D01*
X189357000Y-105331001D02*
X190040001Y-104648000D01*
X189865000Y-112522000D02*
X189357000Y-112014000D01*
X191897000Y-114511952D02*
X189907048Y-112522000D01*
X189357000Y-112014000D02*
X189357000Y-105331001D01*
X192703000Y-117629001D02*
X191897000Y-116823001D01*
X189168500Y-104648000D02*
X187898500Y-103378000D01*
X191897000Y-116823001D02*
X191897000Y-114511952D01*
D48*
%TO.N,/Memorias y PLL/EEPROM_CS*%
X192203000Y-118404000D02*
X192203000Y-117625389D01*
X191015000Y-103378000D02*
X190295000Y-103378000D01*
D44*
X187085000Y-104408000D02*
X187452000Y-104775000D01*
X187452000Y-104775000D02*
X187833000Y-105156000D01*
X188468000Y-105156000D02*
X188849000Y-105537000D01*
X187085000Y-102538552D02*
X187085000Y-104408000D01*
X187371552Y-102252000D02*
X187085000Y-102538552D01*
X189484000Y-102252000D02*
X187371552Y-102252000D01*
D48*
X192203000Y-117625389D02*
X190782611Y-116205000D01*
X189484000Y-101157500D02*
X189484000Y-102252000D01*
D44*
X188849000Y-114946612D02*
X190107388Y-116205000D01*
X190107388Y-116205000D02*
X190754000Y-116205000D01*
D48*
X190782611Y-116205000D02*
X190754000Y-116205000D01*
X191015000Y-103378000D02*
X190373000Y-103378000D01*
D44*
X188849000Y-112522000D02*
X188849000Y-114946612D01*
X188849000Y-105918000D02*
X188849000Y-112522000D01*
X191015000Y-103378000D02*
X189889000Y-102252000D01*
X187833000Y-105156000D02*
X188468000Y-105156000D01*
X189889000Y-102252000D02*
X189484000Y-102252000D01*
X188849000Y-105537000D02*
X188849000Y-105918000D01*
D48*
%TO.N,Net-(U5-DO)*%
X191708500Y-109347000D02*
X191266000Y-108904500D01*
X191708500Y-109789500D02*
X191708500Y-109347000D01*
X194060000Y-112141000D02*
X191708500Y-109789500D01*
X191266000Y-108904500D02*
X191266000Y-107439000D01*
X191266000Y-107439000D02*
X191015000Y-107188000D01*
X194695000Y-112141000D02*
X194060000Y-112141000D01*
D44*
%TO.N,/Memorias y PLL/EEPROM_DATA*%
X192332500Y-112703500D02*
X192332500Y-116691401D01*
D48*
X191770000Y-112141000D02*
X191901000Y-112141000D01*
D44*
X193203000Y-117561901D02*
X193203000Y-118404000D01*
D48*
X189738000Y-110109000D02*
X189738000Y-111633000D01*
X190123000Y-105918000D02*
X189742000Y-106299000D01*
X191015000Y-105918000D02*
X190123000Y-105918000D01*
D44*
X192332500Y-116691401D02*
X193203000Y-117561901D01*
X191770000Y-112141000D02*
X192332500Y-112703500D01*
D48*
X190246000Y-112141000D02*
X191770000Y-112141000D01*
X189742000Y-110105000D02*
X189738000Y-110109000D01*
X189738000Y-111633000D02*
X190246000Y-112141000D01*
X189742000Y-106299000D02*
X189742000Y-110105000D01*
D44*
%TO.N,Net-(U6E-~{CRESET})*%
X166000000Y-124043127D02*
X166000000Y-122912500D01*
X178435000Y-129271000D02*
X178435000Y-131078700D01*
X166777443Y-124820570D02*
X166000000Y-124043127D01*
X178435000Y-131078700D02*
X178521900Y-131165600D01*
X166777443Y-124892368D02*
X166777443Y-124820570D01*
%TO.N,/Memorias y PLL/Flash_RESET*%
X181446900Y-132040600D02*
X185220100Y-135813800D01*
X195203000Y-130938597D02*
X195616403Y-131352000D01*
X185220100Y-135813800D02*
X194411600Y-135813800D01*
X194411600Y-135813800D02*
X194995800Y-135229600D01*
X181446900Y-131165600D02*
X181446900Y-132040600D01*
X195203000Y-129754000D02*
X195203000Y-130938597D01*
X195616403Y-131352000D02*
X195622200Y-131352000D01*
X194995800Y-135229600D02*
X194995800Y-133527800D01*
X195656200Y-132867400D02*
X195656200Y-132664200D01*
X194995800Y-133527800D02*
X195656200Y-132867400D01*
%TO.N,/Memorias y PLL/Flash_DI*%
X191703000Y-129754000D02*
X191703000Y-128591000D01*
X200279000Y-102997000D02*
X202149000Y-102997000D01*
X193305003Y-120670651D02*
X192436654Y-121539000D01*
X204901448Y-94090000D02*
X205897000Y-95085552D01*
X191703000Y-128591000D02*
X192278000Y-128016000D01*
X199263000Y-104013000D02*
X200279000Y-102997000D01*
X199263000Y-111800997D02*
X199263000Y-104013000D01*
X203200000Y-92964000D02*
X204326000Y-94090000D01*
X202372500Y-92964000D02*
X203200000Y-92964000D01*
X202530000Y-101600000D02*
X202438000Y-101508000D01*
X206121000Y-97663000D02*
X206121000Y-100330000D01*
X204326000Y-94090000D02*
X204901448Y-94090000D01*
X205897000Y-97439000D02*
X206121000Y-97663000D01*
X199513003Y-112051000D02*
X199263000Y-111800997D01*
X192278000Y-128016000D02*
X192278000Y-121697654D01*
X205897000Y-95085552D02*
X205897000Y-97439000D01*
X193305003Y-120650000D02*
X193305003Y-120670651D01*
X202149000Y-102997000D02*
X202438000Y-102708000D01*
X206121000Y-100330000D02*
X204851000Y-101600000D01*
X204851000Y-101600000D02*
X202530000Y-101600000D01*
X192278000Y-121697654D02*
X192436654Y-121539000D01*
%TO.N,Net-(U6E-IOB_105_SDO)*%
X202116552Y-91567000D02*
X201168000Y-92515552D01*
D48*
X160040000Y-117641100D02*
X161437000Y-116244100D01*
X169359057Y-102749000D02*
X169856943Y-102749000D01*
X206248000Y-93914500D02*
X205297500Y-92964000D01*
X160714100Y-119888000D02*
X160040000Y-119213900D01*
X192532000Y-102108000D02*
X205105000Y-102108000D01*
X171435900Y-102997000D02*
X173848900Y-100584000D01*
X206502000Y-100711000D02*
X206502000Y-97536000D01*
X206248000Y-97282000D02*
X206248000Y-93914500D01*
X190627000Y-100203000D02*
X192532000Y-102108000D01*
X160040000Y-119213900D02*
X160040000Y-117641100D01*
X164512000Y-106677678D02*
X164512000Y-106506000D01*
D44*
X200311552Y-95088000D02*
X200311552Y-95471448D01*
D48*
X166497000Y-119888000D02*
X160714100Y-119888000D01*
X166500000Y-122912500D02*
X166500000Y-121650000D01*
X169111057Y-102997000D02*
X169359057Y-102749000D01*
X161437000Y-116244100D02*
X161437000Y-109752678D01*
D44*
X201168000Y-92515552D02*
X201168000Y-92583000D01*
D48*
X205105000Y-102108000D02*
X206502000Y-100711000D01*
D44*
X200311552Y-95471448D02*
X200025000Y-95758000D01*
D48*
X177165000Y-100584000D02*
X178054000Y-101473000D01*
D44*
X200025000Y-95758000D02*
X198882000Y-95758000D01*
X203900500Y-91567000D02*
X202116552Y-91567000D01*
X205297500Y-92964000D02*
X203900500Y-91567000D01*
D48*
X168021000Y-102997000D02*
X169111057Y-102997000D01*
X183642000Y-100711000D02*
X184658000Y-100711000D01*
X206502000Y-97536000D02*
X206248000Y-97282000D01*
X161437000Y-109752678D02*
X164512000Y-106677678D01*
X170104943Y-102997000D02*
X171435900Y-102997000D01*
X164512000Y-106506000D02*
X168021000Y-102997000D01*
X184658000Y-100711000D02*
X185166000Y-100203000D01*
X185166000Y-100203000D02*
X190627000Y-100203000D01*
X166624000Y-119761000D02*
X166497000Y-119888000D01*
X169856943Y-102749000D02*
X170104943Y-102997000D01*
X173848900Y-100584000D02*
X177165000Y-100584000D01*
%TO.N,Net-(U6E-IOB_106_SDI)*%
X192786000Y-93218000D02*
X193932000Y-93218000D01*
X167607543Y-124732343D02*
X167000000Y-124124800D01*
X167663104Y-124732343D02*
X167607543Y-124732343D01*
X166751000Y-103632000D02*
X166751000Y-103378000D01*
X161136000Y-109628000D02*
X164211000Y-106553000D01*
X164211000Y-106553000D02*
X164211000Y-106172000D01*
X161136000Y-115978000D02*
X161136000Y-109628000D01*
X159639000Y-119380000D02*
X159639000Y-117475000D01*
X167767000Y-120349000D02*
X167704000Y-120412000D01*
X182798000Y-99650000D02*
X186309000Y-96139000D01*
X191516000Y-94488000D02*
X192786000Y-93218000D01*
X182626000Y-99650000D02*
X182798000Y-99650000D01*
X164211000Y-106172000D02*
X166751000Y-103632000D01*
X177785423Y-99822000D02*
X177925158Y-99682265D01*
X189865000Y-96139000D02*
X191516000Y-94488000D01*
X186309000Y-96139000D02*
X189865000Y-96139000D01*
X167704000Y-120412000D02*
X160671000Y-120412000D01*
X170434000Y-99822000D02*
X177785423Y-99822000D01*
X159639000Y-117475000D02*
X161136000Y-115978000D01*
X167000000Y-124124800D02*
X167000000Y-122912500D01*
X160671000Y-120412000D02*
X159639000Y-119380000D01*
D44*
%TO.N,/Memorias y PLL/Flash_DO*%
X192785001Y-128397000D02*
X192786000Y-128397000D01*
X210770448Y-86584000D02*
X210745448Y-86609000D01*
X206143852Y-86848000D02*
X198557246Y-86848000D01*
X211102648Y-86584000D02*
X210770448Y-86584000D01*
X199771000Y-104267000D02*
X200533000Y-103505000D01*
X198156246Y-87249000D02*
X190271400Y-87249000D01*
X199771000Y-111162000D02*
X199771000Y-104267000D01*
X210745448Y-86609000D02*
X206418208Y-86609000D01*
X192786000Y-122174000D02*
X192786000Y-122301000D01*
X198557246Y-86848000D02*
X198156246Y-87249000D01*
X211983000Y-95726388D02*
X211983000Y-87464352D01*
X200533000Y-103505000D02*
X204204388Y-103505000D01*
X189636400Y-94335600D02*
X189484000Y-94488000D01*
X206381708Y-86645500D02*
X206346352Y-86645500D01*
X194310000Y-120650000D02*
X192786000Y-122174000D01*
X190271400Y-87249000D02*
X189636400Y-87884000D01*
X200514500Y-111905500D02*
X199771000Y-111162000D01*
X200514500Y-112051000D02*
X200514500Y-111905500D01*
X189636400Y-87884000D02*
X189636400Y-94335600D01*
X192203000Y-129754000D02*
X192203000Y-128979001D01*
X192203000Y-128979001D02*
X192785001Y-128397000D01*
X204204388Y-103505000D02*
X211983000Y-95726388D01*
X206418208Y-86609000D02*
X206381708Y-86645500D01*
X206346352Y-86645500D02*
X206143852Y-86848000D01*
X189484000Y-94488000D02*
X188591000Y-94488000D01*
X211983000Y-87464352D02*
X211102648Y-86584000D01*
X192786000Y-128397000D02*
X192786000Y-122301000D01*
D48*
%TO.N,Net-(U6E-IOB_107_SCK)*%
X160655000Y-118872000D02*
X160655000Y-117602000D01*
X166209000Y-119160000D02*
X165989000Y-119380000D01*
X164498000Y-107155000D02*
X165374235Y-106278765D01*
X186805997Y-96647000D02*
X195748001Y-96647000D01*
X161163000Y-119380000D02*
X160655000Y-118872000D01*
X165374235Y-106278765D02*
X165587765Y-106278765D01*
X195748001Y-96647000D02*
X197907001Y-94488000D01*
X161738000Y-109915000D02*
X164498000Y-107155000D01*
X165989000Y-119380000D02*
X161163000Y-119380000D01*
X168641000Y-124500000D02*
X168350000Y-124500000D01*
X168000000Y-124150000D02*
X168000000Y-122912500D01*
X177764003Y-100283000D02*
X178054000Y-100572997D01*
X205105000Y-95946500D02*
X203646500Y-94488000D01*
X168055000Y-119160000D02*
X166209000Y-119160000D01*
X169037000Y-120142000D02*
X168055000Y-119160000D01*
X168350000Y-124500000D02*
X168000000Y-124150000D01*
X161738000Y-116368778D02*
X161738000Y-109915000D01*
X205105000Y-97282000D02*
X205105000Y-95946500D01*
X207391000Y-95377000D02*
X207391000Y-96520000D01*
X203646500Y-94488000D02*
X198882000Y-94488000D01*
X197907001Y-94488000D02*
X198882000Y-94488000D01*
X170434000Y-100722003D02*
X170873003Y-100283000D01*
X160655000Y-117602000D02*
X161671000Y-116586000D01*
X170873003Y-100283000D02*
X177764003Y-100283000D01*
X161671000Y-116435778D02*
X161738000Y-116368778D01*
X183642000Y-99810997D02*
X186805997Y-96647000D01*
X161671000Y-116586000D02*
X161671000Y-116435778D01*
D44*
%TO.N,Net-(P1-IO7)*%
X154850000Y-107500000D02*
X149587500Y-107500000D01*
X155000000Y-107650000D02*
X154850000Y-107500000D01*
%TO.N,/Memorias y PLL/Flash_CS*%
X189026800Y-87477600D02*
X189026800Y-90623200D01*
X195326000Y-121208800D02*
X194767200Y-121208800D01*
X189026800Y-90623200D02*
X188210000Y-91440000D01*
X200406000Y-110998000D02*
X200406000Y-104394000D01*
X205740000Y-86447000D02*
X198033000Y-86447000D01*
X189763400Y-86741000D02*
X189026800Y-87477600D01*
X207899000Y-86208000D02*
X205979000Y-86208000D01*
X207924000Y-86183000D02*
X207899000Y-86208000D01*
X211278000Y-86183000D02*
X207924000Y-86183000D01*
X204343000Y-104013000D02*
X212471000Y-95885000D01*
X212471000Y-95885000D02*
X212471000Y-87376000D01*
X200787000Y-104013000D02*
X204343000Y-104013000D01*
X200406000Y-104394000D02*
X200787000Y-104013000D01*
X193703000Y-128806000D02*
X193703000Y-129754000D01*
X193294000Y-122682000D02*
X193294000Y-128397000D01*
X197739000Y-86741000D02*
X189763400Y-86741000D01*
X193294000Y-128397000D02*
X193703000Y-128806000D01*
X194767200Y-121208800D02*
X193294000Y-122682000D01*
X201414503Y-112006503D02*
X200406000Y-110998000D01*
X205979000Y-86208000D02*
X205740000Y-86447000D01*
X198033000Y-86447000D02*
X197739000Y-86741000D01*
X212471000Y-87376000D02*
X211278000Y-86183000D01*
X201414503Y-112051000D02*
X201414503Y-112006503D01*
X188210000Y-91440000D02*
X188315600Y-91440000D01*
%TO.N,Net-(U6E-IOB_108_SS)*%
X193932000Y-91310000D02*
X193932000Y-91948000D01*
X168500000Y-122912500D02*
X168500000Y-121650000D01*
D48*
X174599600Y-116255800D02*
X174101000Y-116754400D01*
X169903057Y-122444800D02*
X169108257Y-121650000D01*
D44*
X192659000Y-91948000D02*
X193932000Y-91948000D01*
D48*
X170944743Y-121901000D02*
X170400943Y-122444800D01*
D44*
X195453000Y-89408000D02*
X195453000Y-89789000D01*
D48*
X170400943Y-122444800D02*
X169903057Y-122444800D01*
D44*
X195453000Y-89789000D02*
X193932000Y-91310000D01*
D48*
X174599600Y-115449000D02*
X174599600Y-116255800D01*
X173748943Y-121901000D02*
X170944743Y-121901000D01*
X180111400Y-93506400D02*
X180111400Y-114909600D01*
X178460400Y-115316000D02*
X179705000Y-115316000D01*
X174101000Y-116754400D02*
X174101000Y-121548943D01*
X174101000Y-121548943D02*
X173748943Y-121901000D01*
X179950000Y-93345000D02*
X180111400Y-93506400D01*
D44*
X192151000Y-91440000D02*
X192659000Y-91948000D01*
X191135000Y-91440000D02*
X192151000Y-91440000D01*
D48*
X191033400Y-91541600D02*
X191135000Y-91440000D01*
X191033400Y-92964000D02*
X191033400Y-91541600D01*
X179705000Y-115316000D02*
X180111400Y-114909600D01*
X169108257Y-121650000D02*
X168500000Y-121650000D01*
D44*
%TO.N,Net-(D4-A)*%
X174500000Y-125000000D02*
X173000000Y-123500000D01*
X174500000Y-125137500D02*
X174500000Y-125000000D01*
X177450000Y-125137500D02*
X177500000Y-125087500D01*
X174500000Y-125137500D02*
X177450000Y-125137500D01*
X165500000Y-122912500D02*
X165500000Y-121650000D01*
%TO.N,/Memorias y PLL/Flash_DONE*%
X194716400Y-130542399D02*
X194703000Y-130528999D01*
X179324000Y-128676400D02*
X178660100Y-128012500D01*
X194716400Y-131352000D02*
X194716400Y-130542399D01*
X194703000Y-130528999D02*
X194703000Y-129754000D01*
X178660100Y-128012500D02*
X177500000Y-128012500D01*
D48*
%TO.N,Net-(J1-D+-PadA6)*%
X180550000Y-83862500D02*
X180725000Y-83687500D01*
D43*
X180725000Y-83687500D02*
X180725000Y-81140000D01*
X181725000Y-80315000D02*
X181725000Y-81140000D01*
X181410000Y-80000000D02*
X181725000Y-80315000D01*
X181040000Y-80000000D02*
X181410000Y-80000000D01*
X180725000Y-80315000D02*
X181040000Y-80000000D01*
X180725000Y-81140000D02*
X180725000Y-80315000D01*
D48*
%TO.N,/Power Supply/D+*%
X188590499Y-123804000D02*
X183429802Y-123804000D01*
X188615499Y-123829000D02*
X188590499Y-123804000D01*
X183429802Y-123804000D02*
X180550000Y-120924198D01*
X189778000Y-123829000D02*
X188615499Y-123829000D01*
X180550000Y-120924198D02*
X180550000Y-86137500D01*
D43*
%TO.N,Net-(J1-D--PadA7)*%
X181500000Y-82500000D02*
X182225000Y-82500000D01*
X182225000Y-83637500D02*
X182225000Y-81140000D01*
X181225000Y-82225000D02*
X181500000Y-82500000D01*
D48*
X182450000Y-83862500D02*
X182225000Y-83637500D01*
D43*
X181225000Y-81140000D02*
X181225000Y-82225000D01*
X182225000Y-82500000D02*
X182225000Y-81140000D01*
D48*
%TO.N,/Power Supply/D-*%
X180975000Y-88606251D02*
X182450000Y-87131251D01*
X188590499Y-123354000D02*
X183616198Y-123354000D01*
X182450000Y-87131251D02*
X182450000Y-86137500D01*
X189778000Y-123329000D02*
X188615499Y-123329000D01*
X183616198Y-123354000D02*
X180975000Y-120712802D01*
X180975000Y-120712802D02*
X180975000Y-88606251D01*
X189828000Y-123279000D02*
X189778000Y-123329000D01*
X188615499Y-123329000D02*
X188590499Y-123354000D01*
D44*
%TO.N,Net-(P1-IO11)*%
X152000000Y-110350000D02*
X151850000Y-110500000D01*
X151850000Y-110500000D02*
X149587500Y-110500000D01*
%TO.N,Net-(P1-IO14)*%
X160000000Y-112000000D02*
X149587500Y-112000000D01*
%TO.N,Net-(P1-IO3)*%
X153000000Y-104650000D02*
X152850000Y-104500000D01*
X152850000Y-104500000D02*
X149587500Y-104500000D01*
%TO.N,Net-(P1-IO12)*%
X153000000Y-110850000D02*
X152850000Y-111000000D01*
X152850000Y-111000000D02*
X149587500Y-111000000D01*
%TO.N,Net-(P1-IO8)*%
X153850000Y-108000000D02*
X149587500Y-108000000D01*
X154000000Y-108150000D02*
X153850000Y-108000000D01*
%TO.N,Net-(P1-IO4)*%
X151850000Y-105000000D02*
X149587500Y-105000000D01*
X152000000Y-105150000D02*
X151850000Y-105000000D01*
%TO.N,Net-(P1-IO13)*%
X154000000Y-111350000D02*
X153850000Y-111500000D01*
X153850000Y-111500000D02*
X149587500Y-111500000D01*
D46*
%TO.N,/Perifericos/BOT7*%
X209931000Y-136349000D02*
X207849000Y-136349000D01*
D44*
X155000000Y-122912500D02*
X155000000Y-124500000D01*
D46*
X209931000Y-138237500D02*
X209931000Y-136349000D01*
X207849000Y-136349000D02*
X207750000Y-136250000D01*
D44*
%TO.N,/Perifericos/VUART_DTR*%
X203725552Y-121175400D02*
X203439000Y-121461952D01*
X203195300Y-122829000D02*
X201940800Y-122829000D01*
X205841600Y-121742200D02*
X205274800Y-121175400D01*
X206064800Y-130499800D02*
X206064800Y-124480250D01*
X203439000Y-121461952D02*
X203439000Y-122585300D01*
X206064800Y-124480250D02*
X205841600Y-124257050D01*
X203439000Y-122585300D02*
X203195300Y-122829000D01*
X206737645Y-131172645D02*
X206064800Y-130499800D01*
X207439452Y-131172645D02*
X206737645Y-131172645D01*
X164000000Y-124172800D02*
X164541200Y-124714000D01*
X205841600Y-124257050D02*
X205841600Y-121742200D01*
X205274800Y-121175400D02*
X203725552Y-121175400D01*
X164000000Y-122912500D02*
X164000000Y-124172800D01*
%TO.N,Net-(P1-IO1)*%
X149587500Y-103500000D02*
X155000000Y-103500000D01*
%TO.N,/Perifericos/VUART_DSR*%
X164500000Y-122912500D02*
X164500000Y-121650000D01*
X202833912Y-122174000D02*
X202819000Y-122174000D01*
X202819000Y-122174000D02*
X202664000Y-122329000D01*
X208457800Y-130606800D02*
X208457800Y-121878752D01*
X202996800Y-121011112D02*
X202996800Y-122011112D01*
X203233512Y-120774400D02*
X202996800Y-121011112D01*
X208457800Y-121878752D02*
X207353448Y-120774400D01*
X202996800Y-122011112D02*
X202833912Y-122174000D01*
X208597500Y-130746500D02*
X208457800Y-130606800D01*
X202664000Y-122329000D02*
X201128000Y-122329000D01*
X207353448Y-120774400D02*
X203233512Y-120774400D01*
%TO.N,Net-(P1-IO6)*%
X156000000Y-107150000D02*
X155850000Y-107000000D01*
X155850000Y-107000000D02*
X149587500Y-107000000D01*
%TO.N,/Perifericos/12MHz_CLK*%
X178836960Y-101620960D02*
X178816000Y-101600000D01*
X159029400Y-94056200D02*
X159029400Y-97120600D01*
X189828000Y-120879000D02*
X189778000Y-120829000D01*
X189778000Y-120829000D02*
X189110598Y-120829000D01*
X178816000Y-101600000D02*
X178816000Y-98247200D01*
X189110598Y-120829000D02*
X188722000Y-120440402D01*
X182118000Y-108712000D02*
X182118000Y-102616000D01*
X159029400Y-97120600D02*
X157500000Y-98650000D01*
X161010600Y-92075000D02*
X159029400Y-94056200D01*
X172643800Y-92075000D02*
X161010600Y-92075000D01*
X182118000Y-102616000D02*
X182372000Y-102362000D01*
X188722000Y-115316000D02*
X182118000Y-108712000D01*
X178816000Y-98247200D02*
X172643800Y-92075000D01*
X157500000Y-98650000D02*
X159000000Y-100150000D01*
X178941757Y-101620960D02*
X178836960Y-101620960D01*
X159000000Y-100150000D02*
X159000000Y-101587500D01*
X188722000Y-120440402D02*
X188722000Y-115316000D01*
%TO.N,Net-(P1-IO5)*%
X149587500Y-106500000D02*
X157000000Y-106500000D01*
%TO.N,Net-(P1-IO10)*%
X152000000Y-109150000D02*
X151850000Y-109000000D01*
X151850000Y-109000000D02*
X149587500Y-109000000D01*
%TO.N,Net-(P1-IO9)*%
X153000000Y-108650000D02*
X152850000Y-108500000D01*
X152850000Y-108500000D02*
X149587500Y-108500000D01*
%TO.N,Net-(P1-IO2)*%
X154000000Y-104150000D02*
X153850000Y-104000000D01*
X153850000Y-104000000D02*
X149587500Y-104000000D01*
%TO.N,/Perifericos/LED8*%
X164036698Y-102750000D02*
X164500000Y-102286698D01*
X161250000Y-104250000D02*
X161250000Y-103750000D01*
D48*
X192500000Y-84178500D02*
X192500000Y-85598000D01*
D44*
X162250000Y-102750000D02*
X164036698Y-102750000D01*
X161250000Y-103750000D02*
X162250000Y-102750000D01*
X164500000Y-102286698D02*
X164500000Y-101587500D01*
%TO.N,Net-(P2-IO13)*%
X152850000Y-119500000D02*
X153000000Y-119650000D01*
X149587500Y-119500000D02*
X152850000Y-119500000D01*
%TO.N,/Perifericos/LED3*%
X167000000Y-101587500D02*
X167000000Y-100000000D01*
X167000000Y-100000000D02*
X166250000Y-99250000D01*
D48*
X212500000Y-84178500D02*
X212500000Y-85576000D01*
D44*
%TO.N,Net-(P2-IO11)*%
X149587500Y-118500000D02*
X155000000Y-118500000D01*
%TO.N,Net-(P2-IO5)*%
X149587500Y-114500000D02*
X154850000Y-114500000D01*
X154850000Y-114500000D02*
X155000000Y-114650000D01*
%TO.N,Net-(P2-IO9)*%
X149587500Y-117000000D02*
X153000000Y-117000000D01*
D46*
%TO.N,/Perifericos/BOT6*%
X203475000Y-138225000D02*
X203500000Y-138250000D01*
X201282500Y-138237500D02*
X201295000Y-138225000D01*
X201295000Y-138225000D02*
X203475000Y-138225000D01*
D44*
X154500000Y-122912500D02*
X154500000Y-121500000D01*
D46*
X198755000Y-138237500D02*
X201282500Y-138237500D01*
D44*
%TO.N,Net-(P2-IO14)*%
X151850000Y-120000000D02*
X152000000Y-120150000D01*
X149587500Y-120000000D02*
X151850000Y-120000000D01*
%TO.N,Net-(P2-IO4)*%
X155850000Y-114000000D02*
X156000000Y-114150000D01*
X149587500Y-114000000D02*
X155850000Y-114000000D01*
%TO.N,Net-(P2-IO10)*%
X149587500Y-117500000D02*
X151850000Y-117500000D01*
X151850000Y-117500000D02*
X152000000Y-117650000D01*
%TO.N,Net-(P2-IO3)*%
X156850000Y-113500000D02*
X157000000Y-113650000D01*
X149587500Y-113500000D02*
X156850000Y-113500000D01*
%TO.N,Net-(P2-IO12)*%
X149587500Y-119000000D02*
X153850000Y-119000000D01*
X153850000Y-119000000D02*
X154000000Y-119150000D01*
%TO.N,Net-(P2-IO2)*%
X149587500Y-113000000D02*
X157850000Y-113000000D01*
X157850000Y-113000000D02*
X158000000Y-113150000D01*
%TO.N,Net-(P2-IO6)*%
X153850000Y-115000000D02*
X154000000Y-115150000D01*
X149587500Y-115000000D02*
X153850000Y-115000000D01*
%TO.N,Net-(P2-IO1)*%
X158850000Y-112500000D02*
X159000000Y-112650000D01*
X149587500Y-112500000D02*
X158850000Y-112500000D01*
%TO.N,Net-(P2-IO7)*%
X149587500Y-115500000D02*
X152850000Y-115500000D01*
X152850000Y-115500000D02*
X153000000Y-115650000D01*
%TO.N,Net-(P2-IO8)*%
X151850000Y-116000000D02*
X152000000Y-116150000D01*
X149587500Y-116000000D02*
X151850000Y-116000000D01*
%TO.N,Net-(P3-IO3)*%
X173500000Y-119850000D02*
X173350000Y-120000000D01*
X173350000Y-120000000D02*
X170912500Y-120000000D01*
%TO.N,Net-(P3-IO8)*%
X164650000Y-117000000D02*
X170912500Y-117000000D01*
X164500000Y-116850000D02*
X164650000Y-117000000D01*
%TO.N,Net-(P3-IO11)*%
X167650000Y-115500000D02*
X170912500Y-115500000D01*
X167500000Y-115350000D02*
X167650000Y-115500000D01*
%TO.N,Net-(P3-IO12)*%
X168650000Y-115000000D02*
X170912500Y-115000000D01*
X168500000Y-114850000D02*
X168650000Y-115000000D01*
%TO.N,Net-(P3-IO6)*%
X162650000Y-118000000D02*
X170912500Y-118000000D01*
X162500000Y-117850000D02*
X162650000Y-118000000D01*
%TO.N,Net-(P3-IO4)*%
X172550000Y-119150000D02*
X172200000Y-119500000D01*
X172200000Y-119500000D02*
X170912500Y-119500000D01*
%TO.N,Net-(P3-IO1)*%
X172000000Y-121000000D02*
X172500000Y-121500000D01*
X170912500Y-121000000D02*
X172000000Y-121000000D01*
X172500000Y-121500000D02*
X173300000Y-121500000D01*
X173300000Y-121500000D02*
X173500000Y-121300000D01*
%TO.N,Net-(P3-IO9)*%
X165650000Y-116500000D02*
X170912500Y-116500000D01*
X165500000Y-116350000D02*
X165650000Y-116500000D01*
%TO.N,Net-(P3-IO13)*%
X169500000Y-114000000D02*
X170912500Y-114000000D01*
X167500000Y-112000000D02*
X169500000Y-114000000D01*
%TO.N,/Perifericos/LED6*%
X165500000Y-102456371D02*
X165500000Y-101587500D01*
X163728186Y-104228186D02*
X163728186Y-104228185D01*
D48*
X200500000Y-84178500D02*
X200500000Y-85576000D01*
D44*
X163728186Y-104228185D02*
X165500000Y-102456371D01*
%TO.N,Net-(P3-IO10)*%
X166650000Y-116000000D02*
X170912500Y-116000000D01*
X166500000Y-115850000D02*
X166650000Y-116000000D01*
D46*
%TO.N,/Perifericos/BOT8*%
X216408000Y-136349000D02*
X214349000Y-136349000D01*
X216408000Y-138237500D02*
X216408000Y-136349000D01*
D44*
X155500000Y-122912500D02*
X155500000Y-121500000D01*
D46*
X214349000Y-136349000D02*
X214250000Y-136250000D01*
D48*
%TO.N,/Perifericos/LED7*%
X196500000Y-84178500D02*
X196500000Y-85598000D01*
D44*
X164102384Y-103250000D02*
X165000000Y-102352384D01*
X165000000Y-102352384D02*
X165000000Y-101587500D01*
X162500000Y-103500000D02*
X162750000Y-103250000D01*
X162500000Y-104250000D02*
X162500000Y-103500000D01*
X162750000Y-103250000D02*
X164102384Y-103250000D01*
%TO.N,Net-(P3-IO14)*%
X168500000Y-112000000D02*
X170000000Y-113500000D01*
X170000000Y-113500000D02*
X170912500Y-113500000D01*
%TO.N,Net-(P3-IO2)*%
X172577506Y-120500000D02*
X170912500Y-120500000D01*
X172727506Y-120650000D02*
X172577506Y-120500000D01*
D48*
%TO.N,/Perifericos/LED4*%
X208500000Y-84178500D02*
X208500000Y-85471000D01*
D44*
X166500000Y-101587500D02*
X166500000Y-100750000D01*
X166500000Y-100750000D02*
X165000000Y-99250000D01*
D46*
%TO.N,/Perifericos/BOT1*%
X143725000Y-138225000D02*
X143750000Y-138250000D01*
X139065000Y-138237500D02*
X141592500Y-138237500D01*
X141605000Y-138225000D02*
X143725000Y-138225000D01*
X141592500Y-138237500D02*
X141605000Y-138225000D01*
D44*
X151500000Y-122912500D02*
X151500000Y-121500000D01*
%TO.N,Net-(P3-IO7)*%
X163650000Y-117500000D02*
X170912500Y-117500000D01*
X163500000Y-117350000D02*
X163650000Y-117500000D01*
%TO.N,/Perifericos/LED5*%
X166000000Y-103250000D02*
X166000000Y-101587500D01*
D48*
X204500000Y-84178500D02*
X204500000Y-85576000D01*
D44*
X165000000Y-104250000D02*
X166000000Y-103250000D01*
%TO.N,Net-(P3-IO5)*%
X170912500Y-118500000D02*
X161500000Y-118500000D01*
%TO.N,Net-(P4-IO9)*%
X170912500Y-107000000D02*
X167000000Y-107000000D01*
%TO.N,/Perifericos/BOT3*%
X152500000Y-122912500D02*
X152500000Y-121500000D01*
D46*
X162814000Y-138237500D02*
X165341500Y-138237500D01*
X167475000Y-138225000D02*
X167500000Y-138250000D01*
X165341500Y-138237500D02*
X165354000Y-138225000D01*
X165354000Y-138225000D02*
X167475000Y-138225000D01*
D44*
%TO.N,/Perifericos/BOT4*%
X153500000Y-122912500D02*
X153500000Y-121500000D01*
D46*
X174752000Y-138237500D02*
X177279500Y-138237500D01*
X177279500Y-138237500D02*
X177292000Y-138225000D01*
X177292000Y-138225000D02*
X179475000Y-138225000D01*
X179475000Y-138225000D02*
X179500000Y-138250000D01*
D44*
%TO.N,Net-(P4-IO5)*%
X166000000Y-109350000D02*
X166150000Y-109500000D01*
X166150000Y-109500000D02*
X170912500Y-109500000D01*
%TO.N,/Perifericos/VUART_DCD*%
X165881553Y-124978307D02*
X165881553Y-124888906D01*
X202565000Y-121412000D02*
X202148000Y-121829000D01*
X165881553Y-124888906D02*
X165000000Y-124007353D01*
X202148000Y-121829000D02*
X201128000Y-121829000D01*
X210185000Y-130429000D02*
X209219800Y-129463800D01*
X209219800Y-122073652D02*
X207519548Y-120373400D01*
X165000000Y-124007353D02*
X165000000Y-122912500D01*
X203067412Y-120373400D02*
X202565000Y-120875812D01*
X207519548Y-120373400D02*
X203067412Y-120373400D01*
X202565000Y-120875812D02*
X202565000Y-121412000D01*
X209219800Y-129463800D02*
X209219800Y-122073652D01*
%TO.N,Net-(P4-IO1)*%
X170912500Y-112000000D02*
X169500000Y-112000000D01*
%TO.N,Net-(P4-IO14)*%
X170912500Y-104000000D02*
X168885000Y-104000000D01*
X168885000Y-104000000D02*
X168735000Y-103850000D01*
%TO.N,Net-(P4-IO11)*%
X168773776Y-106293445D02*
X168773776Y-105913224D01*
X168773776Y-105913224D02*
X169187000Y-105500000D01*
X169187000Y-105500000D02*
X170912500Y-105500000D01*
%TO.N,Net-(P4-IO2)*%
X170912500Y-111000000D02*
X163000000Y-111000000D01*
%TO.N,Net-(P4-IO7)*%
X168150000Y-108500000D02*
X170912500Y-108500000D01*
X168000000Y-108350000D02*
X168150000Y-108500000D01*
%TO.N,Net-(P4-IO8)*%
X169000000Y-107850000D02*
X169150000Y-108000000D01*
X169150000Y-108000000D02*
X170912500Y-108000000D01*
%TO.N,/Perifericos/VUART_Tx*%
X204089000Y-128143000D02*
X204809800Y-127422200D01*
X204809800Y-127422200D02*
X204809800Y-125373552D01*
X204265248Y-124829000D02*
X201940800Y-124829000D01*
X204809800Y-125373552D02*
X204265248Y-124829000D01*
X161000000Y-124080052D02*
X163144200Y-126224252D01*
X202946000Y-135280400D02*
X203301600Y-135280400D01*
X204089000Y-134493000D02*
X204089000Y-128143000D01*
X179730400Y-132892800D02*
X182626000Y-135788400D01*
X161000000Y-122912500D02*
X161000000Y-124080052D01*
X163144200Y-126224252D02*
X163144200Y-132892800D01*
X163144200Y-132892800D02*
X179730400Y-132892800D01*
X203301600Y-135280400D02*
X204089000Y-134493000D01*
%TO.N,Net-(P4-IO6)*%
X167000000Y-108850000D02*
X167150000Y-109000000D01*
X167150000Y-109000000D02*
X170912500Y-109000000D01*
%TO.N,Net-(P4-IO13)*%
X167073270Y-105311730D02*
X167073270Y-105887825D01*
X170912500Y-104500000D02*
X167885000Y-104500000D01*
X167885000Y-104500000D02*
X167073270Y-105311730D01*
%TO.N,Net-(P4-IO4)*%
X165000000Y-109850000D02*
X165150000Y-110000000D01*
X165150000Y-110000000D02*
X170912500Y-110000000D01*
%TO.N,/Perifericos/LED1*%
X169000000Y-99250000D02*
X168500000Y-99750000D01*
X168500000Y-99750000D02*
X168500000Y-101587500D01*
D48*
X220500000Y-84178500D02*
X220500000Y-85449000D01*
D44*
%TO.N,Net-(P4-IO3)*%
X164150000Y-110500000D02*
X170912500Y-110500000D01*
X164000000Y-110350000D02*
X164150000Y-110500000D01*
%TO.N,Net-(P4-IO10)*%
X169672000Y-106350000D02*
X169822000Y-106500000D01*
X169822000Y-106500000D02*
X170912500Y-106500000D01*
%TO.N,Net-(P4-IO12)*%
X168414403Y-105000000D02*
X170912500Y-105000000D01*
X167873791Y-105540612D02*
X168414403Y-105000000D01*
X167873791Y-106299128D02*
X167873791Y-105540612D01*
D46*
%TO.N,/Perifericos/BOT5*%
X186690000Y-138237500D02*
X189344500Y-138237500D01*
D44*
X154000000Y-122912500D02*
X154000000Y-124500000D01*
D46*
X189357000Y-138225000D02*
X191475000Y-138225000D01*
X191475000Y-138225000D02*
X191500000Y-138250000D01*
X189344500Y-138237500D02*
X189357000Y-138225000D01*
D44*
%TO.N,/Perifericos/BOT2*%
X152000000Y-122912500D02*
X152000000Y-124500000D01*
D46*
X150749000Y-138237500D02*
X153276500Y-138237500D01*
X155475000Y-138225000D02*
X155500000Y-138250000D01*
X153276500Y-138237500D02*
X153289000Y-138225000D01*
X153289000Y-138225000D02*
X155475000Y-138225000D01*
D44*
%TO.N,/Perifericos/LED2*%
X167250000Y-99250000D02*
X167500000Y-99500000D01*
D48*
X216500000Y-84178500D02*
X216500000Y-85449000D01*
D44*
X167500000Y-99500000D02*
X167500000Y-101587500D01*
%TO.N,Net-(D5-A)*%
X220500000Y-81253500D02*
X220500000Y-78666000D01*
%TO.N,/Perifericos/VUART_Rx*%
X198882000Y-136220200D02*
X199771000Y-135331200D01*
X184556400Y-136220200D02*
X198882000Y-136220200D01*
X170050400Y-121742200D02*
X170050400Y-121666000D01*
X180187600Y-131851400D02*
X184556400Y-136220200D01*
X173099000Y-125296200D02*
X173099000Y-126288500D01*
X170050400Y-121666000D02*
X169383400Y-120999000D01*
X199771000Y-125831600D02*
X200273600Y-125329000D01*
X173099000Y-126288500D02*
X178676000Y-126288500D01*
X159918400Y-121564400D02*
X160080760Y-121726760D01*
X170152000Y-121843800D02*
X170050400Y-121742200D01*
X199771000Y-135331200D02*
X199771000Y-125831600D01*
X201128000Y-125329000D02*
X200353001Y-125329000D01*
X160080760Y-121726760D02*
X160080760Y-121755761D01*
X200273600Y-125329000D02*
X201128000Y-125329000D01*
X172135800Y-124333000D02*
X173099000Y-125296200D01*
X169383400Y-120999000D02*
X161676001Y-120999000D01*
X160500000Y-122175001D02*
X160500000Y-122912500D01*
X180187600Y-127800100D02*
X180187600Y-131851400D01*
X178676000Y-126288500D02*
X180187600Y-127800100D01*
X160080760Y-121755761D02*
X160500000Y-122175001D01*
%TO.N,/Perifericos/VUART_CTS*%
X204846450Y-123829000D02*
X201940800Y-123829000D01*
X205611800Y-131443800D02*
X205611800Y-124594350D01*
X163500000Y-122912500D02*
X163500000Y-121650000D01*
X205611800Y-124594350D02*
X204846450Y-123829000D01*
X207114202Y-132011821D02*
X206179821Y-132011821D01*
X206179821Y-132011821D02*
X205611800Y-131443800D01*
%TO.N,/Perifericos/VUART_RTS*%
X205210800Y-125023000D02*
X205210800Y-132170800D01*
X205210800Y-132170800D02*
X205282800Y-132242800D01*
X201940800Y-124329000D02*
X204516800Y-124329000D01*
X204516800Y-124329000D02*
X205210800Y-125023000D01*
X163000000Y-122912500D02*
X163000000Y-124500000D01*
X205282800Y-132242800D02*
X205374000Y-132242800D01*
%TO.N,Net-(D6-A)*%
X216500000Y-81253500D02*
X216500000Y-78666000D01*
%TO.N,Net-(D7-A)*%
X212500000Y-81253500D02*
X212500000Y-78666000D01*
%TO.N,Net-(D8-A)*%
X208500000Y-81253500D02*
X208500000Y-78666000D01*
%TO.N,Net-(D9-A)*%
X204500000Y-81253500D02*
X204500000Y-78666000D01*
D48*
%TO.N,/Memorias y PLL/Flash_SCK*%
X200406000Y-95885000D02*
X202118500Y-95885000D01*
D44*
X191195000Y-127829000D02*
X189778000Y-127829000D01*
D48*
X198755000Y-97536000D02*
X200406000Y-95885000D01*
D44*
X198755000Y-111909000D02*
X198755000Y-103251000D01*
X191770000Y-121285000D02*
X191770000Y-127254000D01*
X192405000Y-120650000D02*
X191770000Y-121285000D01*
D48*
X198755000Y-100711000D02*
X198755000Y-97536000D01*
D44*
X198613000Y-112051000D02*
X198755000Y-111909000D01*
X191770000Y-127254000D02*
X191195000Y-127829000D01*
%TO.N,Net-(U4-~{PWREN})*%
X197205600Y-113817400D02*
X207289400Y-113817400D01*
X197190480Y-113802280D02*
X197205600Y-113817400D01*
X193703000Y-117408448D02*
X193703000Y-118404000D01*
X195021200Y-115671600D02*
X195021200Y-116090248D01*
X195021200Y-116090248D02*
X193703000Y-117408448D01*
X207289400Y-113817400D02*
X208915000Y-115443000D01*
%TO.N,Net-(D10-A)*%
X200500000Y-81253500D02*
X200500000Y-78666000D01*
%TO.N,Net-(D11-A)*%
X196500000Y-81253500D02*
X196500000Y-78666000D01*
%TO.N,Net-(D12-A)*%
X192500000Y-81253500D02*
X192500000Y-78666000D01*
D46*
%TO.N,Net-(R33-Pad2)*%
X129937500Y-147750000D02*
X129400000Y-147750000D01*
X136525000Y-141162500D02*
X129937500Y-147750000D01*
X136525000Y-141162500D02*
X139065000Y-141162500D01*
%TO.N,Net-(R34-Pad2)*%
X141621500Y-147750000D02*
X141400000Y-147750000D01*
X148209000Y-141162500D02*
X141621500Y-147750000D01*
X148209000Y-141162500D02*
X150749000Y-141162500D01*
%TO.N,Net-(R35-Pad2)*%
X160274000Y-141162500D02*
X162814000Y-141162500D01*
X153686500Y-147750000D02*
X153450000Y-147750000D01*
X160274000Y-141162500D02*
X153686500Y-147750000D01*
%TO.N,Net-(R36-Pad2)*%
X165624500Y-147750000D02*
X165450000Y-147750000D01*
X172212000Y-141162500D02*
X174752000Y-141162500D01*
X172212000Y-141162500D02*
X165624500Y-147750000D01*
%TO.N,Net-(R37-Pad2)*%
X184150000Y-141162500D02*
X177562500Y-147750000D01*
X177562500Y-147750000D02*
X177450000Y-147750000D01*
X184150000Y-141162500D02*
X186690000Y-141162500D01*
%TO.N,Net-(R38-Pad2)*%
X198755000Y-141162500D02*
X196215000Y-141162500D01*
X189627500Y-147750000D02*
X189450000Y-147750000D01*
X196215000Y-141162500D02*
X189627500Y-147750000D01*
%TO.N,Net-(R39-Pad2)*%
X207518000Y-141162500D02*
X201450000Y-147230500D01*
X207518000Y-141162500D02*
X209931000Y-141162500D01*
X201450000Y-147230500D02*
X201450000Y-147750000D01*
%TO.N,Net-(R40-Pad2)*%
X216408000Y-141162500D02*
X216408000Y-144792000D01*
X216408000Y-144792000D02*
X213450000Y-147750000D01*
X213741000Y-141162500D02*
X216408000Y-141162500D01*
D44*
%TO.N,Net-(U6C-IOB_81_GBIN5)*%
X157500000Y-125275000D02*
X157500000Y-122912500D01*
X156675000Y-126100000D02*
X157500000Y-125275000D01*
%TO.N,Net-(U7-~{WP})*%
X197485000Y-90932000D02*
X197485000Y-92202000D01*
X197485000Y-92202000D02*
X195199000Y-94488000D01*
X207518000Y-88261000D02*
X200156000Y-88261000D01*
X200156000Y-88261000D02*
X197485000Y-90932000D01*
X195199000Y-94488000D02*
X193932000Y-94488000D01*
%TO.N,Net-(U7-~{HOLD})*%
X199136000Y-87757000D02*
X206392000Y-87757000D01*
X210770448Y-87386000D02*
X211057000Y-87672552D01*
X209042000Y-87386000D02*
X210770448Y-87386000D01*
X206392000Y-87757000D02*
X206392000Y-87734052D01*
X198628000Y-88265000D02*
X199136000Y-87757000D01*
X206392000Y-87734052D02*
X206678552Y-87447500D01*
X198501000Y-93599000D02*
X198882000Y-93218000D01*
X206678552Y-87447500D02*
X208980500Y-87447500D01*
X211057000Y-87672552D02*
X211057000Y-89998500D01*
X208980500Y-87447500D02*
X209042000Y-87386000D01*
X197231000Y-93599000D02*
X198501000Y-93599000D01*
X211057000Y-89998500D02*
X209931000Y-91124500D01*
%TD*%
M02*
