%TF.GenerationSoftware,KiCad,Pcbnew,9.0.4*%
%TF.CreationDate,2025-10-20T22:36:39-03:00*%
%TF.ProjectId,fpga-utn,66706761-2d75-4746-9e2e-6b696361645f,rev?*%
%TF.SameCoordinates,Original*%
%TF.FileFunction,Soldermask,Bot*%
%TF.FilePolarity,Negative*%
%FSLAX46Y46*%
G04 Gerber Fmt 4.6, Leading zero omitted, Abs format (unit mm)*
G04 Created by KiCad (PCBNEW 9.0.4) date 2025-10-20 22:36:39*
%MOMM*%
%LPD*%
G01*
G04 APERTURE LIST*
%ADD10R,1.700000X1.700000*%
%ADD11O,1.700000X1.700000*%
%ADD12C,0.325000*%
G04 APERTURE END LIST*
D10*
%TO.C,P3*%
X219500000Y-139660000D03*
D11*
X222040000Y-139660000D03*
X219500000Y-137120000D03*
X222040000Y-137120000D03*
X219500000Y-134580000D03*
X222040000Y-134580000D03*
X219500000Y-132040000D03*
X222040000Y-132040000D03*
X219500000Y-129500000D03*
X222040000Y-129500000D03*
X219500000Y-126960000D03*
X222040000Y-126960000D03*
X219500000Y-124420000D03*
X222040000Y-124420000D03*
X219500000Y-121880000D03*
X222040000Y-121880000D03*
X219500000Y-119340000D03*
X222040000Y-119340000D03*
X219500000Y-116800000D03*
X222040000Y-116800000D03*
%TD*%
D12*
%TO.C,J1*%
X184365000Y-80065000D03*
X178585000Y-80065000D03*
%TD*%
D10*
%TO.C,P1*%
X133350000Y-90170000D03*
D11*
X130810000Y-90170000D03*
X133350000Y-92710000D03*
X130810000Y-92710000D03*
X133350000Y-95250000D03*
X130810000Y-95250000D03*
X133350000Y-97790000D03*
X130810000Y-97790000D03*
X133350000Y-100330000D03*
X130810000Y-100330000D03*
X133350000Y-102870000D03*
X130810000Y-102870000D03*
X133350000Y-105410000D03*
X130810000Y-105410000D03*
X133350000Y-107950000D03*
X130810000Y-107950000D03*
X133350000Y-110490000D03*
X130810000Y-110490000D03*
X133350000Y-113030000D03*
X130810000Y-113030000D03*
%TD*%
D10*
%TO.C,P4*%
X219460000Y-113000000D03*
D11*
X222000000Y-113000000D03*
X219460000Y-110460000D03*
X222000000Y-110460000D03*
X219460000Y-107920000D03*
X222000000Y-107920000D03*
X219460000Y-105380000D03*
X222000000Y-105380000D03*
X219460000Y-102840000D03*
X222000000Y-102840000D03*
X219460000Y-100300000D03*
X222000000Y-100300000D03*
X219460000Y-97760000D03*
X222000000Y-97760000D03*
X219460000Y-95220000D03*
X222000000Y-95220000D03*
X219460000Y-92680000D03*
X222000000Y-92680000D03*
X219460000Y-90140000D03*
X222000000Y-90140000D03*
%TD*%
D10*
%TO.C,P2*%
X133350000Y-116840000D03*
D11*
X130810000Y-116840000D03*
X133350000Y-119380000D03*
X130810000Y-119380000D03*
X133350000Y-121920000D03*
X130810000Y-121920000D03*
X133350000Y-124460000D03*
X130810000Y-124460000D03*
X133350000Y-127000000D03*
X130810000Y-127000000D03*
X133350000Y-129540000D03*
X130810000Y-129540000D03*
X133350000Y-132080000D03*
X130810000Y-132080000D03*
X133350000Y-134620000D03*
X130810000Y-134620000D03*
X133350000Y-137160000D03*
X130810000Y-137160000D03*
X133350000Y-139700000D03*
X130810000Y-139700000D03*
%TD*%
M02*
