%TF.GenerationSoftware,KiCad,Pcbnew,9.0.4*%
%TF.CreationDate,2025-10-20T22:36:38-03:00*%
%TF.ProjectId,fpga-utn,66706761-2d75-4746-9e2e-6b696361645f,rev?*%
%TF.SameCoordinates,Original*%
%TF.FileFunction,Copper,L2,Bot*%
%TF.FilePolarity,Positive*%
%FSLAX46Y46*%
G04 Gerber Fmt 4.6, Leading zero omitted, Abs format (unit mm)*
G04 Created by KiCad (PCBNEW 9.0.4) date 2025-10-20 22:36:38*
%MOMM*%
%LPD*%
G01*
G04 APERTURE LIST*
%TA.AperFunction,ComponentPad*%
%ADD10R,1.700000X1.700000*%
%TD*%
%TA.AperFunction,ComponentPad*%
%ADD11O,1.700000X1.700000*%
%TD*%
%TA.AperFunction,ComponentPad*%
%ADD12C,0.325000*%
%TD*%
%TA.AperFunction,ViaPad*%
%ADD13C,0.800000*%
%TD*%
%TA.AperFunction,Conductor*%
%ADD14C,0.500000*%
%TD*%
%TA.AperFunction,Conductor*%
%ADD15C,1.000000*%
%TD*%
%TA.AperFunction,Conductor*%
%ADD16C,0.750000*%
%TD*%
%TA.AperFunction,Conductor*%
%ADD17C,0.300000*%
%TD*%
%TA.AperFunction,Conductor*%
%ADD18C,0.200000*%
%TD*%
G04 APERTURE END LIST*
D10*
%TO.P,P3,1,3V3*%
%TO.N,+3V3*%
X219500000Y-139660000D03*
D11*
%TO.P,P3,2,3V3*%
X222040000Y-139660000D03*
%TO.P,P3,3,5V*%
%TO.N,+5V*%
X219500000Y-137120000D03*
%TO.P,P3,4,5V*%
X222040000Y-137120000D03*
%TO.P,P3,5,IO1*%
%TO.N,Net-(P3-IO1)*%
X219500000Y-134580000D03*
%TO.P,P3,6,IO2*%
%TO.N,Net-(P3-IO2)*%
X222040000Y-134580000D03*
%TO.P,P3,7,IO3*%
%TO.N,Net-(P3-IO3)*%
X219500000Y-132040000D03*
%TO.P,P3,8,IO4*%
%TO.N,Net-(P3-IO4)*%
X222040000Y-132040000D03*
%TO.P,P3,9,IO5*%
%TO.N,Net-(P3-IO5)*%
X219500000Y-129500000D03*
%TO.P,P3,10,IO6*%
%TO.N,Net-(P3-IO6)*%
X222040000Y-129500000D03*
%TO.P,P3,11,IO7*%
%TO.N,Net-(P3-IO7)*%
X219500000Y-126960000D03*
%TO.P,P3,12,IO8*%
%TO.N,Net-(P3-IO8)*%
X222040000Y-126960000D03*
%TO.P,P3,13,IO9*%
%TO.N,Net-(P3-IO9)*%
X219500000Y-124420000D03*
%TO.P,P3,14,IO10*%
%TO.N,Net-(P3-IO10)*%
X222040000Y-124420000D03*
%TO.P,P3,15,IO11*%
%TO.N,Net-(P3-IO11)*%
X219500000Y-121880000D03*
%TO.P,P3,16,IO12*%
%TO.N,Net-(P3-IO12)*%
X222040000Y-121880000D03*
%TO.P,P3,17,IO13*%
%TO.N,Net-(P3-IO13)*%
X219500000Y-119340000D03*
%TO.P,P3,18,IO14*%
%TO.N,Net-(P3-IO14)*%
X222040000Y-119340000D03*
%TO.P,P3,19,GND*%
%TO.N,GND*%
X219500000Y-116800000D03*
%TO.P,P3,20,GND*%
X222040000Y-116800000D03*
%TD*%
D12*
%TO.P,J1,MH1*%
%TO.N,N/C*%
X184365000Y-80065000D03*
%TO.P,J1,MH2*%
X178585000Y-80065000D03*
%TD*%
D10*
%TO.P,P1,1,3V3*%
%TO.N,+3V3*%
X133350000Y-90170000D03*
D11*
%TO.P,P1,2,3V3*%
X130810000Y-90170000D03*
%TO.P,P1,3,5V*%
%TO.N,+5V*%
X133350000Y-92710000D03*
%TO.P,P1,4,5V*%
X130810000Y-92710000D03*
%TO.P,P1,5,IO1*%
%TO.N,Net-(P1-IO1)*%
X133350000Y-95250000D03*
%TO.P,P1,6,IO2*%
%TO.N,Net-(P1-IO2)*%
X130810000Y-95250000D03*
%TO.P,P1,7,IO3*%
%TO.N,Net-(P1-IO3)*%
X133350000Y-97790000D03*
%TO.P,P1,8,IO4*%
%TO.N,Net-(P1-IO4)*%
X130810000Y-97790000D03*
%TO.P,P1,9,IO5*%
%TO.N,Net-(P1-IO5)*%
X133350000Y-100330000D03*
%TO.P,P1,10,IO6*%
%TO.N,Net-(P1-IO6)*%
X130810000Y-100330000D03*
%TO.P,P1,11,IO7*%
%TO.N,Net-(P1-IO7)*%
X133350000Y-102870000D03*
%TO.P,P1,12,IO8*%
%TO.N,Net-(P1-IO8)*%
X130810000Y-102870000D03*
%TO.P,P1,13,IO9*%
%TO.N,Net-(P1-IO9)*%
X133350000Y-105410000D03*
%TO.P,P1,14,IO10*%
%TO.N,Net-(P1-IO10)*%
X130810000Y-105410000D03*
%TO.P,P1,15,IO11*%
%TO.N,Net-(P1-IO11)*%
X133350000Y-107950000D03*
%TO.P,P1,16,IO12*%
%TO.N,Net-(P1-IO12)*%
X130810000Y-107950000D03*
%TO.P,P1,17,IO13*%
%TO.N,Net-(P1-IO13)*%
X133350000Y-110490000D03*
%TO.P,P1,18,IO14*%
%TO.N,Net-(P1-IO14)*%
X130810000Y-110490000D03*
%TO.P,P1,19,GND*%
%TO.N,GND*%
X133350000Y-113030000D03*
%TO.P,P1,20,GND*%
X130810000Y-113030000D03*
%TD*%
D10*
%TO.P,P4,1,3V3*%
%TO.N,+3V3*%
X219460000Y-113000000D03*
D11*
%TO.P,P4,2,3V3*%
X222000000Y-113000000D03*
%TO.P,P4,3,5V*%
%TO.N,+5V*%
X219460000Y-110460000D03*
%TO.P,P4,4,5V*%
X222000000Y-110460000D03*
%TO.P,P4,5,IO1*%
%TO.N,Net-(P4-IO1)*%
X219460000Y-107920000D03*
%TO.P,P4,6,IO2*%
%TO.N,Net-(P4-IO2)*%
X222000000Y-107920000D03*
%TO.P,P4,7,IO3*%
%TO.N,Net-(P4-IO3)*%
X219460000Y-105380000D03*
%TO.P,P4,8,IO4*%
%TO.N,Net-(P4-IO4)*%
X222000000Y-105380000D03*
%TO.P,P4,9,IO5*%
%TO.N,Net-(P4-IO5)*%
X219460000Y-102840000D03*
%TO.P,P4,10,IO6*%
%TO.N,Net-(P4-IO6)*%
X222000000Y-102840000D03*
%TO.P,P4,11,IO7*%
%TO.N,Net-(P4-IO7)*%
X219460000Y-100300000D03*
%TO.P,P4,12,IO8*%
%TO.N,Net-(P4-IO8)*%
X222000000Y-100300000D03*
%TO.P,P4,13,IO9*%
%TO.N,Net-(P4-IO9)*%
X219460000Y-97760000D03*
%TO.P,P4,14,IO10*%
%TO.N,Net-(P4-IO10)*%
X222000000Y-97760000D03*
%TO.P,P4,15,IO11*%
%TO.N,Net-(P4-IO11)*%
X219460000Y-95220000D03*
%TO.P,P4,16,IO12*%
%TO.N,Net-(P4-IO12)*%
X222000000Y-95220000D03*
%TO.P,P4,17,IO13*%
%TO.N,Net-(P4-IO13)*%
X219460000Y-92680000D03*
%TO.P,P4,18,IO14*%
%TO.N,Net-(P4-IO14)*%
X222000000Y-92680000D03*
%TO.P,P4,19,GND*%
%TO.N,GND*%
X219460000Y-90140000D03*
%TO.P,P4,20,GND*%
X222000000Y-90140000D03*
%TD*%
D10*
%TO.P,P2,1,3V3*%
%TO.N,+3V3*%
X133350000Y-116840000D03*
D11*
%TO.P,P2,2,3V3*%
X130810000Y-116840000D03*
%TO.P,P2,3,5V*%
%TO.N,+5V*%
X133350000Y-119380000D03*
%TO.P,P2,4,5V*%
X130810000Y-119380000D03*
%TO.P,P2,5,IO1*%
%TO.N,Net-(P2-IO1)*%
X133350000Y-121920000D03*
%TO.P,P2,6,IO2*%
%TO.N,Net-(P2-IO2)*%
X130810000Y-121920000D03*
%TO.P,P2,7,IO3*%
%TO.N,Net-(P2-IO3)*%
X133350000Y-124460000D03*
%TO.P,P2,8,IO4*%
%TO.N,Net-(P2-IO4)*%
X130810000Y-124460000D03*
%TO.P,P2,9,IO5*%
%TO.N,Net-(P2-IO5)*%
X133350000Y-127000000D03*
%TO.P,P2,10,IO6*%
%TO.N,Net-(P2-IO6)*%
X130810000Y-127000000D03*
%TO.P,P2,11,IO7*%
%TO.N,Net-(P2-IO7)*%
X133350000Y-129540000D03*
%TO.P,P2,12,IO8*%
%TO.N,Net-(P2-IO8)*%
X130810000Y-129540000D03*
%TO.P,P2,13,IO9*%
%TO.N,Net-(P2-IO9)*%
X133350000Y-132080000D03*
%TO.P,P2,14,IO10*%
%TO.N,Net-(P2-IO10)*%
X130810000Y-132080000D03*
%TO.P,P2,15,IO11*%
%TO.N,Net-(P2-IO11)*%
X133350000Y-134620000D03*
%TO.P,P2,16,IO12*%
%TO.N,Net-(P2-IO12)*%
X130810000Y-134620000D03*
%TO.P,P2,17,IO13*%
%TO.N,Net-(P2-IO13)*%
X133350000Y-137160000D03*
%TO.P,P2,18,IO14*%
%TO.N,Net-(P2-IO14)*%
X130810000Y-137160000D03*
%TO.P,P2,19,GND*%
%TO.N,GND*%
X133350000Y-139700000D03*
%TO.P,P2,20,GND*%
X130810000Y-139700000D03*
%TD*%
D13*
%TO.N,GND*%
X175500000Y-88000000D03*
X164134800Y-93802200D03*
X139175000Y-80010000D03*
X151000000Y-105650000D03*
X151000000Y-109700000D03*
X162509200Y-121716800D03*
X154500000Y-83500000D03*
X175500000Y-86000000D03*
X167500000Y-113500000D03*
X167500000Y-121650000D03*
X197307200Y-119786400D03*
X170053000Y-90779600D03*
%TO.N,+5V*%
X127500000Y-136500000D03*
%TO.N,+3V3*%
X186182000Y-101346000D03*
X213283800Y-117373400D03*
X190322200Y-89408000D03*
X195326000Y-101092000D03*
X201396600Y-130759200D03*
X179933600Y-89408000D03*
X198374000Y-133451600D03*
X199720200Y-121056400D03*
X199847200Y-115824000D03*
X192786000Y-103350000D03*
X181575000Y-89408000D03*
%TO.N,+1V2*%
X172339000Y-107696000D03*
X143256000Y-121793000D03*
X145542000Y-116347000D03*
X170561000Y-93853000D03*
X143129000Y-103886000D03*
X140208000Y-100330000D03*
X155356800Y-92801200D03*
X179070000Y-107061000D03*
X176022000Y-93853000D03*
%TO.N,Net-(D3-K)*%
X169609416Y-103350000D03*
X174879000Y-103251000D03*
%TO.N,Net-(U6E-~{CRESET})*%
X178435000Y-129271000D03*
X166777443Y-124892368D03*
%TO.N,/Memorias y PLL/Flash_RESET*%
X195616403Y-131352000D03*
X195656200Y-132664200D03*
%TO.N,/Memorias y PLL/Flash_DI*%
X199513003Y-112051000D03*
X193305003Y-120650000D03*
X202438000Y-102708000D03*
X202438000Y-101508000D03*
%TO.N,Net-(U6E-IOB_105_SDO)*%
X183642000Y-100711000D03*
X201168000Y-92583000D03*
X166624000Y-119761000D03*
X166500000Y-121650000D03*
X178054000Y-101473000D03*
X200311552Y-95088000D03*
%TO.N,Net-(U6E-IOB_106_SDI)*%
X182626000Y-99650000D03*
X166751000Y-103378000D03*
X167663104Y-124732343D03*
X167767000Y-120349000D03*
X170434000Y-99822000D03*
X177925158Y-99682265D03*
%TO.N,/Memorias y PLL/Flash_DO*%
X194310000Y-120650000D03*
X200514500Y-112051000D03*
%TO.N,Net-(U6E-IOB_107_SCK)*%
X205105000Y-97282000D03*
X178054000Y-100572997D03*
X170434000Y-100722003D03*
X169037000Y-120142000D03*
X165587765Y-106278765D03*
X207391000Y-95377000D03*
X168641000Y-124500000D03*
X183642000Y-99810997D03*
%TO.N,Net-(P1-IO7)*%
X155000000Y-107650000D03*
%TO.N,/Memorias y PLL/Flash_CS*%
X195326000Y-121208800D03*
X201414503Y-112051000D03*
%TO.N,Net-(U6E-IOB_108_SS)*%
X178460400Y-115316000D03*
X174599600Y-115449000D03*
X191033400Y-92964000D03*
X191033400Y-92964000D03*
X168500000Y-121650000D03*
X179950000Y-93345000D03*
%TO.N,Net-(D4-A)*%
X173000000Y-123500000D03*
X165500000Y-121650000D03*
%TO.N,/Memorias y PLL/Flash_DONE*%
X194716400Y-131352000D03*
X179324000Y-128676400D03*
%TO.N,Net-(P1-IO11)*%
X152000000Y-110350000D03*
%TO.N,Net-(P1-IO14)*%
X160000000Y-112000000D03*
%TO.N,Net-(P1-IO3)*%
X153000000Y-104650000D03*
%TO.N,Net-(P1-IO12)*%
X153000000Y-110850000D03*
%TO.N,Net-(P1-IO8)*%
X154000000Y-108150000D03*
%TO.N,Net-(P1-IO4)*%
X152000000Y-105150000D03*
%TO.N,Net-(P1-IO13)*%
X154000000Y-111350000D03*
%TO.N,/Perifericos/BOT7*%
X207750000Y-136250000D03*
X155000000Y-124500000D03*
%TO.N,/Perifericos/VUART_DTR*%
X207439452Y-131172645D03*
X164541200Y-124714000D03*
%TO.N,Net-(P1-IO1)*%
X155000000Y-103500000D03*
%TO.N,/Perifericos/VUART_DSR*%
X208597500Y-130746500D03*
X164500000Y-121650000D03*
%TO.N,Net-(P1-IO6)*%
X156000000Y-107150000D03*
%TO.N,/Perifericos/12MHz_CLK*%
X182372000Y-102362000D03*
X178941757Y-101620960D03*
%TO.N,Net-(P1-IO5)*%
X157000000Y-106500000D03*
%TO.N,Net-(P1-IO10)*%
X152000000Y-109150000D03*
%TO.N,Net-(P1-IO9)*%
X153000000Y-108650000D03*
%TO.N,Net-(P1-IO2)*%
X154000000Y-104150000D03*
%TO.N,/Perifericos/LED8*%
X192500000Y-85598000D03*
X161250000Y-104250000D03*
%TO.N,Net-(P2-IO13)*%
X153000000Y-119650000D03*
%TO.N,/Perifericos/LED3*%
X212500000Y-85576000D03*
X166250000Y-99250000D03*
%TO.N,Net-(P2-IO11)*%
X155000000Y-118500000D03*
%TO.N,Net-(P2-IO5)*%
X155000000Y-114650000D03*
%TO.N,Net-(P2-IO9)*%
X153000000Y-117000000D03*
%TO.N,/Perifericos/BOT6*%
X154500000Y-121500000D03*
X203500000Y-138250000D03*
%TO.N,Net-(P2-IO14)*%
X152000000Y-120150000D03*
%TO.N,Net-(P2-IO4)*%
X156000000Y-114150000D03*
%TO.N,Net-(P2-IO10)*%
X152000000Y-117650000D03*
%TO.N,Net-(P2-IO3)*%
X157000000Y-113650000D03*
%TO.N,Net-(P2-IO12)*%
X154000000Y-119150000D03*
%TO.N,Net-(P2-IO2)*%
X158000000Y-113150000D03*
%TO.N,Net-(P2-IO6)*%
X154000000Y-115150000D03*
%TO.N,Net-(P2-IO1)*%
X159000000Y-112650000D03*
%TO.N,Net-(P2-IO7)*%
X153000000Y-115650000D03*
%TO.N,Net-(P2-IO8)*%
X152000000Y-116150000D03*
%TO.N,Net-(P3-IO3)*%
X173500000Y-119850000D03*
%TO.N,Net-(P3-IO8)*%
X164500000Y-116850000D03*
%TO.N,Net-(P3-IO11)*%
X167500000Y-115350000D03*
%TO.N,Net-(P3-IO12)*%
X168500000Y-114850000D03*
%TO.N,Net-(P3-IO6)*%
X162500000Y-117850000D03*
%TO.N,Net-(P3-IO4)*%
X172550000Y-119150000D03*
%TO.N,Net-(P3-IO1)*%
X173500000Y-121300000D03*
%TO.N,Net-(P3-IO9)*%
X165500000Y-116350000D03*
%TO.N,Net-(P3-IO13)*%
X167500000Y-112000000D03*
%TO.N,/Perifericos/LED6*%
X200500000Y-85576000D03*
X163728186Y-104228186D03*
%TO.N,Net-(P3-IO10)*%
X166500000Y-115850000D03*
%TO.N,/Perifericos/BOT8*%
X155500000Y-121500000D03*
X214250000Y-136250000D03*
%TO.N,/Perifericos/LED7*%
X162500000Y-104250000D03*
X196500000Y-85598000D03*
%TO.N,Net-(P3-IO14)*%
X168500000Y-112000000D03*
%TO.N,Net-(P3-IO2)*%
X172727506Y-120650000D03*
%TO.N,/Perifericos/LED4*%
X208500000Y-85471000D03*
X165000000Y-99250000D03*
%TO.N,/Perifericos/BOT1*%
X143750000Y-138250000D03*
X151500000Y-121500000D03*
%TO.N,Net-(P3-IO7)*%
X163500000Y-117350000D03*
%TO.N,/Perifericos/LED5*%
X204500000Y-85576000D03*
X165000000Y-104250000D03*
%TO.N,Net-(P3-IO5)*%
X161500000Y-118500000D03*
%TO.N,Net-(P4-IO9)*%
X167000000Y-107000000D03*
%TO.N,/Perifericos/BOT3*%
X167500000Y-138250000D03*
X152500000Y-121500000D03*
%TO.N,/Perifericos/BOT4*%
X179500000Y-138250000D03*
X153500000Y-121500000D03*
%TO.N,Net-(P4-IO5)*%
X166000000Y-109350000D03*
%TO.N,/Perifericos/VUART_DCD*%
X165881553Y-124978307D03*
X210185000Y-130429000D03*
%TO.N,Net-(P4-IO1)*%
X169500000Y-112000000D03*
%TO.N,Net-(P4-IO14)*%
X168735000Y-103850000D03*
%TO.N,Net-(P4-IO11)*%
X168773776Y-106293445D03*
%TO.N,Net-(P4-IO2)*%
X163000000Y-111000000D03*
%TO.N,Net-(P4-IO7)*%
X168000000Y-108350000D03*
%TO.N,Net-(P4-IO8)*%
X169000000Y-107850000D03*
%TO.N,/Perifericos/VUART_Tx*%
X182626000Y-135788400D03*
X202946000Y-135280400D03*
%TO.N,Net-(P4-IO6)*%
X167000000Y-108850000D03*
%TO.N,Net-(P4-IO13)*%
X167073270Y-105887825D03*
%TO.N,Net-(P4-IO4)*%
X165000000Y-109850000D03*
%TO.N,/Perifericos/LED1*%
X169000000Y-99250000D03*
X220500000Y-85449000D03*
%TO.N,Net-(P4-IO3)*%
X164000000Y-110350000D03*
%TO.N,Net-(P4-IO10)*%
X169672000Y-106350000D03*
%TO.N,Net-(P4-IO12)*%
X167873791Y-106299128D03*
%TO.N,/Perifericos/BOT5*%
X191500000Y-138250000D03*
X154000000Y-124500000D03*
%TO.N,/Perifericos/BOT2*%
X152000000Y-124500000D03*
X155500000Y-138250000D03*
%TO.N,/Perifericos/LED2*%
X216500000Y-85449000D03*
X167250000Y-99250000D03*
%TO.N,/Perifericos/VUART_Rx*%
X170152000Y-121843800D03*
X172135800Y-124333000D03*
X161676001Y-121012000D03*
X159918400Y-121564400D03*
%TO.N,/Perifericos/VUART_CTS*%
X207114202Y-132011821D03*
X163500000Y-121650000D03*
%TO.N,/Perifericos/VUART_RTS*%
X205282800Y-132242800D03*
X163000000Y-124500000D03*
%TO.N,/Memorias y PLL/Flash_SCK*%
X192405000Y-120650000D03*
X198755000Y-100711000D03*
X198755000Y-103251000D03*
X198613000Y-112051000D03*
%TO.N,Net-(U4-~{PWREN})*%
X195021200Y-115671600D03*
X197190480Y-113802280D03*
%TO.N,Net-(U7-~{HOLD})*%
X198628000Y-88265000D03*
X197231000Y-93599000D03*
%TD*%
D14*
%TO.N,GND*%
X147320000Y-88000000D02*
X147165000Y-88000000D01*
X147165000Y-88000000D02*
X139175000Y-80010000D01*
X175500000Y-88000000D02*
X174000000Y-88000000D01*
X154500000Y-88000000D02*
X147165000Y-88000000D01*
X175500000Y-88000000D02*
X175500000Y-86000000D01*
X154500000Y-83500000D02*
X154500000Y-88000000D01*
X174000000Y-88000000D02*
X154500000Y-88000000D01*
D15*
%TO.N,+5V*%
X129500000Y-148000000D02*
X223000000Y-148000000D01*
X223000000Y-148000000D02*
X225000000Y-146000000D01*
X225000000Y-146000000D02*
X225000000Y-137000000D01*
X224880000Y-137120000D02*
X225000000Y-137000000D01*
X225000000Y-113460000D02*
X222000000Y-110460000D01*
X222040000Y-137120000D02*
X224880000Y-137120000D01*
X127500000Y-146000000D02*
X129500000Y-148000000D01*
X127500000Y-136500000D02*
X127500000Y-146000000D01*
X225000000Y-137000000D02*
X225000000Y-113460000D01*
D16*
%TO.N,+3V3*%
X213283800Y-117373400D02*
X200355200Y-117373400D01*
X190322200Y-89408000D02*
X181575000Y-89408000D01*
X199847200Y-116865400D02*
X199847200Y-120929400D01*
D17*
X195326000Y-101092000D02*
X195072000Y-101092000D01*
D16*
X199847200Y-115824000D02*
X199847200Y-116865400D01*
X198704200Y-133451600D02*
X198374000Y-133451600D01*
X193294000Y-101346000D02*
X194056000Y-102108000D01*
D17*
X199847200Y-116865400D02*
X200355200Y-117373400D01*
D16*
X186182000Y-101346000D02*
X193294000Y-101346000D01*
X192814000Y-103350000D02*
X192786000Y-103350000D01*
X181575000Y-89408000D02*
X179933600Y-89408000D01*
X194056000Y-102108000D02*
X192814000Y-103350000D01*
X201396600Y-130759200D02*
X198704200Y-133451600D01*
X195072000Y-101092000D02*
X194056000Y-102108000D01*
D17*
X199847200Y-120929400D02*
X199720200Y-121056400D01*
D16*
%TO.N,+1V2*%
X140208000Y-100965000D02*
X140208000Y-100330000D01*
D14*
X143256000Y-121793000D02*
X143129000Y-121666000D01*
D16*
X170561000Y-93218000D02*
X170180000Y-92837000D01*
D17*
X145415000Y-116459000D02*
X145527000Y-116347000D01*
D16*
X176022000Y-93853000D02*
X170561000Y-93853000D01*
D14*
X143129000Y-121666000D02*
X143129000Y-117475000D01*
D17*
X172339000Y-107696000D02*
X172974000Y-107061000D01*
D14*
X144145000Y-116459000D02*
X145415000Y-116459000D01*
D16*
X143129000Y-103886000D02*
X140208000Y-100965000D01*
X170561000Y-93853000D02*
X170561000Y-93218000D01*
X169128200Y-92801200D02*
X155356800Y-92801200D01*
D17*
X144018000Y-116586000D02*
X144145000Y-116459000D01*
X172974000Y-107061000D02*
X179070000Y-107061000D01*
D16*
X169164000Y-92837000D02*
X169128200Y-92801200D01*
D14*
X143129000Y-117475000D02*
X144018000Y-116586000D01*
D17*
X145527000Y-116347000D02*
X145542000Y-116347000D01*
D16*
X170180000Y-92837000D02*
X169164000Y-92837000D01*
D17*
%TO.N,Net-(D3-K)*%
X169885000Y-103500000D02*
X169735000Y-103350000D01*
X173749000Y-103251000D02*
X173500000Y-103500000D01*
X174879000Y-103251000D02*
X173749000Y-103251000D01*
X173500000Y-103500000D02*
X169885000Y-103500000D01*
%TO.N,Net-(U6E-~{CRESET})*%
X166777443Y-125307097D02*
X170741346Y-129271000D01*
X170741346Y-129271000D02*
X178435000Y-129271000D01*
X166777443Y-124892368D02*
X166777443Y-125307097D01*
%TO.N,/Memorias y PLL/Flash_RESET*%
X195616403Y-132624403D02*
X195656200Y-132664200D01*
X195616403Y-131352000D02*
X195616403Y-132624403D01*
%TO.N,/Memorias y PLL/Flash_DI*%
X202438000Y-101508000D02*
X202438000Y-102708000D01*
X199513003Y-112051000D02*
X199513003Y-112675243D01*
X199513003Y-112675243D02*
X199528003Y-112690243D01*
X193294000Y-120638997D02*
X193305003Y-120650000D01*
X199528003Y-112690243D02*
X199528003Y-113145997D01*
X193294000Y-119380000D02*
X193294000Y-120638997D01*
X199528003Y-113145997D02*
X193294000Y-119380000D01*
%TO.N,Net-(U6E-IOB_105_SDO)*%
X200660000Y-94739552D02*
X200660000Y-93853000D01*
D18*
X166624000Y-121526000D02*
X166500000Y-121650000D01*
X183515000Y-100838000D02*
X178689000Y-100838000D01*
X178689000Y-100838000D02*
X178054000Y-101473000D01*
X183642000Y-100711000D02*
X183515000Y-100838000D01*
D17*
X200311552Y-95088000D02*
X200660000Y-94739552D01*
X201168000Y-93345000D02*
X201168000Y-92583000D01*
X200660000Y-93853000D02*
X201168000Y-93345000D01*
D18*
X166624000Y-119761000D02*
X166624000Y-121526000D01*
%TO.N,Net-(U6E-IOB_106_SDI)*%
X169799000Y-99822000D02*
X170434000Y-99822000D01*
X166751000Y-101219000D02*
X167767000Y-100203000D01*
X169151000Y-121380346D02*
X169151000Y-123069346D01*
X169151000Y-123069346D02*
X167663104Y-124557242D01*
X166751000Y-103378000D02*
X166751000Y-101219000D01*
X167894000Y-100203000D02*
X169418000Y-100203000D01*
X167663104Y-124557242D02*
X167663104Y-124732343D01*
X169418000Y-100203000D02*
X169799000Y-99822000D01*
X168119654Y-120349000D02*
X169151000Y-121380346D01*
X167767000Y-100203000D02*
X167894000Y-100203000D01*
X177925158Y-99682265D02*
X182593735Y-99682265D01*
X182593735Y-99682265D02*
X182626000Y-99650000D01*
X167767000Y-120349000D02*
X168119654Y-120349000D01*
D17*
%TO.N,/Memorias y PLL/Flash_DO*%
X194310000Y-119126000D02*
X194310000Y-120650000D01*
X200514500Y-112159500D02*
X200533000Y-112178000D01*
X200533000Y-112903000D02*
X194310000Y-119126000D01*
X200533000Y-112178000D02*
X200533000Y-112903000D01*
X200514500Y-112051000D02*
X200514500Y-112159500D01*
D18*
%TO.N,Net-(U6E-IOB_107_SCK)*%
X169164000Y-120142000D02*
X169037000Y-120142000D01*
X167352000Y-104174000D02*
X167352000Y-103090000D01*
X167132000Y-102870000D02*
X167132000Y-101346000D01*
X207010000Y-95377000D02*
X207391000Y-95377000D01*
X168641000Y-124500000D02*
X169552000Y-123589000D01*
X169552000Y-120530000D02*
X169164000Y-120142000D01*
X178054000Y-100572997D02*
X178169997Y-100457000D01*
X165587765Y-106278765D02*
X165587765Y-105938235D01*
X170295997Y-100584000D02*
X170434000Y-100722003D01*
X205105000Y-97282000D02*
X207010000Y-95377000D01*
X165587765Y-105938235D02*
X167352000Y-104174000D01*
X182995997Y-100457000D02*
X183642000Y-99810997D01*
X167894000Y-100584000D02*
X170295997Y-100584000D01*
X178169997Y-100457000D02*
X182995997Y-100457000D01*
X167132000Y-101346000D02*
X167894000Y-100584000D01*
X169552000Y-123589000D02*
X169552000Y-120530000D01*
X167352000Y-103090000D02*
X167132000Y-102870000D01*
D17*
%TO.N,Net-(P1-IO7)*%
X136870000Y-102870000D02*
X133350000Y-102870000D01*
X155000000Y-107650000D02*
X154850000Y-107500000D01*
X141500000Y-107500000D02*
X136870000Y-102870000D01*
X154850000Y-107500000D02*
X141500000Y-107500000D01*
%TO.N,/Memorias y PLL/Flash_CS*%
X195326000Y-118999000D02*
X195326000Y-121208800D01*
X201414503Y-112051000D02*
X201414503Y-112910497D01*
X201414503Y-112910497D02*
X195326000Y-118999000D01*
D18*
%TO.N,Net-(U6E-IOB_108_SS)*%
X178426400Y-115350000D02*
X178460400Y-115316000D01*
X180356400Y-92938600D02*
X191008000Y-92938600D01*
X174698600Y-115350000D02*
X178426400Y-115350000D01*
X191008000Y-92938600D02*
X191033400Y-92964000D01*
X174599600Y-115449000D02*
X174698600Y-115350000D01*
X179950000Y-93345000D02*
X180356400Y-92938600D01*
D17*
%TO.N,Net-(D4-A)*%
X165500000Y-119000000D02*
X165500000Y-121650000D01*
X171000000Y-121500000D02*
X171000000Y-119000000D01*
X171000000Y-119000000D02*
X165500000Y-119000000D01*
X173000000Y-123500000D02*
X171000000Y-121500000D01*
%TO.N,/Memorias y PLL/Flash_DONE*%
X179832000Y-130962400D02*
X179832000Y-129184400D01*
X194580200Y-131488200D02*
X180357800Y-131488200D01*
X180357800Y-131488200D02*
X179832000Y-130962400D01*
X194716400Y-131352000D02*
X194580200Y-131488200D01*
X179832000Y-129184400D02*
X179324000Y-128676400D01*
%TO.N,Net-(P1-IO11)*%
X150730346Y-110351000D02*
X150341346Y-109962000D01*
X137962000Y-109962000D02*
X135950000Y-107950000D01*
X151978204Y-110328204D02*
X151292450Y-110328204D01*
X135950000Y-107950000D02*
X133350000Y-107950000D01*
X151292450Y-110328204D02*
X151269654Y-110351000D01*
X151269654Y-110351000D02*
X150730346Y-110351000D01*
X150341346Y-109962000D02*
X137962000Y-109962000D01*
X152000000Y-110350000D02*
X151978204Y-110328204D01*
%TO.N,Net-(P1-IO14)*%
X150232046Y-111554000D02*
X150057046Y-111379000D01*
X152564246Y-111902000D02*
X152465246Y-111803000D01*
X153730346Y-112001000D02*
X153631346Y-111902000D01*
X150057046Y-111379000D02*
X135641000Y-111379000D01*
X151398146Y-111803000D02*
X151149146Y-111554000D01*
X154891654Y-111379000D02*
X154269654Y-112001000D01*
X135641000Y-111379000D02*
X135260000Y-111760000D01*
X151149146Y-111554000D02*
X150232046Y-111554000D01*
X135260000Y-111760000D02*
X132080000Y-111760000D01*
X152465246Y-111803000D02*
X151398146Y-111803000D01*
X153631346Y-111902000D02*
X152564246Y-111902000D01*
X154269654Y-112001000D02*
X153730346Y-112001000D01*
X132080000Y-111760000D02*
X130810000Y-110490000D01*
X159379000Y-111379000D02*
X154891654Y-111379000D01*
X160000000Y-112000000D02*
X159379000Y-111379000D01*
%TO.N,Net-(P1-IO3)*%
X147709800Y-102870000D02*
X146304000Y-102870000D01*
X153000000Y-104650000D02*
X152652000Y-104302000D01*
X141224000Y-97790000D02*
X133350000Y-97790000D01*
X149141800Y-104302000D02*
X147709800Y-102870000D01*
X146304000Y-102870000D02*
X141224000Y-97790000D01*
X152652000Y-104302000D02*
X149141800Y-104302000D01*
%TO.N,Net-(P1-IO12)*%
X132080000Y-109220000D02*
X130810000Y-107950000D01*
X153000000Y-110850000D02*
X152420654Y-110850000D01*
X152269654Y-111001000D02*
X151730346Y-111001000D01*
X136863000Y-110363000D02*
X135720000Y-109220000D01*
X151730346Y-111001000D02*
X151481346Y-110752000D01*
X150564246Y-110752000D02*
X150175246Y-110363000D01*
X135720000Y-109220000D02*
X132080000Y-109220000D01*
X152420654Y-110850000D02*
X152269654Y-111001000D01*
X150175246Y-110363000D02*
X136863000Y-110363000D01*
X151481346Y-110752000D02*
X150564246Y-110752000D01*
%TO.N,Net-(P1-IO8)*%
X132080000Y-104140000D02*
X130810000Y-102870000D01*
X154000000Y-108150000D02*
X153850000Y-108000000D01*
X136640000Y-104140000D02*
X132080000Y-104140000D01*
X140500000Y-108000000D02*
X136640000Y-104140000D01*
X153850000Y-108000000D02*
X140500000Y-108000000D01*
%TO.N,Net-(P1-IO4)*%
X132080000Y-99060000D02*
X130810000Y-97790000D01*
X151850000Y-105000000D02*
X147418000Y-105000000D01*
X152000000Y-105150000D02*
X151850000Y-105000000D01*
X141478000Y-99060000D02*
X132080000Y-99060000D01*
X147418000Y-105000000D02*
X141478000Y-99060000D01*
%TO.N,Net-(P1-IO13)*%
X153651000Y-111119654D02*
X153269654Y-111501000D01*
X153769654Y-111119654D02*
X153651000Y-111119654D01*
X152730346Y-111501000D02*
X152631346Y-111402000D01*
X135490000Y-110490000D02*
X133350000Y-110490000D01*
X151315246Y-111153000D02*
X150398146Y-111153000D01*
X135871000Y-110871000D02*
X135490000Y-110490000D01*
X151564246Y-111402000D02*
X151315246Y-111153000D01*
X150116146Y-110871000D02*
X135871000Y-110871000D01*
X150398146Y-111153000D02*
X150116146Y-110871000D01*
X152631346Y-111402000D02*
X151564246Y-111402000D01*
X153269654Y-111501000D02*
X152730346Y-111501000D01*
X154000000Y-111350000D02*
X153769654Y-111119654D01*
%TO.N,/Perifericos/BOT7*%
X203215654Y-134629400D02*
X202676346Y-134629400D01*
X177111200Y-134727000D02*
X177082200Y-134698000D01*
X191358100Y-137541000D02*
X188544100Y-134727000D01*
X206196200Y-134696200D02*
X203282454Y-134696200D01*
X207750000Y-136250000D02*
X206196200Y-134696200D01*
X199764746Y-137541000D02*
X191358100Y-137541000D01*
X202676346Y-134629400D02*
X199764746Y-137541000D01*
X155000000Y-132250000D02*
X155000000Y-124500000D01*
X177082200Y-134698000D02*
X157448000Y-134698000D01*
X203282454Y-134696200D02*
X203215654Y-134629400D01*
X188544100Y-134727000D02*
X177111200Y-134727000D01*
X157448000Y-134698000D02*
X155000000Y-132250000D01*
%TO.N,/Perifericos/VUART_DTR*%
X204847046Y-131190800D02*
X204230800Y-131807046D01*
X206079754Y-131552000D02*
X205718554Y-131190800D01*
X189374600Y-132722000D02*
X177941700Y-132722000D01*
X206233190Y-131552000D02*
X206079754Y-131552000D01*
X207439452Y-131172645D02*
X206612545Y-131172645D01*
X206612545Y-131172645D02*
X206233190Y-131552000D01*
X198934246Y-135536000D02*
X192188600Y-135536000D01*
X204230800Y-131807046D02*
X204230800Y-132160600D01*
X203767000Y-132624400D02*
X201845846Y-132624400D01*
X177912700Y-132693000D02*
X171760100Y-132693000D01*
X192188600Y-135536000D02*
X189374600Y-132722000D01*
X205718554Y-131190800D02*
X204847046Y-131190800D01*
X177941700Y-132722000D02*
X177912700Y-132693000D01*
X164541200Y-125474100D02*
X164541200Y-124714000D01*
X201845846Y-132624400D02*
X198934246Y-135536000D01*
X171760100Y-132693000D02*
X164541200Y-125474100D01*
X204230800Y-132160600D02*
X203767000Y-132624400D01*
%TO.N,Net-(P1-IO1)*%
X146685000Y-101727000D02*
X140208000Y-95250000D01*
X155000000Y-103500000D02*
X149474000Y-103500000D01*
X149474000Y-103500000D02*
X147701000Y-101727000D01*
X140208000Y-95250000D02*
X133350000Y-95250000D01*
X147701000Y-101727000D02*
X146685000Y-101727000D01*
%TO.N,/Perifericos/VUART_DSR*%
X207743461Y-130556000D02*
X208407000Y-130556000D01*
X192354700Y-135135000D02*
X198768146Y-135135000D01*
X207709106Y-130521645D02*
X207743461Y-130556000D01*
X207349600Y-130260600D02*
X207610645Y-130521645D01*
X165192200Y-125209608D02*
X172274592Y-132292000D01*
X189540700Y-132321000D02*
X192354700Y-135135000D01*
X203183600Y-132223400D02*
X205146400Y-130260600D01*
X178107800Y-132321000D02*
X189540700Y-132321000D01*
X165192200Y-122342200D02*
X165192200Y-125209608D01*
X208407000Y-130556000D02*
X208597500Y-130746500D01*
X207610645Y-130521645D02*
X207709106Y-130521645D01*
X201679746Y-132223400D02*
X203183600Y-132223400D01*
X198768146Y-135135000D02*
X201679746Y-132223400D01*
X172274592Y-132292000D02*
X178078800Y-132292000D01*
X164500000Y-121650000D02*
X165192200Y-122342200D01*
X178078800Y-132292000D02*
X178107800Y-132321000D01*
X205146400Y-130260600D02*
X207349600Y-130260600D01*
%TO.N,Net-(P1-IO6)*%
X137100000Y-101600000D02*
X132080000Y-101600000D01*
X132080000Y-101600000D02*
X130810000Y-100330000D01*
X155850000Y-107000000D02*
X142500000Y-107000000D01*
X156000000Y-107150000D02*
X155850000Y-107000000D01*
X142500000Y-107000000D02*
X137100000Y-101600000D01*
%TO.N,/Perifericos/12MHz_CLK*%
X179578000Y-102362000D02*
X182372000Y-102362000D01*
X178941757Y-101620960D02*
X178941757Y-101725757D01*
X178941757Y-101725757D02*
X179578000Y-102362000D01*
%TO.N,Net-(P1-IO5)*%
X157000000Y-106500000D02*
X143500000Y-106500000D01*
X143500000Y-106500000D02*
X137330000Y-100330000D01*
X137330000Y-100330000D02*
X133350000Y-100330000D01*
%TO.N,Net-(P1-IO10)*%
X132080000Y-106680000D02*
X130810000Y-105410000D01*
X152000000Y-109150000D02*
X151850000Y-109000000D01*
X138500000Y-109000000D02*
X136180000Y-106680000D01*
X136180000Y-106680000D02*
X132080000Y-106680000D01*
X151850000Y-109000000D02*
X138500000Y-109000000D01*
%TO.N,Net-(P1-IO9)*%
X136410000Y-105410000D02*
X133350000Y-105410000D01*
X152850000Y-108500000D02*
X139500000Y-108500000D01*
X139500000Y-108500000D02*
X136410000Y-105410000D01*
X153000000Y-108650000D02*
X152850000Y-108500000D01*
%TO.N,Net-(P1-IO2)*%
X146685000Y-102362000D02*
X140823000Y-96500000D01*
X140823000Y-96500000D02*
X132060000Y-96500000D01*
X149307900Y-103901000D02*
X147768900Y-102362000D01*
X132060000Y-96500000D02*
X130810000Y-95250000D01*
X153751000Y-103901000D02*
X149307900Y-103901000D01*
X147768900Y-102362000D02*
X146685000Y-102362000D01*
X154000000Y-104150000D02*
X153751000Y-103901000D01*
%TO.N,/Perifericos/LED8*%
X192500000Y-94000000D02*
X191000000Y-95500000D01*
X192500000Y-85598000D02*
X192500000Y-94000000D01*
X160000000Y-97500000D02*
X160000000Y-103000000D01*
X191000000Y-95500000D02*
X162000000Y-95500000D01*
X162000000Y-95500000D02*
X160000000Y-97500000D01*
X160000000Y-103000000D02*
X161250000Y-104250000D01*
%TO.N,Net-(P2-IO13)*%
X136840000Y-137160000D02*
X133350000Y-137160000D01*
X153000000Y-119650000D02*
X152850000Y-119500000D01*
X152850000Y-119500000D02*
X148000000Y-119500000D01*
X147500000Y-120000000D02*
X147500000Y-126500000D01*
X147500000Y-126500000D02*
X136840000Y-137160000D01*
X148000000Y-119500000D02*
X147500000Y-120000000D01*
%TO.N,/Perifericos/LED3*%
X166250000Y-99250000D02*
X167500000Y-98000000D01*
X212500000Y-95475000D02*
X212500000Y-85576000D01*
X209975000Y-98000000D02*
X212500000Y-95475000D01*
X167500000Y-98000000D02*
X209975000Y-98000000D01*
%TO.N,Net-(P2-IO11)*%
X155000000Y-118500000D02*
X146000000Y-118500000D01*
X146000000Y-118500000D02*
X145500000Y-119000000D01*
X145500000Y-119000000D02*
X145500000Y-125500000D01*
X145500000Y-125500000D02*
X136380000Y-134620000D01*
X136380000Y-134620000D02*
X133350000Y-134620000D01*
%TO.N,Net-(P2-IO5)*%
X139000000Y-115500000D02*
X139000000Y-123000000D01*
X140581000Y-113919000D02*
X139000000Y-115500000D01*
X139000000Y-123000000D02*
X135000000Y-127000000D01*
X154356000Y-114006000D02*
X152899846Y-114006000D01*
X152899846Y-114006000D02*
X152812846Y-113919000D01*
X155000000Y-114650000D02*
X154356000Y-114006000D01*
X135000000Y-127000000D02*
X133350000Y-127000000D01*
X152812846Y-113919000D02*
X140581000Y-113919000D01*
%TO.N,Net-(P2-IO9)*%
X144145000Y-123855000D02*
X135920000Y-132080000D01*
X135920000Y-132080000D02*
X133350000Y-132080000D01*
X144145000Y-117602000D02*
X144145000Y-123855000D01*
X144747000Y-117000000D02*
X144145000Y-117602000D01*
X153000000Y-117000000D02*
X144747000Y-117000000D01*
%TO.N,/Perifericos/BOT6*%
X199598646Y-137140000D02*
X202510246Y-134228400D01*
X203448554Y-134295200D02*
X206362300Y-134295200D01*
X188710200Y-134326000D02*
X191524200Y-137140000D01*
X202510246Y-134228400D02*
X203381754Y-134228400D01*
X209000000Y-135290381D02*
X209000000Y-136750000D01*
X203381754Y-134228400D02*
X203448554Y-134295200D01*
X154500000Y-121500000D02*
X154500000Y-122750000D01*
X158547000Y-134297000D02*
X177248300Y-134297000D01*
X209000000Y-136750000D02*
X207500000Y-138250000D01*
X177277300Y-134326000D02*
X188710200Y-134326000D01*
X206636300Y-134569200D02*
X208278819Y-134569200D01*
X191524200Y-137140000D02*
X199598646Y-137140000D01*
X208278819Y-134569200D02*
X209000000Y-135290381D01*
X155750000Y-124000000D02*
X155750000Y-131500000D01*
X207500000Y-138250000D02*
X203500000Y-138250000D01*
X155750000Y-131500000D02*
X158547000Y-134297000D01*
X154500000Y-122750000D02*
X155750000Y-124000000D01*
X177248300Y-134297000D02*
X177277300Y-134326000D01*
X206362300Y-134295200D02*
X206636300Y-134569200D01*
%TO.N,Net-(P2-IO14)*%
X148500000Y-120500000D02*
X148500000Y-127500000D01*
X152000000Y-120150000D02*
X151850000Y-120000000D01*
X149000000Y-120000000D02*
X148500000Y-120500000D01*
X132080000Y-138430000D02*
X130810000Y-137160000D01*
X137570000Y-138430000D02*
X132080000Y-138430000D01*
X148500000Y-127500000D02*
X137570000Y-138430000D01*
X151850000Y-120000000D02*
X149000000Y-120000000D01*
%TO.N,Net-(P2-IO4)*%
X138000000Y-122500000D02*
X134770000Y-125730000D01*
X156000000Y-114150000D02*
X155642000Y-113792000D01*
X132080000Y-125730000D02*
X130810000Y-124460000D01*
X139589000Y-113411000D02*
X138000000Y-115000000D01*
X151899846Y-113506000D02*
X151804846Y-113411000D01*
X152966946Y-113506000D02*
X151899846Y-113506000D01*
X151804846Y-113411000D02*
X139589000Y-113411000D01*
X155121054Y-113792000D02*
X154934054Y-113605000D01*
X154934054Y-113605000D02*
X153065946Y-113605000D01*
X138000000Y-115000000D02*
X138000000Y-122500000D01*
X134770000Y-125730000D02*
X132080000Y-125730000D01*
X153065946Y-113605000D02*
X152966946Y-113506000D01*
X155642000Y-113792000D02*
X155121054Y-113792000D01*
%TO.N,Net-(P2-IO10)*%
X152000000Y-117650000D02*
X151850000Y-117500000D01*
X144780000Y-124720000D02*
X136150000Y-133350000D01*
X132080000Y-133350000D02*
X130810000Y-132080000D01*
X145000000Y-117500000D02*
X144780000Y-117720000D01*
X136150000Y-133350000D02*
X132080000Y-133350000D01*
X151850000Y-117500000D02*
X145000000Y-117500000D01*
X144780000Y-117720000D02*
X144780000Y-124720000D01*
%TO.N,Net-(P2-IO3)*%
X134552081Y-124460000D02*
X133350000Y-124460000D01*
X156231500Y-112903000D02*
X155068954Y-112903000D01*
X154767954Y-113204000D02*
X153232046Y-113204000D01*
X137000000Y-122012081D02*
X134552081Y-124460000D01*
X137000000Y-114500000D02*
X137000000Y-122012081D01*
X156337000Y-113008500D02*
X156231500Y-112903000D01*
X150796846Y-112903000D02*
X138597000Y-112903000D01*
X152065946Y-113105000D02*
X151966946Y-113006000D01*
X138597000Y-112903000D02*
X137000000Y-114500000D01*
X153232046Y-113204000D02*
X153133046Y-113105000D01*
X157000000Y-113650000D02*
X156358500Y-113008500D01*
X153133046Y-113105000D02*
X152065946Y-113105000D01*
X150899846Y-113006000D02*
X150796846Y-112903000D01*
X155068954Y-112903000D02*
X154767954Y-113204000D01*
X151966946Y-113006000D02*
X150899846Y-113006000D01*
X156358500Y-113008500D02*
X156337000Y-113008500D01*
%TO.N,Net-(P2-IO12)*%
X136610000Y-135890000D02*
X132080000Y-135890000D01*
X146500000Y-119500000D02*
X146500000Y-126000000D01*
X147000000Y-119000000D02*
X146500000Y-119500000D01*
X132080000Y-135890000D02*
X130810000Y-134620000D01*
X153850000Y-119000000D02*
X147000000Y-119000000D01*
X146500000Y-126000000D02*
X136610000Y-135890000D01*
X154000000Y-119150000D02*
X153850000Y-119000000D01*
%TO.N,Net-(P2-IO2)*%
X137605000Y-112395000D02*
X136000000Y-114000000D01*
X152232046Y-112704000D02*
X152133046Y-112605000D01*
X136000000Y-114000000D02*
X136000000Y-121500000D01*
X136000000Y-121500000D02*
X134310000Y-123190000D01*
X132080000Y-123190000D02*
X130810000Y-121920000D01*
X158000000Y-113150000D02*
X157245000Y-112395000D01*
X134310000Y-123190000D02*
X132080000Y-123190000D01*
X153299146Y-112704000D02*
X152232046Y-112704000D01*
X152133046Y-112605000D02*
X151065946Y-112605000D01*
X155009854Y-112395000D02*
X154601854Y-112803000D01*
X150855946Y-112395000D02*
X137605000Y-112395000D01*
X154601854Y-112803000D02*
X153398146Y-112803000D01*
X151065946Y-112605000D02*
X150855946Y-112395000D01*
X157245000Y-112395000D02*
X155009854Y-112395000D01*
X153398146Y-112803000D02*
X153299146Y-112704000D01*
%TO.N,Net-(P2-IO6)*%
X140500000Y-123000000D02*
X135230000Y-128270000D01*
X141573000Y-114427000D02*
X140500000Y-115500000D01*
X135230000Y-128270000D02*
X132080000Y-128270000D01*
X154000000Y-115150000D02*
X153277000Y-114427000D01*
X153277000Y-114427000D02*
X141573000Y-114427000D01*
X140500000Y-115500000D02*
X140500000Y-123000000D01*
X132080000Y-128270000D02*
X130810000Y-127000000D01*
%TO.N,Net-(P2-IO1)*%
X135000000Y-120270000D02*
X133350000Y-121920000D01*
X149997946Y-111887000D02*
X136613000Y-111887000D01*
X153564246Y-112402000D02*
X153465246Y-112303000D01*
X158237000Y-111887000D02*
X154950754Y-111887000D01*
X152299146Y-112204000D02*
X151232046Y-112204000D01*
X150983046Y-111955000D02*
X150065946Y-111955000D01*
X152398146Y-112303000D02*
X152299146Y-112204000D01*
X135000000Y-113500000D02*
X135000000Y-120270000D01*
X159000000Y-112650000D02*
X158237000Y-111887000D01*
X154950754Y-111887000D02*
X154435754Y-112402000D01*
X154435754Y-112402000D02*
X153564246Y-112402000D01*
X153465246Y-112303000D02*
X152398146Y-112303000D01*
X150065946Y-111955000D02*
X149997946Y-111887000D01*
X136613000Y-111887000D02*
X135000000Y-113500000D01*
X151232046Y-112204000D02*
X150983046Y-111955000D01*
%TO.N,Net-(P2-IO7)*%
X153000000Y-115650000D02*
X152412000Y-115062000D01*
X152412000Y-115062000D02*
X142438000Y-115062000D01*
X141500000Y-116000000D02*
X141500000Y-123500000D01*
X142438000Y-115062000D02*
X141500000Y-116000000D01*
X135460000Y-129540000D02*
X133350000Y-129540000D01*
X141500000Y-123500000D02*
X135460000Y-129540000D01*
%TO.N,Net-(P2-IO8)*%
X143303000Y-115697000D02*
X142500000Y-116500000D01*
X142500000Y-116500000D02*
X142500000Y-124000000D01*
X132080000Y-130810000D02*
X130810000Y-129540000D01*
X151547000Y-115697000D02*
X143303000Y-115697000D01*
X152000000Y-116150000D02*
X151547000Y-115697000D01*
X142500000Y-124000000D02*
X135690000Y-130810000D01*
X135690000Y-130810000D02*
X132080000Y-130810000D01*
%TO.N,Net-(P3-IO3)*%
X173500000Y-119850000D02*
X173650000Y-120000000D01*
X218019900Y-131211000D02*
X218671000Y-131211000D01*
X173650000Y-120000000D02*
X178500000Y-120000000D01*
X218671000Y-131211000D02*
X219500000Y-132040000D01*
X215936200Y-131154800D02*
X217752400Y-131154800D01*
X217752400Y-131154800D02*
X217858050Y-131049150D01*
X178500000Y-120000000D02*
X186262000Y-127762000D01*
X217858050Y-131049150D02*
X218019900Y-131211000D01*
X215930800Y-131149400D02*
X215936200Y-131154800D01*
X212222000Y-127762000D02*
X215609400Y-131149400D01*
X215609400Y-131149400D02*
X215930800Y-131149400D01*
X186262000Y-127762000D02*
X212222000Y-127762000D01*
%TO.N,Net-(P3-IO8)*%
X218200685Y-125095000D02*
X218835685Y-125730000D01*
X180500000Y-117000000D02*
X188595000Y-125095000D01*
X218835685Y-125730000D02*
X220810000Y-125730000D01*
X164650000Y-117000000D02*
X180500000Y-117000000D01*
X164500000Y-116850000D02*
X164650000Y-117000000D01*
X188595000Y-125095000D02*
X218200685Y-125095000D01*
X220810000Y-125730000D02*
X222040000Y-126960000D01*
%TO.N,Net-(P3-IO11)*%
X167500000Y-115350000D02*
X167720000Y-115570000D01*
X180433600Y-113933600D02*
X189944000Y-123444000D01*
X169151000Y-115287827D02*
X169151000Y-114866100D01*
X169151000Y-114866100D02*
X170083500Y-113933600D01*
X189944000Y-123444000D02*
X217936000Y-123444000D01*
X167720000Y-115570000D02*
X168868827Y-115570000D01*
X217936000Y-123444000D02*
X219500000Y-121880000D01*
X168868827Y-115570000D02*
X169151000Y-115287827D01*
X170083500Y-113933600D02*
X180433600Y-113933600D01*
%TO.N,Net-(P3-IO12)*%
X220810000Y-120650000D02*
X222040000Y-121880000D01*
X168500000Y-114850000D02*
X168600000Y-114850000D01*
X169917400Y-113532600D02*
X181032600Y-113532600D01*
X218616683Y-120650000D02*
X220810000Y-120650000D01*
X216330683Y-122936000D02*
X218616683Y-120650000D01*
X190436000Y-122936000D02*
X216330683Y-122936000D01*
X168600000Y-114850000D02*
X169917400Y-113532600D01*
X181032600Y-113532600D02*
X190436000Y-122936000D01*
%TO.N,Net-(P3-IO6)*%
X162650000Y-118000000D02*
X163229346Y-118000000D01*
X216890600Y-129946400D02*
X218567000Y-128270000D01*
X220810000Y-128270000D02*
X222040000Y-129500000D01*
X163229346Y-118000000D02*
X163230346Y-118001000D01*
X187611000Y-126111000D02*
X212272300Y-126111000D01*
X216107700Y-129946400D02*
X216890600Y-129946400D01*
X218567000Y-128270000D02*
X220810000Y-128270000D01*
X163230346Y-118001000D02*
X163769654Y-118001000D01*
X162500000Y-117850000D02*
X162650000Y-118000000D01*
X163770654Y-118000000D02*
X179500000Y-118000000D01*
X212272300Y-126111000D02*
X216107700Y-129946400D01*
X179500000Y-118000000D02*
X187611000Y-126111000D01*
X163769654Y-118001000D02*
X163770654Y-118000000D01*
%TO.N,Net-(P3-IO4)*%
X216096900Y-130748400D02*
X216102300Y-130753800D01*
X216102300Y-130753800D02*
X217586300Y-130753800D01*
X212281100Y-127254000D02*
X215775500Y-130748400D01*
X215775500Y-130748400D02*
X216096900Y-130748400D01*
X186701058Y-127254000D02*
X212281100Y-127254000D01*
X217586300Y-130753800D02*
X217858050Y-130482050D01*
X217858050Y-130482050D02*
X218186000Y-130810000D01*
X172550000Y-119150000D02*
X172600000Y-119100000D01*
X218186000Y-130810000D02*
X220810000Y-130810000D01*
X178547058Y-119100000D02*
X186701058Y-127254000D01*
X220810000Y-130810000D02*
X222040000Y-132040000D01*
X172600000Y-119100000D02*
X178547058Y-119100000D01*
%TO.N,Net-(P3-IO1)*%
X185837900Y-128905000D02*
X186315100Y-129382200D01*
X185405000Y-128905000D02*
X185837900Y-128905000D01*
X173500000Y-121300000D02*
X177800000Y-121300000D01*
X187557400Y-128905000D02*
X212230800Y-128905000D01*
X215326400Y-131951400D02*
X217955000Y-134580000D01*
X187080200Y-129382200D02*
X187557400Y-128905000D01*
X177800000Y-121300000D02*
X185405000Y-128905000D01*
X212230800Y-128905000D02*
X215277200Y-131951400D01*
X186315100Y-129382200D02*
X187080200Y-129382200D01*
X215277200Y-131951400D02*
X215326400Y-131951400D01*
X217955000Y-134580000D02*
X219500000Y-134580000D01*
%TO.N,Net-(P3-IO9)*%
X181000000Y-116500000D02*
X189087000Y-124587000D01*
X165500000Y-116350000D02*
X165650000Y-116500000D01*
X219333000Y-124587000D02*
X219500000Y-124420000D01*
X189087000Y-124587000D02*
X219333000Y-124587000D01*
X165650000Y-116500000D02*
X181000000Y-116500000D01*
%TO.N,Net-(P3-IO13)*%
X190928000Y-122428000D02*
X216271583Y-122428000D01*
X168631600Y-113131600D02*
X181631600Y-113131600D01*
X218591000Y-120249000D02*
X219500000Y-119340000D01*
X181631600Y-113131600D02*
X190928000Y-122428000D01*
X167500000Y-112000000D02*
X168631600Y-113131600D01*
X218450583Y-120249000D02*
X218591000Y-120249000D01*
X216271583Y-122428000D02*
X218450583Y-120249000D01*
%TO.N,/Perifericos/LED6*%
X163728186Y-104228186D02*
X163728186Y-101728186D01*
X162500000Y-100500000D02*
X162500000Y-98000000D01*
X164000000Y-96500000D02*
X197251000Y-96500000D01*
X197251000Y-96500000D02*
X200500000Y-93251000D01*
X200500000Y-93251000D02*
X200500000Y-85576000D01*
X163728186Y-101728186D02*
X162500000Y-100500000D01*
X162500000Y-98000000D02*
X164000000Y-96500000D01*
%TO.N,Net-(P3-IO10)*%
X166500000Y-115850000D02*
X166749000Y-116099000D01*
X220810000Y-123190000D02*
X222040000Y-124420000D01*
X181806600Y-116306600D02*
X189452000Y-123952000D01*
X218914365Y-123190000D02*
X220810000Y-123190000D01*
X181373700Y-116306600D02*
X181806600Y-116306600D01*
X181166100Y-116099000D02*
X181373700Y-116306600D01*
X166749000Y-116099000D02*
X181166100Y-116099000D01*
X189452000Y-123952000D02*
X218152365Y-123952000D01*
X218152365Y-123952000D02*
X218914365Y-123190000D01*
%TO.N,/Perifericos/BOT8*%
X203547854Y-133827400D02*
X202344146Y-133827400D01*
X206528400Y-133894200D02*
X203614654Y-133894200D01*
X207271119Y-134061200D02*
X206695400Y-134061200D01*
X156500000Y-122500000D02*
X155500000Y-121500000D01*
X156500000Y-131000000D02*
X156500000Y-122500000D01*
X206695400Y-134061200D02*
X206528400Y-133894200D01*
X177443400Y-133925000D02*
X177414400Y-133896000D01*
X203614654Y-133894200D02*
X203547854Y-133827400D01*
X202344146Y-133827400D02*
X199432546Y-136739000D01*
X211527800Y-133527800D02*
X207804519Y-133527800D01*
X159396000Y-133896000D02*
X156500000Y-131000000D01*
X207804519Y-133527800D02*
X207271119Y-134061200D01*
X214250000Y-136250000D02*
X211527800Y-133527800D01*
X191690300Y-136739000D02*
X188876300Y-133925000D01*
X177414400Y-133896000D02*
X159396000Y-133896000D01*
X188876300Y-133925000D02*
X177443400Y-133925000D01*
X199432546Y-136739000D02*
X191690300Y-136739000D01*
%TO.N,/Perifericos/LED7*%
X196500000Y-85598000D02*
X196500000Y-94000000D01*
X194400000Y-96100000D02*
X162900000Y-96100000D01*
X161500000Y-102000000D02*
X162500000Y-103000000D01*
X162900000Y-96100000D02*
X161500000Y-97500000D01*
X196500000Y-94000000D02*
X194400000Y-96100000D01*
X162500000Y-103000000D02*
X162500000Y-104250000D01*
X161500000Y-97500000D02*
X161500000Y-102000000D01*
%TO.N,Net-(P3-IO14)*%
X218948000Y-118110000D02*
X220810000Y-118110000D01*
X169174400Y-112674400D02*
X182174400Y-112674400D01*
X168500000Y-112000000D02*
X169174400Y-112674400D01*
X220810000Y-118110000D02*
X222040000Y-119340000D01*
X191420000Y-121920000D02*
X215138000Y-121920000D01*
X215138000Y-121920000D02*
X218948000Y-118110000D01*
X182174400Y-112674400D02*
X191420000Y-121920000D01*
%TO.N,Net-(P3-IO2)*%
X220810000Y-133350000D02*
X222040000Y-134580000D01*
X187625300Y-128270000D02*
X212162900Y-128270000D01*
X215764700Y-131550400D02*
X215770100Y-131555800D01*
X215770100Y-131555800D02*
X216055800Y-131555800D01*
X173229346Y-120500000D02*
X173230346Y-120501000D01*
X215443300Y-131550400D02*
X215764700Y-131550400D01*
X173769654Y-120501000D02*
X173770654Y-120500000D01*
X217850000Y-133350000D02*
X220810000Y-133350000D01*
X216055800Y-131555800D02*
X217850000Y-133350000D01*
X172877506Y-120500000D02*
X173229346Y-120500000D01*
X173770654Y-120500000D02*
X178000000Y-120500000D01*
X212162900Y-128270000D02*
X215443300Y-131550400D01*
X173230346Y-120501000D02*
X173769654Y-120501000D01*
X172727506Y-120650000D02*
X172877506Y-120500000D01*
X186481200Y-128981200D02*
X186914100Y-128981200D01*
X178000000Y-120500000D02*
X186481200Y-128981200D01*
X186914100Y-128981200D02*
X187625300Y-128270000D01*
%TO.N,/Perifericos/LED4*%
X166500000Y-97500000D02*
X165000000Y-99000000D01*
X208500000Y-85471000D02*
X208500000Y-91093000D01*
X165000000Y-99000000D02*
X165000000Y-99250000D01*
X208500000Y-91093000D02*
X202093000Y-97500000D01*
X202093000Y-97500000D02*
X166500000Y-97500000D01*
%TO.N,/Perifericos/BOT1*%
X143750000Y-138250000D02*
X147750000Y-138250000D01*
X147750000Y-138250000D02*
X151250000Y-134750000D01*
X151250000Y-134750000D02*
X151250000Y-121750000D01*
X151250000Y-121750000D02*
X151500000Y-121500000D01*
%TO.N,Net-(P3-IO7)*%
X163650000Y-117500000D02*
X180000000Y-117500000D01*
X180000000Y-117500000D02*
X188103000Y-125603000D01*
X163500000Y-117350000D02*
X163650000Y-117500000D01*
X217170000Y-125603000D02*
X218527000Y-126960000D01*
X188103000Y-125603000D02*
X217170000Y-125603000D01*
X218527000Y-126960000D02*
X219500000Y-126960000D01*
%TO.N,/Perifericos/LED5*%
X165000000Y-101000000D02*
X165000000Y-104250000D01*
X165500000Y-97000000D02*
X164000000Y-98500000D01*
X204500000Y-86360000D02*
X204500000Y-85576000D01*
X206629000Y-92371000D02*
X202000000Y-97000000D01*
X202000000Y-97000000D02*
X165500000Y-97000000D01*
X164000000Y-100000000D02*
X165000000Y-101000000D01*
X204500000Y-86360000D02*
X206629000Y-88489000D01*
X164000000Y-98500000D02*
X164000000Y-100000000D01*
X206629000Y-88489000D02*
X206629000Y-92371000D01*
%TO.N,Net-(P3-IO5)*%
X162770654Y-118500000D02*
X179000000Y-118500000D01*
X212213200Y-126619000D02*
X215941600Y-130347400D01*
X218273000Y-129500000D02*
X219500000Y-129500000D01*
X162230346Y-118501000D02*
X162769654Y-118501000D01*
X162229346Y-118500000D02*
X162230346Y-118501000D01*
X216268400Y-130352800D02*
X217420200Y-130352800D01*
X216263000Y-130347400D02*
X216268400Y-130352800D01*
X161500000Y-118500000D02*
X162229346Y-118500000D01*
X217420200Y-130352800D02*
X218273000Y-129500000D01*
X162769654Y-118501000D02*
X162770654Y-118500000D01*
X215941600Y-130347400D02*
X216263000Y-130347400D01*
X179000000Y-118500000D02*
X187119000Y-126619000D01*
X187119000Y-126619000D02*
X212213200Y-126619000D01*
%TO.N,Net-(P4-IO9)*%
X199816120Y-108191974D02*
X199816125Y-108191969D01*
X200480518Y-108191979D02*
X200812701Y-108191979D01*
X197914558Y-108192000D02*
X197914564Y-108191994D01*
X197914577Y-108191989D02*
X197914584Y-108191989D01*
X217133900Y-98799000D02*
X218421000Y-98799000D01*
X197914572Y-108191994D02*
X197914577Y-108191989D01*
X200480513Y-108191974D02*
X200480518Y-108191979D01*
X197914584Y-108191989D02*
X197914589Y-108191984D01*
X199816101Y-108191979D02*
X199816108Y-108191979D01*
X169651000Y-107580346D02*
X169651000Y-107933900D01*
X203639957Y-108819000D02*
X206181000Y-108819000D01*
X169651000Y-107933900D02*
X170259100Y-108542000D01*
X206181000Y-108819000D02*
X216200000Y-98800000D01*
X199575582Y-108191994D02*
X199816072Y-108191994D01*
X171903246Y-108748000D02*
X172774754Y-108748000D01*
X169269654Y-107199000D02*
X169651000Y-107580346D01*
X170259100Y-108542000D02*
X171697246Y-108542000D01*
X167730346Y-107699000D02*
X168269654Y-107699000D01*
X199816077Y-108191989D02*
X199816084Y-108191989D01*
X199816142Y-108191969D02*
X200148325Y-108191969D01*
X200812701Y-108191979D02*
X200812706Y-108191984D01*
X201144889Y-108191984D02*
X201144894Y-108191989D01*
X199816108Y-108191979D02*
X199816113Y-108191974D01*
X167000000Y-107000000D02*
X167714673Y-107714673D01*
X201809264Y-108191994D02*
X201809269Y-108191999D01*
X172774754Y-108748000D02*
X172980754Y-108542000D01*
X200812706Y-108191984D02*
X201144889Y-108191984D01*
X197014546Y-108192000D02*
X197914558Y-108192000D01*
X197914564Y-108191994D02*
X197914572Y-108191994D01*
X199816125Y-108191969D02*
X199816132Y-108191969D01*
X201144894Y-108191989D02*
X201477077Y-108191989D01*
X196664546Y-108542000D02*
X197014546Y-108192000D01*
X168250000Y-107679346D02*
X168730346Y-107199000D01*
X199816096Y-108191984D02*
X199816101Y-108191979D01*
X201809269Y-108191999D02*
X203012957Y-108192000D01*
X199243389Y-108191984D02*
X199243394Y-108191989D01*
X172980754Y-108542000D02*
X196664546Y-108542000D01*
X216200000Y-98800000D02*
X217132900Y-98800000D01*
X217132900Y-98800000D02*
X217133900Y-98799000D01*
X199816072Y-108191994D02*
X199816077Y-108191989D01*
X200148325Y-108191969D02*
X200148330Y-108191974D01*
X199575577Y-108191989D02*
X199575582Y-108191994D01*
X218421000Y-98799000D02*
X219460000Y-97760000D01*
X201477082Y-108191994D02*
X201809264Y-108191994D01*
X199816084Y-108191989D02*
X199816089Y-108191984D01*
X200148330Y-108191974D02*
X200480513Y-108191974D01*
X199816137Y-108191964D02*
X199816142Y-108191969D01*
X168269654Y-107699000D02*
X168250000Y-107679346D01*
X199816132Y-108191969D02*
X199816137Y-108191964D01*
X201477077Y-108191989D02*
X201477082Y-108191994D01*
X203012957Y-108192000D02*
X203639957Y-108819000D01*
X199816089Y-108191984D02*
X199816096Y-108191984D01*
X199243394Y-108191989D02*
X199575577Y-108191989D01*
X197914589Y-108191984D02*
X199243389Y-108191984D01*
X167714673Y-107714673D02*
X167730346Y-107699000D01*
X168730346Y-107199000D02*
X169269654Y-107199000D01*
X171697246Y-108542000D02*
X171903246Y-108748000D01*
X199816113Y-108191974D02*
X199816120Y-108191974D01*
%TO.N,/Perifericos/BOT3*%
X152750000Y-134250000D02*
X152750000Y-124330761D01*
X167500000Y-138250000D02*
X165500000Y-136250000D01*
X154750000Y-136250000D02*
X152750000Y-134250000D01*
X152750000Y-124330761D02*
X152500000Y-124080761D01*
X165500000Y-136250000D02*
X154750000Y-136250000D01*
X152500000Y-124080761D02*
X152500000Y-121500000D01*
%TO.N,/Perifericos/BOT4*%
X153500000Y-124080761D02*
X153500000Y-121500000D01*
X176750000Y-135500000D02*
X155250000Y-135500000D01*
X155250000Y-135500000D02*
X153350000Y-133600000D01*
X153350000Y-133600000D02*
X153350000Y-124230761D01*
X153350000Y-124230761D02*
X153500000Y-124080761D01*
X179500000Y-138250000D02*
X176750000Y-135500000D01*
%TO.N,Net-(P4-IO5)*%
X199907771Y-109796001D02*
X199907773Y-109795999D01*
X198578972Y-109795994D02*
X198578977Y-109795989D01*
X198911177Y-109795989D02*
X198911182Y-109795994D01*
X200480494Y-109795989D02*
X200812677Y-109795989D01*
X198578989Y-109795984D02*
X198578994Y-109795989D01*
X171032846Y-110146000D02*
X171238846Y-110352000D01*
X198578958Y-109796000D02*
X198578964Y-109795994D01*
X198578994Y-109795989D02*
X198911177Y-109795989D01*
X200812682Y-109795994D02*
X201144864Y-109795994D01*
X200480484Y-109795989D02*
X200480489Y-109795984D01*
X199243371Y-109796001D02*
X199907771Y-109796001D01*
X173439154Y-110352000D02*
X173645154Y-110146000D01*
X198578977Y-109795989D02*
X198578984Y-109795989D01*
X198911182Y-109795994D02*
X199243364Y-109795994D01*
X201144869Y-109795999D02*
X202348557Y-109796000D01*
X200480489Y-109795984D02*
X200480494Y-109795989D01*
X166000000Y-109350000D02*
X166796000Y-110146000D01*
X173645154Y-110146000D02*
X197328946Y-110146000D01*
X210530000Y-110470000D02*
X218160000Y-102840000D01*
X200447054Y-109795998D02*
X200447056Y-109796000D01*
X202348557Y-109796000D02*
X203022557Y-110470000D01*
X199243364Y-109795994D02*
X199243371Y-109796001D01*
X200447056Y-109796000D02*
X200480458Y-109796000D01*
X200812677Y-109795989D02*
X200812682Y-109795994D01*
X199907773Y-109795999D02*
X200447054Y-109795998D01*
X203022557Y-110470000D02*
X210530000Y-110470000D01*
X171238846Y-110352000D02*
X173439154Y-110352000D01*
X200480472Y-109795994D02*
X200480477Y-109795989D01*
X198578984Y-109795989D02*
X198578989Y-109795984D01*
X218160000Y-102840000D02*
X219460000Y-102840000D01*
X166796000Y-110146000D02*
X171032846Y-110146000D01*
X198578964Y-109795994D02*
X198578972Y-109795994D01*
X200480458Y-109796000D02*
X200480466Y-109795994D01*
X200480477Y-109795989D02*
X200480484Y-109795989D01*
X200480466Y-109795994D02*
X200480472Y-109795994D01*
X201144864Y-109795994D02*
X201144869Y-109795999D01*
X197678946Y-109796000D02*
X198578958Y-109796000D01*
X197328946Y-110146000D02*
X197678946Y-109796000D01*
%TO.N,/Perifericos/VUART_DCD*%
X178244900Y-131891000D02*
X178273900Y-131920000D01*
X207909561Y-130155000D02*
X208173000Y-130155000D01*
X207515700Y-129859600D02*
X207776745Y-130120645D01*
X172794246Y-131891000D02*
X178244900Y-131891000D01*
X178273900Y-131920000D02*
X189706800Y-131920000D01*
X165881553Y-124978307D02*
X172794246Y-131891000D01*
X208173000Y-130155000D02*
X208407000Y-129921000D01*
X208407000Y-129921000D02*
X209677000Y-129921000D01*
X204980300Y-129859600D02*
X207515700Y-129859600D01*
X203017500Y-131822400D02*
X204980300Y-129859600D01*
X201513646Y-131822400D02*
X203017500Y-131822400D01*
X209677000Y-129921000D02*
X210185000Y-130429000D01*
X198602046Y-134734000D02*
X201513646Y-131822400D01*
X189706800Y-131920000D02*
X192520800Y-134734000D01*
X207776745Y-130120645D02*
X207875206Y-130120645D01*
X207875206Y-130120645D02*
X207909561Y-130155000D01*
X192520800Y-134734000D02*
X198602046Y-134734000D01*
%TO.N,Net-(P4-IO1)*%
X200964502Y-111580348D02*
X201144849Y-111400000D01*
X198343346Y-111400000D02*
X198882654Y-111400000D01*
X214815100Y-111252000D02*
X216248000Y-111252000D01*
X201684157Y-111400000D02*
X202065503Y-111781346D01*
X200244846Y-111400000D02*
X200784154Y-111400000D01*
X213926100Y-112141000D02*
X214815100Y-111252000D01*
X169641000Y-112141000D02*
X197962000Y-112141000D01*
X198882654Y-111400000D02*
X199063002Y-111580348D01*
X202065503Y-111781346D02*
X202065503Y-112141000D01*
X202065503Y-112141000D02*
X213926100Y-112141000D01*
X199063002Y-111580348D02*
X199243349Y-111400000D01*
X200784154Y-111400000D02*
X200964502Y-111580348D01*
X197962000Y-111781346D02*
X198343346Y-111400000D01*
X169500000Y-112000000D02*
X169641000Y-112141000D01*
X216248000Y-111252000D02*
X219460000Y-108040000D01*
X197962000Y-112141000D02*
X197962000Y-111781346D01*
X199243349Y-111400000D02*
X199782657Y-111400000D01*
X200013752Y-111631095D02*
X200244846Y-111400000D01*
X199782657Y-111400000D02*
X200013752Y-111631095D01*
X219460000Y-108040000D02*
X219460000Y-107920000D01*
X201144849Y-111400000D02*
X201684157Y-111400000D01*
%TO.N,Net-(P4-IO14)*%
X168885000Y-104000000D02*
X205880000Y-104000000D01*
X168735000Y-103850000D02*
X168885000Y-104000000D01*
X205880000Y-104000000D02*
X217880000Y-92000000D01*
X217880000Y-92000000D02*
X218584365Y-92000000D01*
X220900000Y-91580000D02*
X222000000Y-92680000D01*
X218584365Y-92000000D02*
X219004365Y-91580000D01*
X219004365Y-91580000D02*
X220900000Y-91580000D01*
%TO.N,Net-(P4-IO11)*%
X206500000Y-105500000D02*
X216780000Y-95220000D01*
X216780000Y-95220000D02*
X219460000Y-95220000D01*
X168773776Y-106293445D02*
X168773776Y-105913224D01*
X168773776Y-105913224D02*
X169187000Y-105500000D01*
X169187000Y-105500000D02*
X206500000Y-105500000D01*
%TO.N,Net-(P4-IO2)*%
X199948757Y-110999000D02*
X200013752Y-111063994D01*
X219002950Y-106820000D02*
X219003950Y-106819000D01*
X197561000Y-111740000D02*
X197561000Y-111615246D01*
X167230346Y-111349000D02*
X169769654Y-111349000D01*
X200964501Y-111013247D02*
X200978749Y-110999000D01*
X220900000Y-106820000D02*
X222000000Y-107920000D01*
X219003950Y-106819000D02*
X219916050Y-106819000D01*
X200013752Y-111063994D02*
X200078746Y-110999000D01*
X198177246Y-110999000D02*
X199048754Y-110999000D01*
X169769654Y-111349000D02*
X170151000Y-111730346D01*
X219917050Y-106820000D02*
X220900000Y-106820000D01*
X197561000Y-111615246D02*
X198177246Y-110999000D01*
X199063001Y-111013247D02*
X199077249Y-110999000D01*
X200078746Y-110999000D02*
X200950254Y-110999000D01*
X163000000Y-111000000D02*
X163760000Y-111760000D01*
X170151000Y-111730346D02*
X170151000Y-111740000D01*
X202466503Y-111740000D02*
X213760000Y-111740000D01*
X166849000Y-111760000D02*
X166849000Y-111730346D01*
X213760000Y-111740000D02*
X218680000Y-106820000D01*
X200978749Y-110999000D02*
X201850257Y-110999000D01*
X201850257Y-110999000D02*
X202466503Y-111615246D01*
X166849000Y-111730346D02*
X167230346Y-111349000D01*
X218680000Y-106820000D02*
X219002950Y-106820000D01*
X200950254Y-110999000D02*
X200964501Y-111013247D01*
X170151000Y-111740000D02*
X197561000Y-111740000D01*
X202466503Y-111615246D02*
X202466503Y-111740000D01*
X199077249Y-110999000D02*
X199948757Y-110999000D01*
X163760000Y-111760000D02*
X166849000Y-111760000D01*
X219916050Y-106819000D02*
X219917050Y-106820000D01*
X199048754Y-110999000D02*
X199063001Y-111013247D01*
%TO.N,Net-(P4-IO7)*%
X200148301Y-108993979D02*
X200148308Y-108993979D01*
X200148313Y-108993974D02*
X200148318Y-108993979D01*
X199575564Y-108993994D02*
X199575571Y-108993999D01*
X200148296Y-108993984D02*
X200148301Y-108993979D01*
X208332000Y-109668000D02*
X217700000Y-100300000D01*
X200148272Y-108993994D02*
X200148277Y-108993989D01*
X201144882Y-108993994D02*
X201477064Y-108993994D01*
X200148277Y-108993989D02*
X200148284Y-108993989D01*
X201144877Y-108993989D02*
X201144882Y-108993994D01*
X171571046Y-109550000D02*
X173106954Y-109550000D01*
X168994000Y-109344000D02*
X171365046Y-109344000D01*
X196996746Y-109344000D02*
X197346746Y-108994000D01*
X198246772Y-108993994D02*
X198246777Y-108993989D01*
X199575571Y-108993999D02*
X200148262Y-108993998D01*
X200148308Y-108993979D02*
X200148313Y-108993974D01*
X198246784Y-108993989D02*
X198246789Y-108993984D01*
X200148284Y-108993989D02*
X200148289Y-108993984D01*
X217700000Y-100300000D02*
X219460000Y-100300000D01*
X168000000Y-108350000D02*
X168994000Y-109344000D01*
X198911189Y-108993984D02*
X198911194Y-108993989D01*
X171365046Y-109344000D02*
X171571046Y-109550000D01*
X200480506Y-108993984D02*
X200812689Y-108993984D01*
X200148289Y-108993984D02*
X200148296Y-108993984D01*
X202680757Y-108994000D02*
X203354757Y-109668000D01*
X200148318Y-108993979D02*
X200480501Y-108993979D01*
X173106954Y-109550000D02*
X173312954Y-109344000D01*
X200148266Y-108993994D02*
X200148272Y-108993994D01*
X200812689Y-108993984D02*
X200812694Y-108993989D01*
X198246789Y-108993984D02*
X198911189Y-108993984D01*
X198246758Y-108994000D02*
X198246764Y-108993994D01*
X203354757Y-109668000D02*
X208332000Y-109668000D01*
X200148262Y-108993998D02*
X200148266Y-108993994D01*
X201477069Y-108993999D02*
X202680757Y-108994000D01*
X200480501Y-108993979D02*
X200480506Y-108993984D01*
X198246777Y-108993989D02*
X198246784Y-108993989D01*
X199243382Y-108993994D02*
X199575564Y-108993994D01*
X198911194Y-108993989D02*
X199243377Y-108993989D01*
X173312954Y-109344000D02*
X196996746Y-109344000D01*
X201477064Y-108993994D02*
X201477069Y-108993999D01*
X198246764Y-108993994D02*
X198246772Y-108993994D01*
X200812694Y-108993989D02*
X201144877Y-108993989D01*
X197346746Y-108994000D02*
X198246758Y-108994000D01*
X199243377Y-108993989D02*
X199243382Y-108993994D01*
%TO.N,Net-(P4-IO8)*%
X198080677Y-108592989D02*
X198080684Y-108592989D01*
X171737146Y-109149000D02*
X172940854Y-109149000D01*
X199982220Y-108592974D02*
X199982225Y-108592969D01*
X220900000Y-99200000D02*
X222000000Y-100300000D01*
X198080664Y-108592994D02*
X198080672Y-108592994D01*
X200314413Y-108592974D02*
X200314418Y-108592979D01*
X201643169Y-108592999D02*
X202846857Y-108593000D01*
X199982213Y-108592974D02*
X199982220Y-108592974D01*
X199741664Y-108592994D02*
X199741669Y-108592999D01*
X199409482Y-108592994D02*
X199741664Y-108592994D01*
X196830646Y-108943000D02*
X197180646Y-108593000D01*
X173146854Y-108943000D02*
X196830646Y-108943000D01*
X199741669Y-108592999D02*
X199982160Y-108592998D01*
X200646606Y-108592984D02*
X200978789Y-108592984D01*
X199982230Y-108592974D02*
X200314413Y-108592974D01*
X169000000Y-107850000D02*
X170093000Y-108943000D01*
X198080689Y-108592984D02*
X199077289Y-108592984D01*
X199982196Y-108592984D02*
X199982201Y-108592979D01*
X199982189Y-108592984D02*
X199982196Y-108592984D01*
X199982177Y-108592989D02*
X199982184Y-108592989D01*
X199982164Y-108592994D02*
X199982172Y-108592994D01*
X202846857Y-108593000D02*
X203473857Y-109220000D01*
X170093000Y-108943000D02*
X171531146Y-108943000D01*
X219916050Y-99199000D02*
X219917050Y-99200000D01*
X199982225Y-108592969D02*
X199982230Y-108592974D01*
X201310977Y-108592989D02*
X201310982Y-108592994D01*
X198080684Y-108592989D02*
X198080689Y-108592984D01*
X197180646Y-108593000D02*
X198080658Y-108593000D01*
X219002950Y-99200000D02*
X219003950Y-99199000D01*
X199982201Y-108592979D02*
X199982208Y-108592979D01*
X172940854Y-109149000D02*
X173146854Y-108943000D01*
X199982208Y-108592979D02*
X199982213Y-108592974D01*
X199077289Y-108592984D02*
X199077294Y-108592989D01*
X219003950Y-99199000D02*
X219916050Y-99199000D01*
X201643164Y-108592994D02*
X201643169Y-108592999D01*
X199982184Y-108592989D02*
X199982189Y-108592984D01*
X203473857Y-109220000D02*
X207280000Y-109220000D01*
X198080658Y-108593000D02*
X198080664Y-108592994D01*
X199982160Y-108592998D02*
X199982164Y-108592994D01*
X207280000Y-109220000D02*
X217300000Y-99200000D01*
X200978794Y-108592989D02*
X201310977Y-108592989D01*
X201310982Y-108592994D02*
X201643164Y-108592994D01*
X198080672Y-108592994D02*
X198080677Y-108592989D01*
X200646601Y-108592979D02*
X200646606Y-108592984D01*
X171531146Y-108943000D02*
X171737146Y-109149000D01*
X219917050Y-99200000D02*
X220900000Y-99200000D01*
X200978789Y-108592984D02*
X200978794Y-108592989D01*
X199982172Y-108592994D02*
X199982177Y-108592989D01*
X217300000Y-99200000D02*
X219002950Y-99200000D01*
X199409477Y-108592989D02*
X199409482Y-108592994D01*
X200314418Y-108592979D02*
X200646601Y-108592979D01*
X199077294Y-108592989D02*
X199409477Y-108592989D01*
%TO.N,/Perifericos/VUART_Tx*%
X199325400Y-138901000D02*
X202946000Y-135280400D01*
X182626000Y-135788400D02*
X185738600Y-138901000D01*
X185738600Y-138901000D02*
X199325400Y-138901000D01*
%TO.N,Net-(P4-IO6)*%
X200646589Y-109394984D02*
X200646594Y-109394989D01*
X200314389Y-109394984D02*
X200314396Y-109394984D01*
X219003950Y-101739000D02*
X219916050Y-101739000D01*
X198412889Y-109394984D02*
X198745089Y-109394984D01*
X200314401Y-109394979D02*
X200314406Y-109394984D01*
X200314406Y-109394984D02*
X200646589Y-109394984D01*
X202514657Y-109395000D02*
X203188657Y-110069000D01*
X198412877Y-109394989D02*
X198412884Y-109394989D01*
X201310969Y-109394999D02*
X202514657Y-109395000D01*
X197512846Y-109395000D02*
X198412858Y-109395000D01*
X171404946Y-109951000D02*
X173273054Y-109951000D01*
X198412884Y-109394989D02*
X198412889Y-109394984D01*
X198745089Y-109394984D02*
X198745094Y-109394989D01*
X200314377Y-109394989D02*
X200314384Y-109394989D01*
X198412872Y-109394994D02*
X198412877Y-109394989D01*
X199409471Y-109395001D02*
X199741671Y-109395001D01*
X217760000Y-101740000D02*
X219002950Y-101740000D01*
X203188657Y-110069000D02*
X209431000Y-110069000D01*
X200314396Y-109394984D02*
X200314401Y-109394979D01*
X199077282Y-109394994D02*
X199409464Y-109394994D01*
X199077277Y-109394989D02*
X199077282Y-109394994D01*
X197162846Y-109745000D02*
X197512846Y-109395000D01*
X219917050Y-101740000D02*
X220900000Y-101740000D01*
X200978782Y-109394994D02*
X201310964Y-109394994D01*
X173273054Y-109951000D02*
X173479054Y-109745000D01*
X199741673Y-109394999D02*
X200314362Y-109394998D01*
X167895000Y-109745000D02*
X171198946Y-109745000D01*
X198745094Y-109394989D02*
X199077277Y-109394989D01*
X209431000Y-110069000D02*
X217760000Y-101740000D01*
X167000000Y-108850000D02*
X167895000Y-109745000D01*
X198412864Y-109394994D02*
X198412872Y-109394994D01*
X200646594Y-109394989D02*
X200978777Y-109394989D01*
X199741671Y-109395001D02*
X199741673Y-109394999D01*
X171198946Y-109745000D02*
X171404946Y-109951000D01*
X200978777Y-109394989D02*
X200978782Y-109394994D01*
X201310964Y-109394994D02*
X201310969Y-109394999D01*
X200314384Y-109394989D02*
X200314389Y-109394984D01*
X200314362Y-109394998D02*
X200314366Y-109394994D01*
X198412858Y-109395000D02*
X198412864Y-109394994D01*
X173479054Y-109745000D02*
X197162846Y-109745000D01*
X200314372Y-109394994D02*
X200314377Y-109394989D01*
X219916050Y-101739000D02*
X219917050Y-101740000D01*
X199409464Y-109394994D02*
X199409471Y-109395001D01*
X220900000Y-101740000D02*
X222000000Y-102840000D01*
X200314366Y-109394994D02*
X200314372Y-109394994D01*
X219002950Y-101740000D02*
X219003950Y-101739000D01*
%TO.N,Net-(P4-IO13)*%
X167073270Y-105887825D02*
X167073270Y-105311730D01*
X167885000Y-104500000D02*
X206142000Y-104500000D01*
X217962000Y-92680000D02*
X219460000Y-92680000D01*
X167073270Y-105311730D02*
X167885000Y-104500000D01*
X206142000Y-104500000D02*
X217962000Y-92680000D01*
%TO.N,Net-(P4-IO4)*%
X200646577Y-110196989D02*
X200646582Y-110196994D01*
X198745058Y-110197000D02*
X198745064Y-110196994D01*
X173605254Y-110753000D02*
X173811254Y-110547000D01*
X219917050Y-104280000D02*
X220900000Y-104280000D01*
X219002950Y-104280000D02*
X219003950Y-104279000D01*
X211629000Y-110871000D02*
X218220000Y-104280000D01*
X200073874Y-110196998D02*
X200280954Y-110196998D01*
X199077271Y-110197001D02*
X200073871Y-110197001D01*
X200646564Y-110196994D02*
X200646572Y-110196994D01*
X198745064Y-110196994D02*
X198745072Y-110196994D01*
X202182457Y-110197000D02*
X202856457Y-110871000D01*
X200646558Y-110197000D02*
X200646564Y-110196994D01*
X218220000Y-104280000D02*
X219002950Y-104280000D01*
X200646572Y-110196994D02*
X200646577Y-110196989D01*
X166898146Y-110547000D02*
X170866746Y-110547000D01*
X200280954Y-110196998D02*
X200280956Y-110197000D01*
X166021000Y-110871000D02*
X166574146Y-110871000D01*
X197495046Y-110547000D02*
X197845046Y-110197000D01*
X198745082Y-110196994D02*
X199077264Y-110196994D01*
X165000000Y-109850000D02*
X166021000Y-110871000D01*
X166574146Y-110871000D02*
X166898146Y-110547000D01*
X200073871Y-110197001D02*
X200073874Y-110196998D01*
X197845046Y-110197000D02*
X198745058Y-110197000D01*
X199077264Y-110196994D02*
X199077271Y-110197001D01*
X200280956Y-110197000D02*
X200646558Y-110197000D01*
X170866746Y-110547000D02*
X171072746Y-110753000D01*
X198745077Y-110196989D02*
X198745082Y-110196994D01*
X173811254Y-110547000D02*
X197495046Y-110547000D01*
X220900000Y-104280000D02*
X222000000Y-105380000D01*
X202856457Y-110871000D02*
X211629000Y-110871000D01*
X219916050Y-104279000D02*
X219917050Y-104280000D01*
X219003950Y-104279000D02*
X219916050Y-104279000D01*
X200978764Y-110196994D02*
X200978769Y-110196999D01*
X198745072Y-110196994D02*
X198745077Y-110196989D01*
X171072746Y-110753000D02*
X173605254Y-110753000D01*
X200978769Y-110196999D02*
X202182457Y-110197000D01*
X200646582Y-110196994D02*
X200978764Y-110196994D01*
%TO.N,/Perifericos/LED1*%
X210245000Y-99000000D02*
X169250000Y-99000000D01*
X220500000Y-86233000D02*
X220500000Y-88745000D01*
X218359000Y-90596050D02*
X218503975Y-90741025D01*
X218359000Y-89683950D02*
X218359000Y-90596050D01*
X169250000Y-99000000D02*
X169000000Y-99250000D01*
X218503975Y-90741025D02*
X210245000Y-99000000D01*
X220500000Y-88745000D02*
X220061025Y-89183975D01*
X220061025Y-89183975D02*
X219916050Y-89039000D01*
X219003950Y-89039000D02*
X218359000Y-89683950D01*
X219916050Y-89039000D02*
X219003950Y-89039000D01*
%TO.N,Net-(P4-IO3)*%
X202757357Y-111339000D02*
X212661000Y-111339000D01*
X170906646Y-111154000D02*
X173771354Y-111154000D01*
X164000000Y-110350000D02*
X165009000Y-111359000D01*
X165009000Y-111359000D02*
X166653246Y-111359000D01*
X202016357Y-110598000D02*
X202757357Y-111339000D01*
X198011146Y-110598000D02*
X198911158Y-110598000D01*
X198911171Y-110598001D02*
X200812658Y-110598000D01*
X200812658Y-110598000D02*
X200812664Y-110597994D01*
X198911158Y-110598000D02*
X198911164Y-110597994D01*
X197661146Y-110948000D02*
X198011146Y-110598000D01*
X173977354Y-110948000D02*
X197661146Y-110948000D01*
X200812664Y-110597994D02*
X200812669Y-110597999D01*
X212661000Y-111339000D02*
X218620000Y-105380000D01*
X167064246Y-110948000D02*
X170700646Y-110948000D01*
X200812669Y-110597999D02*
X202016357Y-110598000D01*
X218620000Y-105380000D02*
X219460000Y-105380000D01*
X198911164Y-110597994D02*
X198911171Y-110598001D01*
X170700646Y-110948000D02*
X170906646Y-111154000D01*
X173771354Y-111154000D02*
X173977354Y-110948000D01*
X166653246Y-111359000D02*
X167064246Y-110948000D01*
%TO.N,Net-(P4-IO10)*%
X219003950Y-96659000D02*
X219916050Y-96659000D01*
X199409494Y-107790989D02*
X199649984Y-107790989D01*
X197748484Y-107790989D02*
X197748489Y-107790984D01*
X199650049Y-107790959D02*
X199816141Y-107790964D01*
X169672000Y-106350000D02*
X171399000Y-108077000D01*
X200978801Y-107790979D02*
X200978806Y-107790984D01*
X199649984Y-107790989D02*
X199649989Y-107790984D01*
X199650008Y-107790979D02*
X199650013Y-107790974D01*
X171799346Y-108077000D02*
X172069346Y-108347000D01*
X201975369Y-107790999D02*
X203179057Y-107791000D01*
X197748489Y-107790984D02*
X199409489Y-107790984D01*
X171399000Y-108077000D02*
X171799346Y-108077000D01*
X199650032Y-107790969D02*
X199650037Y-107790964D01*
X172069346Y-108347000D02*
X172608654Y-108347000D01*
X200646618Y-107790979D02*
X200978801Y-107790979D01*
X200314430Y-107790974D02*
X200646613Y-107790974D01*
X199650044Y-107790964D02*
X199650049Y-107790959D01*
X201643177Y-107790989D02*
X201643182Y-107790994D01*
X199650020Y-107790974D02*
X199650025Y-107790969D01*
X199982242Y-107790969D02*
X200314425Y-107790969D01*
X197748464Y-107790994D02*
X197748472Y-107790994D01*
X197748472Y-107790994D02*
X197748477Y-107790989D01*
X220900000Y-96660000D02*
X222000000Y-97760000D01*
X201310989Y-107790984D02*
X201310994Y-107790989D01*
X199650001Y-107790979D02*
X199650008Y-107790979D01*
X172878654Y-108077000D02*
X196562446Y-108077000D01*
X205082000Y-108418000D02*
X216840000Y-96660000D01*
X197748458Y-107791000D02*
X197748464Y-107790994D01*
X216840000Y-96660000D02*
X219002950Y-96660000D01*
X203179057Y-107791000D02*
X203806057Y-108418000D01*
X199816141Y-107790964D02*
X199982237Y-107790964D01*
X199650013Y-107790974D02*
X199650020Y-107790974D01*
X201643182Y-107790994D02*
X201975364Y-107790994D01*
X201310994Y-107790989D02*
X201643177Y-107790989D01*
X199650025Y-107790969D02*
X199650032Y-107790969D01*
X199650037Y-107790964D02*
X199650044Y-107790964D01*
X199409489Y-107790984D02*
X199409494Y-107790989D01*
X219002950Y-96660000D02*
X219003950Y-96659000D01*
X197748477Y-107790989D02*
X197748484Y-107790989D01*
X203806057Y-108418000D02*
X205082000Y-108418000D01*
X200978806Y-107790984D02*
X201310989Y-107790984D01*
X200646613Y-107790974D02*
X200646618Y-107790979D01*
X196848446Y-107791000D02*
X197748458Y-107791000D01*
X172608654Y-108347000D02*
X172878654Y-108077000D01*
X200314425Y-107790969D02*
X200314430Y-107790974D01*
X196562446Y-108077000D02*
X196848446Y-107791000D01*
X219916050Y-96659000D02*
X219917050Y-96660000D01*
X199649989Y-107790984D02*
X199649996Y-107790984D01*
X201975364Y-107790994D02*
X201975369Y-107790999D01*
X219917050Y-96660000D02*
X220900000Y-96660000D01*
X199649996Y-107790984D02*
X199650001Y-107790979D01*
X199982237Y-107790964D02*
X199982242Y-107790969D01*
%TO.N,Net-(P4-IO12)*%
X167873791Y-105540612D02*
X168414403Y-105000000D01*
X217157000Y-94120000D02*
X220900000Y-94120000D01*
X206277000Y-105000000D02*
X217157000Y-94120000D01*
X220900000Y-94120000D02*
X222000000Y-95220000D01*
X167873791Y-106299128D02*
X167873791Y-105540612D01*
X168414403Y-105000000D02*
X206277000Y-105000000D01*
%TO.N,/Perifericos/BOT5*%
X191500000Y-138250000D02*
X188378000Y-135128000D01*
X156099000Y-135099000D02*
X154000000Y-133000000D01*
X188378000Y-135128000D02*
X176945100Y-135128000D01*
X176945100Y-135128000D02*
X176916100Y-135099000D01*
X176916100Y-135099000D02*
X156099000Y-135099000D01*
X154000000Y-133000000D02*
X154000000Y-124500000D01*
%TO.N,/Perifericos/BOT2*%
X152000000Y-134750000D02*
X152000000Y-124500000D01*
X155500000Y-138250000D02*
X152000000Y-134750000D01*
%TO.N,/Perifericos/LED2*%
X167250000Y-99250000D02*
X168000000Y-98500000D01*
X216500000Y-92110000D02*
X216500000Y-85449000D01*
X210110000Y-98500000D02*
X216500000Y-92110000D01*
X168000000Y-98500000D02*
X210110000Y-98500000D01*
%TO.N,/Perifericos/VUART_Rx*%
X159918400Y-121564400D02*
X160029000Y-121675000D01*
X161013001Y-121675000D02*
X161676001Y-121012000D01*
X170152000Y-122349200D02*
X172135800Y-124333000D01*
X170152000Y-121843800D02*
X170152000Y-122349200D01*
X160029000Y-121675000D02*
X161013001Y-121675000D01*
%TO.N,/Perifericos/VUART_CTS*%
X205933800Y-131973146D02*
X205552454Y-131591800D01*
X189208500Y-133123000D02*
X177775600Y-133123000D01*
X177746600Y-133094000D02*
X171194000Y-133094000D01*
X203906577Y-133051923D02*
X203880054Y-133025400D01*
X205013146Y-131591800D02*
X204631800Y-131973146D01*
X163890200Y-125790200D02*
X163890200Y-122040200D01*
X163890200Y-122040200D02*
X163500000Y-121650000D01*
X204631800Y-132326700D02*
X203906577Y-133051923D01*
X171194000Y-133094000D02*
X163890200Y-125790200D01*
X177775600Y-133123000D02*
X177746600Y-133094000D01*
X203880054Y-133025400D02*
X202011946Y-133025400D01*
X204631800Y-131973146D02*
X204631800Y-132326700D01*
X206222600Y-131953000D02*
X205933800Y-132241800D01*
X207114202Y-132011821D02*
X207055381Y-131953000D01*
X205933800Y-132241800D02*
X205933800Y-131973146D01*
X205552454Y-131591800D02*
X205013146Y-131591800D01*
X207055381Y-131953000D02*
X206222600Y-131953000D01*
X202011946Y-133025400D02*
X199100346Y-135937000D01*
X199100346Y-135937000D02*
X192022500Y-135937000D01*
X192022500Y-135937000D02*
X189208500Y-133123000D01*
%TO.N,/Perifericos/VUART_RTS*%
X205282800Y-132242800D02*
X204032400Y-133493200D01*
X204032400Y-133493200D02*
X203780754Y-133493200D01*
X189042400Y-133524000D02*
X177609500Y-133524000D01*
X203780754Y-133493200D02*
X203713954Y-133426400D01*
X170680600Y-133495000D02*
X163000000Y-125814400D01*
X163000000Y-125814400D02*
X163000000Y-124500000D01*
X202178046Y-133426400D02*
X199266446Y-136338000D01*
X191856400Y-136338000D02*
X189042400Y-133524000D01*
X203713954Y-133426400D02*
X202178046Y-133426400D01*
X177580500Y-133495000D02*
X170680600Y-133495000D01*
X199266446Y-136338000D02*
X191856400Y-136338000D01*
X177609500Y-133524000D02*
X177580500Y-133495000D01*
%TO.N,/Memorias y PLL/Flash_SCK*%
X198628000Y-113284000D02*
X192405000Y-119507000D01*
X198613000Y-112051000D02*
X198628000Y-112066000D01*
X192405000Y-119507000D02*
X192405000Y-120650000D01*
X198628000Y-112066000D02*
X198628000Y-113284000D01*
D18*
X198755000Y-100711000D02*
X198755000Y-103251000D01*
D17*
%TO.N,Net-(U4-~{PWREN})*%
X196103120Y-113802280D02*
X195021200Y-114884200D01*
X195021200Y-114884200D02*
X195021200Y-115671600D01*
X197190480Y-113802280D02*
X196103120Y-113802280D01*
%TO.N,Net-(U7-~{HOLD})*%
X197231000Y-89662000D02*
X197231000Y-93599000D01*
X198628000Y-88265000D02*
X197231000Y-89662000D01*
%TD*%
M02*
